<?xml version="1.0" encoding="UTF-8" ?>
<!DOCTYPE svg PUBLIC "-//W3C//DTD SVG 1.1//EN" "http://www.w3.org/Graphics/SVG/1.1/DTD/svg11.dtd">
<svg width="476pt" height="945pt" viewBox="0 0 476 945" version="1.1" xmlns="http://www.w3.org/2000/svg">
<g id="#73727280">
<path fill="#737272" opacity="0.50" d=" M 71.89 1.88 C 77.07 0.03 82.65 0.71 88.03 0.21 C 96.68 -0.41 105.28 1.18 113.55 3.62 C 118.95 5.53 124.59 7.22 129.14 10.84 C 133.00 12.86 136.37 15.62 140.00 18.01 C 144.41 21.85 148.13 26.42 152.46 30.37 C 155.63 33.05 157.47 36.83 159.57 40.33 C 161.99 44.18 161.93 49.47 165.95 52.24 C 164.57 54.27 165.96 56.52 166.46 58.60 C 168.80 65.58 168.89 73.00 169.98 80.21 C 166.12 81.59 162.00 80.83 158.00 80.91 C 111.34 80.99 64.68 80.87 18.02 80.94 C 14.27 81.04 10.45 81.34 6.79 80.29 C 7.47 80.14 8.83 79.84 9.51 79.69 C 9.41 69.90 11.73 60.23 15.02 51.07 C 17.70 44.19 21.85 38.03 25.77 31.81 C 31.14 24.96 37.07 17.96 45.18 14.35 C 49.99 11.61 54.13 7.83 59.20 5.53 C 61.47 5.36 63.26 3.99 65.15 2.89 C 67.40 2.61 69.72 2.65 71.89 1.88 M 85.45 32.52 C 80.30 33.90 76.25 38.22 75.03 43.39 C 73.24 50.58 77.97 58.46 85.03 60.53 C 94.49 64.15 105.19 54.66 103.73 44.89 C 102.90 36.35 93.69 30.18 85.45 32.52 Z" />
</g>
<g id="#220c0680">
<path fill="#220c06" opacity="0.50" d=" M 85.45 32.52 C 93.69 30.18 102.90 36.35 103.73 44.89 C 105.19 54.66 94.49 64.15 85.03 60.53 C 77.97 58.46 73.24 50.58 75.03 43.39 C 76.25 38.22 80.30 33.90 85.45 32.52 Z" />
</g>
<g id="#80534680">
<path fill="#805346" opacity="0.50" d=" M 0.00 52.58 C 4.95 52.04 10.75 54.42 15.02 51.07 C 11.73 60.23 9.41 69.90 9.51 79.69 C 8.83 79.84 7.47 80.14 6.79 80.29 C 4.54 79.96 2.27 79.81 0.00 79.75 L 0.00 52.58 Z" />
<path fill="#805346" opacity="0.50" d=" M 171.85 52.65 C 216.22 52.54 260.61 52.65 304.98 52.61 C 311.02 52.94 317.99 52.59 322.54 57.34 C 326.00 61.04 329.81 65.53 329.24 70.96 C 329.07 170.99 329.41 271.02 329.36 371.05 C 329.35 373.39 329.01 375.72 328.64 378.04 C 326.44 376.66 324.21 375.30 322.36 373.45 C 319.83 370.97 317.03 368.81 314.18 366.74 C 308.34 362.44 303.09 357.30 296.80 353.65 C 295.39 353.24 293.96 352.88 292.55 352.48 C 292.04 350.02 291.82 347.52 291.89 345.01 C 292.03 320.69 291.70 296.35 292.11 272.03 C 291.74 266.01 291.88 259.99 292.14 253.98 C 291.69 220.65 292.00 187.32 291.95 153.99 C 292.31 144.99 292.15 135.99 291.96 126.99 C 292.55 117.08 291.67 107.17 292.26 97.26 C 292.24 91.68 292.33 86.10 292.31 80.52 C 292.09 80.36 291.66 80.05 291.45 79.89 C 252.73 79.82 213.98 79.82 175.25 79.83 C 177.87 70.67 174.26 61.43 171.85 52.65 Z" />
<path fill="#805346" opacity="0.50" d=" M 270.09 610.08 C 270.85 609.38 271.80 610.10 272.64 610.22 C 272.83 609.91 273.22 609.30 273.41 609.00 C 275.43 617.40 275.13 626.63 279.83 634.17 C 283.68 640.99 287.68 647.73 291.39 654.62 C 293.84 659.17 296.81 663.45 298.73 668.28 C 264.47 668.57 230.20 668.37 195.94 668.39 C 184.67 667.54 173.37 667.91 162.08 667.84 C 108.05 667.84 54.03 667.85 0.00 667.83 L 0.00 663.47 C 69.38 663.63 138.76 663.62 208.13 663.48 C 209.49 663.34 210.24 662.03 211.17 661.21 C 214.92 656.92 219.64 653.68 223.94 649.99 C 229.23 645.95 233.34 640.60 238.82 636.79 C 243.65 633.37 247.31 628.61 252.12 625.17 C 258.61 620.74 263.48 614.37 270.09 610.08 Z" />
</g>
<g id="#804b3d80">
<path fill="#804b3d" opacity="0.50" d=" M 166.46 58.60 C 165.96 56.52 164.57 54.27 165.95 52.24 C 167.91 52.40 169.88 52.55 171.85 52.65 C 174.26 61.43 177.87 70.67 175.25 79.83 C 173.48 79.85 171.72 79.92 169.98 80.21 C 168.89 73.00 168.80 65.58 166.46 58.60 Z" />
</g>
<g id="#7b7b7b80">
<path fill="#7b7b7b" opacity="0.50" d=" M 0.00 79.75 C 2.27 79.81 4.54 79.96 6.79 80.29 C 10.45 81.34 14.27 81.04 18.02 80.94 C 64.68 80.87 111.34 80.99 158.00 80.91 C 162.00 80.83 166.12 81.59 169.98 80.21 C 171.72 79.92 173.48 79.85 175.25 79.83 C 213.98 79.82 252.73 79.82 291.45 79.89 C 291.55 170.63 291.51 261.38 291.41 352.12 C 285.94 353.78 282.18 359.29 281.94 364.91 C 281.44 367.84 282.66 371.00 281.36 373.76 C 273.67 361.83 265.28 350.37 257.63 338.41 C 251.09 334.11 243.31 332.21 236.31 328.79 C 238.93 328.66 241.56 328.61 244.18 328.68 C 244.54 324.97 244.29 321.25 244.41 317.53 C 214.27 317.17 184.11 317.48 153.97 317.38 C 102.65 317.39 51.32 317.37 0.00 317.41 L 0.00 285.44 C 81.44 285.36 162.89 285.47 244.33 285.39 C 244.39 281.76 244.39 278.13 244.33 274.50 C 162.89 274.50 81.44 274.44 0.00 274.53 L 0.00 242.46 C 81.45 242.39 162.89 242.50 244.34 242.41 C 244.39 238.79 244.39 235.18 244.34 231.57 C 162.90 231.57 81.45 231.54 0.00 231.59 L 0.00 199.61 C 81.45 199.54 162.90 199.62 244.34 199.57 C 244.39 195.87 244.39 192.17 244.34 188.47 C 184.90 188.40 125.46 188.46 66.01 188.44 C 44.01 188.56 21.99 188.20 0.00 188.62 L 0.00 156.47 C 81.45 156.45 162.89 156.47 244.34 156.45 C 244.38 152.82 244.39 149.18 244.34 145.55 C 163.53 145.20 82.72 145.40 1.92 145.39 C 1.44 145.49 0.48 145.69 0.00 145.80 L 0.00 79.75 Z" />
<path fill="#7b7b7b" opacity="0.50" d=" M 0.00 328.65 C 68.35 328.57 136.69 328.65 205.04 328.61 C 207.32 328.65 209.66 328.37 211.91 328.93 C 211.72 335.23 211.84 341.54 212.30 347.82 C 212.46 351.96 212.46 356.11 212.31 360.26 C 141.54 360.38 70.77 360.14 0.00 360.40 L 0.00 328.65 Z" />
<path fill="#7b7b7b" opacity="0.50" d=" M 0.00 371.62 C 71.66 371.51 143.33 371.49 214.99 371.63 C 232.73 397.76 250.77 423.70 268.25 450.00 C 263.43 446.34 260.82 440.65 256.22 436.76 C 248.65 429.33 240.21 420.98 229.04 420.11 C 220.64 420.26 214.50 427.87 211.80 435.15 C 211.92 438.67 213.71 441.79 214.96 444.99 C 216.97 449.67 218.51 454.54 220.65 459.16 C 223.41 461.34 227.24 459.75 230.44 459.93 C 232.41 460.52 234.42 460.95 236.44 461.34 C 236.28 467.42 230.57 470.19 226.17 473.06 C 233.38 491.97 241.05 510.71 248.40 529.57 C 254.38 542.26 258.87 555.55 263.55 568.75 C 246.35 569.04 229.15 568.97 211.94 569.03 C 209.38 568.98 206.84 568.65 204.31 568.31 C 203.72 582.19 204.18 596.09 204.02 609.98 C 203.94 613.12 204.06 616.29 204.59 619.40 C 205.70 625.70 204.81 632.10 205.14 638.45 C 207.13 638.27 209.12 638.07 211.11 637.87 C 207.97 640.23 205.54 644.78 201.01 644.03 C 134.01 643.91 67.00 644.11 0.00 643.94 L 0.00 371.62 M 85.44 453.61 C 63.38 455.20 42.90 469.85 34.24 490.20 C 27.34 505.95 27.49 524.68 34.85 540.25 C 40.16 551.75 49.10 561.57 60.19 567.73 C 72.80 575.26 88.25 577.18 102.55 574.45 C 120.74 571.00 136.67 558.41 144.96 541.96 C 150.75 530.64 152.59 517.47 150.61 504.96 C 148.44 489.73 139.88 475.67 127.77 466.27 C 115.87 457.06 100.44 452.38 85.44 453.61 M 203.36 619.88 C 202.81 625.60 202.80 631.41 203.38 637.13 C 204.51 631.54 204.49 625.45 203.36 619.88 Z" />
</g>
<g id="#5d1b0980">
<path fill="#5d1b09" opacity="0.50" d=" M 291.45 79.89 C 291.66 80.05 292.09 80.36 292.31 80.52 C 292.33 86.10 292.24 91.68 292.26 97.26 C 291.67 107.17 292.55 117.08 291.96 126.99 C 292.15 135.99 292.31 144.99 291.95 153.99 C 292.00 187.32 291.69 220.65 292.14 253.98 C 291.88 259.99 291.74 266.01 292.11 272.03 C 291.70 296.35 292.03 320.69 291.89 345.01 C 291.82 347.52 292.04 350.02 292.55 352.48 C 292.27 352.39 291.70 352.21 291.41 352.12 C 291.51 261.38 291.55 170.63 291.45 79.89 Z" />
<path fill="#5d1b09" opacity="0.50" d=" M 226.71 358.18 C 226.94 358.18 227.40 358.19 227.62 358.19 C 229.76 362.01 232.38 365.53 234.84 369.15 C 262.53 409.78 290.08 450.50 317.91 491.03 C 340.68 524.99 364.08 558.51 386.74 592.54 L 386.96 592.88 C 381.92 595.95 377.04 599.31 372.34 602.90 C 355.75 578.19 338.97 553.60 322.10 529.09 C 312.16 513.79 301.76 498.79 291.35 483.80 C 287.82 478.21 283.97 472.84 280.19 467.43 C 276.34 461.54 272.53 455.59 268.25 450.00 C 250.77 423.70 232.73 397.76 214.99 371.63 C 143.33 371.49 71.66 371.51 0.00 371.62 L 0.00 371.40 C 70.00 371.49 140.00 371.36 210.00 371.46 C 211.66 371.43 213.33 371.31 215.00 371.19 C 214.57 370.06 214.12 368.94 213.65 367.84 C 215.60 367.73 217.58 367.73 219.48 367.27 C 223.33 365.78 225.53 361.93 226.71 358.18 Z" />
</g>
<g id="#3b0f0280">
<path fill="#3b0f02" opacity="0.50" d=" M 0.00 145.80 C 0.48 145.69 1.44 145.49 1.92 145.39 C 82.72 145.40 163.53 145.20 244.34 145.55 C 244.39 149.18 244.38 152.82 244.34 156.45 C 162.89 156.47 81.45 156.45 0.00 156.47 L 0.00 145.80 Z" />
</g>
<g id="#3c0f0280">
<path fill="#3c0f02" opacity="0.50" d=" M 0.00 188.62 C 21.99 188.20 44.01 188.56 66.01 188.44 C 125.46 188.46 184.90 188.40 244.34 188.47 C 244.39 192.17 244.39 195.87 244.34 199.57 C 162.90 199.62 81.45 199.54 0.00 199.61 L 0.00 188.62 Z" />
<path fill="#3c0f02" opacity="0.50" d=" M 0.00 231.59 C 81.45 231.54 162.90 231.57 244.34 231.57 C 244.39 235.18 244.39 238.79 244.34 242.41 C 162.89 242.50 81.45 242.39 0.00 242.46 L 0.00 231.59 Z" />
<path fill="#3c0f02" opacity="0.50" d=" M 0.00 274.53 C 81.44 274.44 162.89 274.50 244.33 274.50 C 244.39 278.13 244.39 281.76 244.33 285.39 C 162.89 285.47 81.44 285.36 0.00 285.44 L 0.00 274.53 Z" />
<path fill="#3c0f02" opacity="0.50" d=" M 0.00 317.41 C 51.32 317.37 102.65 317.39 153.97 317.38 C 184.11 317.48 214.27 317.17 244.41 317.53 C 244.29 321.25 244.54 324.97 244.18 328.68 C 241.56 328.61 238.93 328.66 236.31 328.79 C 231.17 327.73 226.44 325.30 221.50 323.57 C 218.89 322.47 216.20 321.46 213.35 321.25 C 213.02 323.43 212.74 325.62 212.51 327.82 C 208.70 328.55 204.82 328.29 200.96 328.29 C 133.98 328.27 66.99 328.32 0.00 328.26 L 0.00 317.41 Z" />
<path fill="#3c0f02" opacity="0.50" d=" M 212.30 347.82 C 213.05 354.27 212.16 360.76 212.70 367.23 C 212.93 367.38 213.41 367.69 213.65 367.84 C 214.12 368.94 214.57 370.06 215.00 371.19 C 213.33 371.31 211.66 371.43 210.00 371.46 C 140.00 371.36 70.00 371.49 0.00 371.40 L 0.00 360.40 C 70.77 360.14 141.54 360.38 212.31 360.26 C 212.46 356.11 212.46 351.96 212.30 347.82 Z" />
</g>
<g id="#1717167b">
<path fill="#171716" opacity="0.48" d=" M 213.35 321.25 C 216.20 321.46 218.89 322.47 221.50 323.57 C 221.40 325.37 221.30 327.17 221.23 328.97 C 219.71 329.92 218.31 331.54 216.35 331.20 C 214.85 330.48 213.38 329.69 211.91 328.93 C 209.66 328.37 207.32 328.65 205.04 328.61 C 136.69 328.65 68.35 328.57 0.00 328.65 L 0.00 328.26 C 66.99 328.32 133.98 328.27 200.96 328.29 C 204.82 328.29 208.70 328.55 212.51 327.82 C 212.74 325.62 213.02 323.43 213.35 321.25 Z" />
</g>
<g id="#73554d80">
<path fill="#73554d" opacity="0.50" d=" M 221.50 323.57 C 226.44 325.30 231.17 327.73 236.31 328.79 C 243.31 332.21 251.09 334.11 257.63 338.41 C 254.95 340.65 254.65 344.82 251.41 346.49 C 248.79 347.86 245.70 347.55 242.92 348.44 L 242.40 348.77 C 236.89 340.71 228.05 335.80 221.23 328.97 C 221.30 327.17 221.40 325.37 221.50 323.57 Z" />
</g>
<g id="#80716d80">
<path fill="#80716d" opacity="0.50" d=" M 211.91 328.93 C 213.38 329.69 214.85 330.48 216.35 331.20 C 219.79 340.20 222.84 349.35 226.71 358.18 C 225.53 361.93 223.33 365.78 219.48 367.27 C 217.58 367.73 215.60 367.73 213.65 367.84 C 213.41 367.69 212.93 367.38 212.70 367.23 C 212.16 360.76 213.05 354.27 212.30 347.82 C 211.84 341.54 211.72 335.23 211.91 328.93 Z" />
</g>
<g id="#80676080">
<path fill="#806760" opacity="0.50" d=" M 216.35 331.20 C 218.31 331.54 219.71 329.92 221.23 328.97 C 228.05 335.80 236.89 340.71 242.40 348.77 C 241.09 351.25 240.22 354.17 237.84 355.88 C 234.91 358.04 231.05 357.70 227.62 358.19 C 227.40 358.19 226.94 358.18 226.71 358.18 C 222.84 349.35 219.79 340.20 216.35 331.20 Z" />
</g>
<g id="#72311f80">
<path fill="#72311f" opacity="0.50" d=" M 251.41 346.49 C 254.65 344.82 254.95 340.65 257.63 338.41 C 265.28 350.37 273.67 361.83 281.36 373.76 C 289.89 385.78 297.51 398.49 306.90 409.86 C 307.78 411.70 308.64 413.56 309.78 415.27 C 318.29 427.75 326.83 440.22 335.26 452.76 C 338.40 456.68 341.35 460.76 343.79 465.17 C 356.13 483.14 368.22 501.30 380.57 519.26 C 389.73 532.83 398.93 546.37 408.20 559.87 C 411.08 564.12 413.80 568.49 417.14 572.41 C 412.22 575.45 407.55 578.87 402.69 581.99 L 402.32 582.22 C 380.03 549.05 357.33 516.14 334.98 483.00 C 331.38 477.62 328.02 472.08 323.95 467.04 C 313.43 451.28 302.65 435.68 292.01 420.00 C 275.56 396.21 259.80 371.92 242.92 348.44 C 245.70 347.55 248.79 347.86 251.41 346.49 Z" />
</g>
<g id="#78433480">
<path fill="#784334" opacity="0.50" d=" M 242.40 348.77 L 242.92 348.44 C 259.80 371.92 275.56 396.21 292.01 420.00 C 302.65 435.68 313.43 451.28 323.95 467.04 C 328.02 472.08 331.38 477.62 334.98 483.00 C 357.33 516.14 380.03 549.05 402.32 582.22 C 397.21 585.78 392.04 589.26 386.74 592.54 C 364.08 558.51 340.68 524.99 317.91 491.03 C 290.08 450.50 262.53 409.78 234.84 369.15 C 232.38 365.53 229.76 362.01 227.62 358.19 C 231.05 357.70 234.91 358.04 237.84 355.88 C 240.22 354.17 241.09 351.25 242.40 348.77 Z" />
</g>
<g id="#805e5580">
<path fill="#805e55" opacity="0.50" d=" M 281.94 364.91 C 282.18 359.29 285.94 353.78 291.41 352.12 C 291.70 352.21 292.27 352.39 292.55 352.48 C 293.96 352.88 295.39 353.24 296.80 353.65 C 292.71 356.30 288.88 360.86 288.87 365.93 C 291.83 369.67 296.13 372.17 299.92 375.04 C 303.37 377.49 307.37 379.32 311.70 379.12 C 316.25 379.98 320.26 377.34 322.36 373.45 C 324.21 375.30 326.44 376.66 328.64 378.04 C 331.01 382.27 335.76 383.89 339.62 386.40 C 353.91 395.32 369.04 402.80 383.36 411.65 C 387.66 414.62 392.55 417.20 395.14 421.98 C 402.30 430.89 408.37 440.61 415.38 449.63 C 420.93 455.21 425.11 461.92 429.77 468.23 C 435.96 478.84 442.98 488.97 450.86 498.40 C 452.40 500.14 451.20 502.57 450.79 504.52 C 448.03 513.11 447.74 522.14 446.28 530.97 C 445.26 536.25 446.00 541.74 444.34 546.90 C 442.99 553.78 441.99 560.78 439.83 567.48 C 437.75 578.10 436.89 588.98 434.69 599.56 C 432.90 596.84 430.95 594.19 429.79 591.12 C 426.16 584.54 421.80 578.32 417.14 572.41 C 413.80 568.49 411.08 564.12 408.20 559.87 C 398.93 546.37 389.73 532.83 380.57 519.26 C 381.79 516.86 383.36 514.55 383.90 511.88 C 383.35 507.81 381.01 504.29 379.35 500.62 C 372.76 486.31 365.62 472.26 359.25 457.86 C 358.10 455.16 357.12 452.15 354.60 450.40 C 346.51 444.51 339.05 437.80 330.88 432.01 C 326.30 427.64 321.80 423.18 317.14 418.90 C 313.73 415.88 311.08 411.94 306.90 409.86 C 297.51 398.49 289.89 385.78 281.36 373.76 C 282.66 371.00 281.44 367.84 281.94 364.91 Z" />
<path fill="#805e55" opacity="0.50" d=" M 211.80 435.15 C 214.50 427.87 220.64 420.26 229.04 420.11 C 240.21 420.98 248.65 429.33 256.22 436.76 C 260.82 440.65 263.43 446.34 268.25 450.00 C 272.53 455.59 276.34 461.54 280.19 467.43 C 282.32 474.73 288.33 480.10 290.68 487.35 C 294.34 497.73 299.99 507.32 303.23 517.87 C 303.74 519.47 304.30 521.28 306.02 521.99 C 311.24 524.63 316.30 527.86 322.10 529.09 C 338.97 553.60 355.75 578.19 372.34 602.90 C 376.35 609.20 380.40 615.51 385.01 621.40 C 387.24 623.70 389.44 626.04 391.43 628.57 C 396.97 635.49 406.19 639.22 414.99 638.22 C 419.55 637.95 423.40 635.22 427.65 633.85 C 427.96 640.28 426.25 646.58 426.22 653.01 C 426.19 655.65 426.68 658.33 426.13 660.97 C 424.72 668.08 425.73 675.35 425.41 682.53 C 406.63 681.86 387.82 682.39 369.03 682.21 C 347.92 682.47 326.80 681.94 305.69 682.34 C 305.45 680.78 304.86 679.34 303.92 678.09 C 301.77 675.05 300.36 671.59 298.73 668.28 C 296.81 663.45 293.84 659.17 291.39 654.62 C 287.68 647.73 283.68 640.99 279.83 634.17 C 275.13 626.63 275.43 617.40 273.41 609.00 C 271.81 601.87 271.30 594.52 269.17 587.51 C 267.92 581.11 266.97 574.43 263.55 568.75 C 258.87 555.55 254.38 542.26 248.40 529.57 C 241.05 510.71 233.38 491.97 226.17 473.06 C 230.57 470.19 236.28 467.42 236.44 461.34 C 238.67 450.52 233.83 440.11 229.34 430.57 C 223.00 429.09 217.39 432.87 211.80 435.15 Z" />
</g>
<g id="#80716e80">
<path fill="#80716e" opacity="0.50" d=" M 288.87 365.93 C 288.88 360.86 292.71 356.30 296.80 353.65 C 303.09 357.30 308.34 362.44 314.18 366.74 C 312.66 370.67 310.47 374.78 311.70 379.12 C 307.37 379.32 303.37 377.49 299.92 375.04 C 296.13 372.17 291.83 369.67 288.87 365.93 Z" />
<path fill="#80716e" opacity="0.50" d=" M 211.80 435.15 C 217.39 432.87 223.00 429.09 229.34 430.57 C 233.83 440.11 238.67 450.52 236.44 461.34 C 234.42 460.95 232.41 460.52 230.44 459.93 C 227.34 458.58 223.92 458.99 220.65 459.16 C 218.51 454.54 216.97 449.67 214.96 444.99 C 213.71 441.79 211.92 438.67 211.80 435.15 Z" />
</g>
<g id="#807a7880">
<path fill="#807a78" opacity="0.50" d=" M 314.18 366.74 C 317.03 368.81 319.83 370.97 322.36 373.45 C 320.26 377.34 316.25 379.98 311.70 379.12 C 310.47 374.78 312.66 370.67 314.18 366.74 Z" />
</g>
<g id="#7e534780">
<path fill="#7e5347" opacity="0.50" d=" M 306.90 409.86 C 311.08 411.94 313.73 415.88 317.14 418.90 C 321.80 423.18 326.30 427.64 330.88 432.01 C 339.05 437.80 346.51 444.51 354.60 450.40 C 357.12 452.15 358.10 455.16 359.25 457.86 C 365.62 472.26 372.76 486.31 379.35 500.62 C 381.01 504.29 383.35 507.81 383.90 511.88 C 383.36 514.55 381.79 516.86 380.57 519.26 C 368.22 501.30 356.13 483.14 343.79 465.17 C 341.35 460.76 338.40 456.68 335.26 452.76 C 326.83 440.22 318.29 427.75 309.78 415.27 C 308.64 413.56 307.78 411.70 306.90 409.86 Z" />
</g>
<g id="#68200c80">
<path fill="#68200c" opacity="0.50" d=" M 85.44 453.61 C 100.44 452.38 115.87 457.06 127.77 466.27 C 139.88 475.67 148.44 489.73 150.61 504.96 C 152.59 517.47 150.75 530.64 144.96 541.96 C 136.67 558.41 120.74 571.00 102.55 574.45 C 88.25 577.18 72.80 575.26 60.19 567.73 C 49.10 561.57 40.16 551.75 34.85 540.25 C 27.49 524.68 27.34 505.95 34.24 490.20 C 42.90 469.85 63.38 455.20 85.44 453.61 M 77.27 472.07 C 77.22 481.82 77.31 491.57 77.21 501.32 C 67.36 501.75 57.48 501.08 47.63 501.66 C 47.76 510.38 47.62 519.09 47.73 527.81 C 57.44 528.01 67.31 527.31 76.93 528.07 C 77.63 537.61 77.12 547.32 77.22 556.94 C 85.93 557.51 94.70 557.21 103.44 557.10 C 103.58 547.50 103.33 537.89 103.42 528.30 L 103.85 527.90 C 113.43 527.62 123.02 527.83 132.60 527.81 C 133.01 519.03 132.72 510.23 132.76 501.44 C 122.99 501.42 113.22 501.49 103.46 501.33 C 103.40 491.63 103.45 481.93 103.53 472.23 C 94.79 471.81 86.01 471.63 77.27 472.07 Z" />
</g>
<g id="#6c62606d">
<path fill="#6c6260" opacity="0.43" d=" M 220.65 459.16 C 223.92 458.99 227.34 458.58 230.44 459.93 C 227.24 459.75 223.41 461.34 220.65 459.16 Z" />
</g>
<g id="#78787880">
<path fill="#787878" opacity="0.50" d=" M 280.19 467.43 C 283.97 472.84 287.82 478.21 291.35 483.80 C 291.18 484.69 290.85 486.46 290.68 487.35 C 288.33 480.10 282.32 474.73 280.19 467.43 Z" />
<path fill="#787878" opacity="0.50" d=" M 387.10 715.41 C 398.38 716.03 409.67 715.71 420.96 715.76 C 428.08 715.73 435.22 716.03 442.33 715.38 C 444.86 715.28 447.40 715.34 449.93 715.35 C 451.35 720.08 450.40 725.10 450.72 729.97 C 450.84 801.65 450.82 873.32 450.70 945.00 L 449.62 945.00 C 447.86 944.20 445.99 943.68 444.05 943.79 C 414.81 943.73 385.58 943.88 356.34 943.63 C 356.17 887.08 356.32 830.53 356.25 773.98 C 356.09 763.68 356.73 753.35 355.70 743.09 C 355.47 733.89 355.56 724.69 355.64 715.50 C 366.13 715.73 376.62 715.56 387.10 715.41 Z" />
</g>
<g id="#80808080">
<path fill="#808080" opacity="0.50" d=" M 77.27 472.07 C 86.01 471.63 94.79 471.81 103.53 472.23 C 103.45 481.93 103.40 491.63 103.46 501.33 C 113.22 501.49 122.99 501.42 132.76 501.44 C 132.72 510.23 133.01 519.03 132.60 527.81 C 123.02 527.83 113.43 527.62 103.85 527.90 L 103.42 528.30 C 103.33 537.89 103.58 547.50 103.44 557.10 C 94.70 557.21 85.93 557.51 77.22 556.94 C 77.12 547.32 77.63 537.61 76.93 528.07 C 67.31 527.31 57.44 528.01 47.73 527.81 C 47.62 519.09 47.76 510.38 47.63 501.66 C 57.48 501.08 67.36 501.75 77.21 501.32 C 77.31 491.57 77.22 481.82 77.27 472.07 Z" />
<path fill="#808080" opacity="0.50" d=" M 204.31 568.31 C 206.84 568.65 209.38 568.98 211.94 569.03 C 229.15 568.97 246.35 569.04 263.55 568.75 C 266.97 574.43 267.92 581.11 269.17 587.51 C 249.89 604.38 230.55 621.18 211.11 637.87 C 209.12 638.07 207.13 638.27 205.14 638.45 C 204.81 632.10 205.70 625.70 204.59 619.40 C 204.06 616.29 203.94 613.12 204.02 609.98 C 204.18 596.09 203.72 582.19 204.31 568.31 Z" />
</g>
<g id="#80524680">
<path fill="#805246" opacity="0.50" d=" M 291.35 483.80 C 301.76 498.79 312.16 513.79 322.10 529.09 C 316.30 527.86 311.24 524.63 306.02 521.99 C 304.30 521.28 303.74 519.47 303.23 517.87 C 299.99 507.32 294.34 497.73 290.68 487.35 C 290.85 486.46 291.18 484.69 291.35 483.80 Z" />
</g>
<g id="#251d1b80">
<path fill="#251d1b" opacity="0.50" d=" M 402.69 581.99 C 407.55 578.87 412.22 575.45 417.14 572.41 C 421.80 578.32 426.16 584.54 429.79 591.12 C 425.10 594.24 420.40 597.35 415.82 600.63 C 414.00 599.29 412.52 597.57 411.36 595.64 C 408.51 591.06 405.20 586.77 402.69 581.99 Z" />
</g>
<g id="#3b2f2b80">
<path fill="#3b2f2b" opacity="0.50" d=" M 402.32 582.22 L 402.69 581.99 C 405.20 586.77 408.51 591.06 411.36 595.64 C 412.52 597.57 414.00 599.29 415.82 600.63 C 410.43 604.44 404.89 608.05 399.46 611.81 C 395.83 605.16 390.88 599.35 386.96 592.88 L 386.74 592.54 C 392.04 589.26 397.21 585.78 402.32 582.22 Z" />
</g>
<g id="#804c3d80">
<path fill="#804c3d" opacity="0.50" d=" M 211.11 637.87 C 230.55 621.18 249.89 604.38 269.17 587.51 C 271.30 594.52 271.81 601.87 273.41 609.00 C 273.22 609.30 272.83 609.91 272.64 610.22 C 271.80 610.10 270.85 609.38 270.09 610.08 C 263.48 614.37 258.61 620.74 252.12 625.17 C 247.31 628.61 243.65 633.37 238.82 636.79 C 233.34 640.60 229.23 645.95 223.94 649.99 C 219.64 653.68 214.92 656.92 211.17 661.21 C 210.24 662.03 209.49 663.34 208.13 663.48 C 138.76 663.30 69.38 663.60 0.00 663.33 L 0.00 643.94 C 67.00 644.11 134.01 643.91 201.01 644.03 C 205.54 644.78 207.97 640.23 211.11 637.87 Z" />
</g>
<g id="#7b463780">
<path fill="#7b4637" opacity="0.50" d=" M 415.82 600.63 C 420.40 597.35 425.10 594.24 429.79 591.12 C 430.95 594.19 432.90 596.84 434.69 599.56 C 434.81 603.17 436.93 606.40 436.65 610.05 C 436.73 615.16 436.51 620.49 434.14 625.14 C 432.27 628.27 428.95 630.34 427.65 633.85 C 423.40 635.22 419.55 637.95 414.99 638.22 C 406.19 639.22 396.97 635.49 391.43 628.57 C 389.44 626.04 387.24 623.70 385.01 621.40 C 389.93 618.36 394.70 615.09 399.46 611.81 C 404.89 608.05 410.43 604.44 415.82 600.63 M 415.32 625.40 C 412.49 626.11 409.13 626.68 407.40 629.30 C 406.36 631.02 407.78 632.87 409.28 633.70 C 414.17 634.48 419.80 634.17 423.71 630.77 C 425.03 629.78 425.21 628.03 424.27 626.72 C 421.59 625.19 418.34 624.62 415.32 625.40 Z" />
</g>
<g id="#20191780">
<path fill="#201917" opacity="0.50" d=" M 372.34 602.90 C 377.04 599.31 381.92 595.95 386.96 592.88 C 390.88 599.35 395.83 605.16 399.46 611.81 C 394.70 615.09 389.93 618.36 385.01 621.40 C 380.40 615.51 376.35 609.20 372.34 602.90 Z" />
</g>
<g id="#6b6b6b6e">
<path fill="#6b6b6b" opacity="0.43" d=" M 203.36 619.88 C 204.49 625.45 204.51 631.54 203.38 637.13 C 202.80 631.41 202.81 625.60 203.36 619.88 Z" />
</g>
<g id="#7c534880">
<path fill="#7c5348" opacity="0.50" d=" M 415.32 625.40 C 418.34 624.62 421.59 625.19 424.27 626.72 C 425.21 628.03 425.03 629.78 423.71 630.77 C 419.80 634.17 414.17 634.48 409.28 633.70 C 407.78 632.87 406.36 631.02 407.40 629.30 C 409.13 626.68 412.49 626.11 415.32 625.40 Z" />
</g>
<g id="#763c2b80">
<path fill="#763c2b" opacity="0.50" d=" M 282.00 682.36 C 289.89 682.28 297.79 682.55 305.69 682.34 C 326.80 681.94 347.92 682.47 369.03 682.21 C 387.82 682.39 406.63 681.86 425.41 682.53 C 431.03 683.07 436.66 682.24 442.30 682.40 C 442.37 693.39 442.31 704.39 442.33 715.38 C 435.22 716.03 428.08 715.73 420.96 715.76 C 409.67 715.71 398.38 716.03 387.10 715.41 C 375.73 714.92 364.33 715.62 352.98 714.77 C 329.23 714.76 305.49 714.80 281.74 714.76 C 282.21 703.97 281.73 693.15 282.00 682.36 M 301.21 692.35 C 295.96 694.39 295.52 702.87 300.66 705.28 C 304.82 707.67 311.47 705.20 311.74 700.05 C 312.89 694.57 306.06 689.53 301.21 692.35 Z" />
</g>
<g id="#1f1d1c80">
<path fill="#1f1d1c" opacity="0.50" d=" M 301.21 692.35 C 306.06 689.53 312.89 694.57 311.74 700.05 C 311.47 705.20 304.82 707.67 300.66 705.28 C 295.52 702.87 295.96 694.39 301.21 692.35 Z" />
</g>
<g id="#73737380">
<path fill="#737373" opacity="0.50" d=" M 260.82 715.25 C 267.22 715.13 273.65 715.62 280.02 714.83 C 281.64 715.13 283.24 715.66 284.91 715.62 C 308.43 715.57 331.95 715.64 355.47 715.54 C 355.50 724.72 355.12 733.92 355.70 743.09 C 356.73 753.35 356.09 763.68 356.25 773.98 C 356.32 830.53 356.17 887.08 356.34 943.63 C 385.58 943.88 414.81 943.73 444.05 943.79 C 445.99 943.68 447.86 944.20 449.62 945.00 L 260.75 945.00 C 260.71 887.67 260.47 830.34 261.14 773.02 C 260.62 753.77 261.69 734.50 260.82 715.25 Z" />
</g>
<g id="#22171431">
<path fill="#221714" opacity="0.19" d=" M 256.13 945.00 C 253.22 942.56 259.20 942.00 258.97 945.00 L 256.13 945.00 Z" />
</g>
</svg>
