<?xml version="1.0" encoding="UTF-8" ?>
<!DOCTYPE svg PUBLIC "-//W3C//DTD SVG 1.1//EN" "http://www.w3.org/Graphics/SVG/1.1/DTD/svg11.dtd">
<svg width="1114pt" height="563pt" viewBox="0 0 1114 563" version="1.1" xmlns="http://www.w3.org/2000/svg">
<g id="#1e17006e">
<path fill="#1e1700" opacity="0.43" d=" M 523.43 0.00 L 542.45 0.00 C 524.50 3.14 504.86 2.41 488.96 12.95 C 461.44 27.66 445.06 58.51 445.34 89.31 C 440.50 44.20 479.69 3.94 523.43 0.00 Z" />
</g>
<g id="#2d220080">
<path fill="#2d2200" opacity="0.50" d=" M 542.45 0.00 L 652.63 0.00 C 655.26 1.46 659.84 2.15 657.01 7.01 C 657.62 20.82 650.63 33.06 648.12 46.23 C 644.37 56.05 637.46 64.09 631.64 72.68 C 628.63 76.47 633.28 82.31 637.67 79.74 C 645.66 75.35 648.61 65.89 654.30 59.27 C 660.90 55.98 667.41 64.40 672.80 67.20 C 682.88 79.18 690.39 93.88 691.28 109.76 C 691.07 116.58 690.89 123.42 691.21 130.24 C 690.95 138.08 691.08 145.94 690.81 153.78 C 690.24 163.51 688.65 173.68 690.68 183.30 C 697.93 191.17 709.77 193.92 718.25 200.76 C 706.79 196.46 696.00 190.14 686.32 182.69 C 677.37 177.37 667.94 172.73 659.72 166.27 C 661.17 156.65 662.47 146.49 658.89 137.17 C 655.79 134.52 652.10 132.63 649.29 129.67 C 646.64 121.09 648.72 111.88 647.88 103.06 C 587.99 104.20 527.95 104.82 468.06 103.05 C 467.84 111.28 468.19 119.52 467.88 127.76 C 460.64 132.34 448.78 135.97 449.85 146.65 C 448.86 153.30 449.11 160.04 448.81 166.74 C 441.74 171.85 433.62 175.52 426.24 180.23 C 424.66 177.64 423.29 174.88 421.13 172.70 C 421.34 154.36 423.66 135.85 420.82 117.64 C 422.56 108.07 429.10 99.14 438.11 95.17 C 440.47 93.21 445.18 93.09 445.34 89.31 C 445.06 58.51 461.44 27.66 488.96 12.95 C 504.86 2.41 524.50 3.14 542.45 0.00 Z" />
</g>
<g id="#1c16006b">
<path fill="#1c1600" opacity="0.42" d=" M 652.63 0.00 L 659.06 0.00 C 658.61 15.78 655.81 32.29 648.12 46.23 C 650.63 33.06 657.62 20.82 657.01 7.01 C 659.84 2.15 655.26 1.46 652.63 0.00 Z" />
</g>
<g id="#80671780">
<path fill="#806717" opacity="0.50" d=" M 468.06 103.05 C 527.95 104.82 587.99 104.20 647.88 103.06 C 648.72 111.88 646.64 121.09 649.29 129.67 C 652.10 132.63 655.79 134.52 658.89 137.17 C 662.47 146.49 661.17 156.65 659.72 166.27 C 651.45 165.95 645.74 157.08 637.04 159.05 C 622.45 162.30 607.75 165.09 593.12 168.18 C 582.64 170.44 585.59 187.28 573.80 186.45 C 571.27 179.13 567.71 170.47 559.35 168.59 C 549.73 165.34 538.60 171.63 536.38 181.36 C 535.51 183.11 535.60 186.05 533.19 186.37 C 522.51 185.41 524.59 169.28 513.96 168.09 C 500.16 164.89 486.35 161.72 472.55 158.54 C 464.96 155.62 459.02 161.60 453.00 164.96 C 446.68 161.94 453.27 151.92 449.85 146.65 C 448.78 135.97 460.64 132.34 467.88 127.76 C 468.19 119.52 467.84 111.28 468.06 103.05 Z" />
<path fill="#806717" opacity="0.50" d=" M 549.13 206.15 C 556.89 202.49 564.51 208.42 571.00 212.03 C 577.55 214.71 577.95 222.89 582.71 227.29 C 587.56 232.71 597.57 232.93 598.45 241.67 C 601.22 251.74 608.67 259.24 617.29 264.68 C 615.76 268.73 608.53 277.98 615.59 279.14 C 614.81 283.31 615.86 285.95 619.94 284.99 C 613.61 287.64 617.49 293.69 622.88 293.85 C 636.93 288.40 650.66 281.15 665.98 279.95 C 670.97 277.26 672.34 281.92 672.33 285.18 C 662.45 310.81 644.54 333.51 621.19 348.14 C 615.67 349.87 610.59 352.63 605.74 355.72 C 580.06 366.20 551.14 368.86 524.26 361.58 C 517.39 359.69 511.05 356.26 504.13 354.56 C 503.17 353.96 502.20 353.37 501.24 352.80 C 474.38 337.39 451.76 313.77 441.44 284.16 C 442.53 282.57 443.37 279.33 445.89 280.17 C 454.46 282.01 463.00 284.36 471.03 287.95 C 477.19 290.13 483.56 295.13 490.28 292.32 C 493.19 290.80 491.76 287.58 489.67 286.07 C 490.73 283.97 491.96 281.97 493.15 279.96 C 493.95 281.36 496.28 280.42 496.00 278.94 C 497.65 273.22 491.85 269.55 491.88 264.14 C 502.10 257.33 508.82 246.89 512.33 235.27 C 520.28 231.13 529.02 226.75 531.08 217.08 C 534.38 210.60 543.40 209.89 549.13 206.15 Z" />
</g>
<g id="#120d003b">
<path fill="#120d00" opacity="0.23" d=" M 691.28 109.76 C 692.30 116.55 692.20 123.45 691.21 130.24 C 690.89 123.42 691.07 116.58 691.28 109.76 Z" />
</g>
<g id="#17110062">
<path fill="#171100" opacity="0.38" d=" M 420.78 179.30 C 419.47 158.83 419.46 138.11 420.82 117.64 C 423.66 135.85 421.34 154.36 421.13 172.70 C 421.02 174.90 420.88 177.09 420.78 179.30 Z" />
</g>
<g id="#755a0180">
<path fill="#755a01" opacity="0.50" d=" M 448.81 166.74 C 449.11 160.04 448.86 153.30 449.85 146.65 C 453.27 151.92 446.68 161.94 453.00 164.96 C 459.02 161.60 464.96 155.62 472.55 158.54 C 486.35 161.72 500.16 164.89 513.96 168.09 C 524.59 169.28 522.51 185.41 533.19 186.37 C 525.65 188.01 517.90 188.88 510.19 188.92 C 500.58 181.06 488.96 174.15 475.98 179.00 C 460.24 186.59 440.48 192.49 432.81 209.85 C 421.33 232.21 435.65 262.16 459.66 268.37 C 470.44 269.85 482.21 269.79 491.88 264.14 C 491.85 269.55 497.65 273.22 496.00 278.94 C 496.28 280.42 493.95 281.36 493.15 279.96 C 491.04 274.86 486.40 269.27 480.29 270.14 C 477.06 272.24 477.10 276.53 476.03 279.83 C 480.57 281.92 485.21 283.79 489.67 286.07 C 491.76 287.58 493.19 290.80 490.28 292.32 C 483.56 295.13 477.19 290.13 471.03 287.95 C 463.00 284.36 454.46 282.01 445.89 280.17 C 443.37 279.33 442.53 282.57 441.44 284.16 C 440.10 280.61 439.58 276.82 438.60 273.17 C 428.97 272.84 419.33 272.80 409.71 273.24 C 397.81 254.82 391.08 233.45 380.97 214.02 C 380.18 212.20 378.78 210.42 379.15 208.33 C 395.03 199.33 411.65 191.26 426.24 180.23 C 433.62 175.52 441.74 171.85 448.81 166.74 Z" />
</g>
<g id="#1712004e">
<path fill="#171200" opacity="0.31" d=" M 690.68 183.30 C 688.65 173.68 690.24 163.51 690.81 153.78 C 691.11 163.62 691.07 173.46 690.68 183.30 Z" />
</g>
<g id="#755a0080">
<path fill="#755a00" opacity="0.50" d=" M 593.12 168.18 C 607.75 165.09 622.45 162.30 637.04 159.05 C 645.74 157.08 651.45 165.95 659.72 166.27 C 667.94 172.73 677.37 177.37 686.32 182.69 C 696.00 190.14 706.79 196.46 718.25 200.76 C 720.53 202.11 722.63 203.73 724.84 205.22 C 727.29 206.80 730.41 208.91 728.16 212.12 C 717.58 232.52 710.04 254.64 698.01 274.21 C 690.40 274.07 682.78 273.66 675.20 274.13 C 674.10 277.77 673.54 281.57 672.33 285.18 C 672.34 281.92 670.97 277.26 665.98 279.95 C 650.66 281.15 636.93 288.40 622.88 293.85 C 617.49 293.69 613.61 287.64 619.94 284.99 C 623.92 283.16 628.32 282.22 632.01 279.80 C 631.75 275.92 629.40 271.74 625.91 269.97 C 621.50 271.11 617.59 275.00 615.59 279.14 C 608.53 277.98 615.76 268.73 617.29 264.68 C 638.45 275.48 667.98 266.56 676.37 243.34 C 680.89 231.05 680.75 216.17 672.62 205.35 C 663.90 190.89 646.91 186.25 632.67 179.33 C 619.72 174.08 607.09 181.19 597.62 189.55 C 589.67 189.28 581.66 187.79 573.80 186.45 C 585.59 187.28 582.64 170.44 593.12 168.18 Z" />
</g>
<g id="#21190080">
<path fill="#211900" opacity="0.50" d=" M 536.38 181.36 C 538.60 171.63 549.73 165.34 559.35 168.59 C 567.71 170.47 571.27 179.13 573.80 186.45 C 581.66 187.79 589.67 189.28 597.62 189.55 C 607.09 181.19 619.72 174.08 632.67 179.33 C 646.91 186.25 663.90 190.89 672.62 205.35 C 680.75 216.17 680.89 231.05 676.37 243.34 C 667.98 266.56 638.45 275.48 617.29 264.68 C 608.67 259.24 601.22 251.74 598.45 241.67 C 597.57 232.93 587.56 232.71 582.71 227.29 C 577.95 222.89 577.55 214.71 571.00 212.03 C 564.51 208.42 556.89 202.49 549.13 206.15 C 543.40 209.89 534.38 210.60 531.08 217.08 C 529.02 226.75 520.28 231.13 512.33 235.27 C 508.82 246.89 502.10 257.33 491.88 264.14 C 482.21 269.79 470.44 269.85 459.66 268.37 C 435.65 262.16 421.33 232.21 432.81 209.85 C 440.48 192.49 460.24 186.59 475.98 179.00 C 488.96 174.15 500.58 181.06 510.19 188.92 C 517.90 188.88 525.65 188.01 533.19 186.37 C 535.60 186.05 535.51 183.11 536.38 181.36 M 464.39 196.46 C 451.91 198.70 442.44 209.62 439.52 221.62 C 436.21 236.07 444.49 250.09 457.05 256.92 C 475.79 266.14 502.15 251.42 502.00 229.99 C 504.81 209.98 484.00 191.35 464.39 196.46 M 630.39 196.42 C 614.00 199.45 602.73 216.73 606.96 232.98 C 608.48 262.02 655.28 269.30 665.92 241.98 C 678.65 219.78 655.40 189.33 630.39 196.42 Z" />
</g>
<g id="#30250080">
<path fill="#302500" opacity="0.50" d=" M 421.13 172.70 C 423.29 174.88 424.66 177.64 426.24 180.23 C 411.65 191.26 395.03 199.33 379.15 208.33 C 378.78 210.42 380.18 212.20 380.97 214.02 C 391.08 233.45 397.81 254.82 409.71 273.24 C 410.20 274.18 410.69 275.12 411.18 276.07 C 410.94 276.56 410.47 277.55 410.23 278.04 C 320.16 324.95 230.76 373.34 141.03 421.07 C 137.83 424.44 126.21 424.73 129.67 431.28 C 159.07 432.55 189.67 435.36 219.27 430.29 C 281.57 428.22 343.88 425.40 405.99 419.96 C 437.62 422.08 469.38 419.88 501.01 422.04 L 501.04 422.99 C 500.59 423.06 499.68 423.19 499.23 423.25 C 496.45 423.11 493.68 423.05 490.92 423.06 C 498.79 438.89 499.38 456.72 501.01 473.98 C 491.51 479.74 480.02 481.46 470.60 487.52 C 468.90 488.65 465.87 490.16 467.36 492.63 C 471.52 498.45 476.44 503.82 479.91 510.10 C 480.77 512.51 477.61 512.46 476.11 513.12 C 463.96 515.43 451.74 517.38 439.56 519.50 C 436.38 520.40 432.26 520.32 430.10 523.31 C 429.45 536.85 434.20 549.77 436.23 563.00 L 393.00 563.00 C 392.89 542.00 393.19 521.00 392.91 500.02 C 348.25 502.09 303.57 504.37 258.97 507.78 C 206.70 508.94 154.29 510.35 102.03 507.83 C 75.10 504.83 46.70 502.32 23.06 487.89 C 11.06 481.50 3.65 469.26 0.00 456.51 L 0.00 433.49 C 9.46 400.01 43.62 384.23 71.61 368.56 C 169.35 315.59 267.22 262.87 364.98 209.96 C 371.60 205.00 380.56 207.13 387.05 202.10 C 398.03 195.80 409.03 189.53 419.73 182.76 C 421.09 182.07 420.74 180.55 420.78 179.30 C 420.88 177.09 421.02 174.90 421.13 172.70 M 372.33 254.26 C 369.00 255.55 366.60 258.56 366.11 262.10 C 366.03 268.34 376.07 272.14 379.77 266.78 C 384.99 261.88 378.94 252.06 372.33 254.26 M 356.24 262.48 C 346.24 261.85 346.17 279.57 356.11 278.81 C 366.89 279.08 366.90 262.58 356.24 262.48 M 334.31 270.16 C 330.71 272.97 328.25 277.79 330.59 282.37 C 332.47 287.17 342.09 289.65 344.04 284.01 C 350.48 277.56 341.98 267.52 334.31 270.16 Z" />
<path fill="#302500" opacity="0.50" d=" M 724.84 205.22 C 728.18 205.49 731.62 205.05 734.91 205.86 C 753.37 218.07 773.48 227.57 793.00 237.98 C 875.48 282.33 958.33 325.99 1040.92 370.08 C 1062.59 382.14 1086.18 393.26 1101.42 413.63 C 1110.48 424.82 1112.54 439.28 1113.20 453.20 C 1110.23 469.97 1098.52 484.95 1082.99 491.97 C 1054.62 505.04 1022.68 506.70 992.02 508.98 C 932.32 508.57 872.49 510.73 812.97 505.26 C 780.65 503.78 748.36 501.60 716.06 500.02 C 715.86 521.01 716.07 542.00 716.00 563.00 L 670.93 563.00 C 673.27 550.66 676.93 538.52 678.06 525.99 C 678.53 523.70 677.03 521.81 675.03 520.95 C 659.95 516.59 642.99 517.72 628.64 511.34 C 628.79 503.70 639.91 497.90 640.83 490.29 C 632.31 482.16 619.59 480.98 609.73 475.28 C 608.07 471.49 608.32 466.91 607.72 462.80 C 607.78 461.06 607.90 457.57 607.97 455.82 C 608.36 444.45 612.58 433.77 616.13 423.10 C 641.46 424.30 666.91 421.68 692.23 421.20 C 706.75 418.46 721.42 421.44 736.00 422.05 C 767.57 424.17 799.32 424.43 830.77 428.23 C 839.91 430.80 849.46 430.79 858.86 430.26 C 898.06 433.24 937.43 433.65 976.69 432.69 C 980.38 432.39 979.51 427.19 976.39 426.53 C 895.19 382.49 813.40 339.61 732.02 295.96 C 721.61 291.76 712.68 283.32 701.65 281.27 C 698.48 280.18 697.41 277.35 698.01 274.21 C 710.04 254.64 717.58 232.52 728.16 212.12 C 730.41 208.91 727.29 206.80 724.84 205.22 M 732.29 254.27 C 727.97 255.98 724.74 260.56 727.59 265.37 C 730.03 270.67 737.89 270.95 740.67 265.68 C 744.83 260.62 737.88 252.71 732.29 254.27 M 750.31 262.31 C 745.03 262.88 741.94 269.54 744.94 274.05 C 747.75 279.74 757.12 279.27 759.42 273.38 C 762.72 267.38 756.30 260.63 750.31 262.31 M 768.29 271.27 C 764.50 273.13 759.18 277.38 763.14 281.85 C 766.18 287.89 775.96 287.24 777.39 280.35 C 780.06 275.00 773.24 269.80 768.29 271.27 Z" />
</g>
<g id="#5d470080">
<path fill="#5d4700" opacity="0.50" d=" M 464.39 196.46 C 484.00 191.35 504.81 209.98 502.00 229.99 C 502.15 251.42 475.79 266.14 457.05 256.92 C 444.49 250.09 436.21 236.07 439.52 221.62 C 442.44 209.62 451.91 198.70 464.39 196.46 M 476.39 206.43 C 469.85 207.13 466.58 216.38 469.11 221.91 C 472.21 230.90 487.02 231.98 490.94 222.96 C 497.05 214.58 485.49 202.70 476.39 206.43 Z" />
<path fill="#5d4700" opacity="0.50" d=" M 630.39 196.42 C 655.40 189.33 678.65 219.78 665.92 241.98 C 655.28 269.30 608.48 262.02 606.96 232.98 C 602.73 216.73 614.00 199.45 630.39 196.42 M 624.33 206.26 C 614.89 209.15 612.44 223.99 623.00 226.96 C 628.68 231.43 634.19 226.11 638.85 222.75 C 643.03 212.90 634.23 202.96 624.33 206.26 Z" />
</g>
<g id="#806b2680">
<path fill="#806b26" opacity="0.50" d=" M 476.39 206.43 C 485.49 202.70 497.05 214.58 490.94 222.96 C 487.02 231.98 472.21 230.90 469.11 221.91 C 466.58 216.38 469.85 207.13 476.39 206.43 Z" />
<path fill="#806b26" opacity="0.50" d=" M 624.33 206.26 C 634.23 202.96 643.03 212.90 638.85 222.75 C 634.19 226.11 628.68 231.43 623.00 226.96 C 612.44 223.99 614.89 209.15 624.33 206.26 Z" />
</g>
<g id="#241c0074">
<path fill="#241c00" opacity="0.45" d=" M 734.91 205.86 C 736.28 206.15 737.70 206.41 738.95 207.11 C 848.96 266.63 960.08 324.12 1069.74 384.27 C 1089.76 396.01 1108.30 413.23 1114.00 436.50 L 1114.00 452.65 L 1113.20 453.20 C 1112.54 439.28 1110.48 424.82 1101.42 413.63 C 1086.18 393.26 1062.59 382.14 1040.92 370.08 C 958.33 325.99 875.48 282.33 793.00 237.98 C 773.48 227.57 753.37 218.07 734.91 205.86 Z" />
</g>
<g id="#09070080">
<path fill="#090700" opacity="0.50" d=" M 372.33 254.26 C 378.94 252.06 384.99 261.88 379.77 266.78 C 376.07 272.14 366.03 268.34 366.11 262.10 C 366.60 258.56 369.00 255.55 372.33 254.26 Z" />
<path fill="#090700" opacity="0.50" d=" M 732.29 254.27 C 737.88 252.71 744.83 260.62 740.67 265.68 C 737.89 270.95 730.03 270.67 727.59 265.37 C 724.74 260.56 727.97 255.98 732.29 254.27 Z" />
<path fill="#090700" opacity="0.50" d=" M 750.31 262.31 C 756.30 260.63 762.72 267.38 759.42 273.38 C 757.12 279.27 747.75 279.74 744.94 274.05 C 741.94 269.54 745.03 262.88 750.31 262.31 Z" />
<path fill="#090700" opacity="0.50" d=" M 334.31 270.16 C 341.98 267.52 350.48 277.56 344.04 284.01 C 342.09 289.65 332.47 287.17 330.59 282.37 C 328.25 277.79 330.71 272.97 334.31 270.16 Z" />
</g>
<g id="#0a070080">
<path fill="#0a0700" opacity="0.50" d=" M 356.24 262.48 C 366.90 262.58 366.89 279.08 356.11 278.81 C 346.17 279.57 346.24 261.85 356.24 262.48 Z" />
</g>
<g id="#80703b80">
<path fill="#80703b" opacity="0.50" d=" M 480.29 270.14 C 486.40 269.27 491.04 274.86 493.15 279.96 C 491.96 281.97 490.73 283.97 489.67 286.07 C 485.21 283.79 480.57 281.92 476.03 279.83 C 477.10 276.53 477.06 272.24 480.29 270.14 Z" />
</g>
<g id="#80703c80">
<path fill="#80703c" opacity="0.50" d=" M 615.59 279.14 C 617.59 275.00 621.50 271.11 625.91 269.97 C 629.40 271.74 631.75 275.92 632.01 279.80 C 628.32 282.22 623.92 283.16 619.94 284.99 C 615.86 285.95 614.81 283.31 615.59 279.14 Z" />
</g>
<g id="#08060080">
<path fill="#080600" opacity="0.50" d=" M 768.29 271.27 C 773.24 269.80 780.06 275.00 777.39 280.35 C 775.96 287.24 766.18 287.89 763.14 281.85 C 759.18 277.38 764.50 273.13 768.29 271.27 Z" />
</g>
<g id="#3d2f0071">
<path fill="#3d2f00" opacity="0.44" d=" M 409.71 273.24 C 419.33 272.80 428.97 272.84 438.60 273.17 C 439.58 276.82 440.10 280.61 441.44 284.16 C 451.76 313.77 474.38 337.39 501.24 352.80 C 468.14 339.39 446.49 307.18 435.80 274.14 C 427.80 275.01 418.34 271.28 411.18 276.07 C 410.69 275.12 410.20 274.18 409.71 273.24 Z" />
</g>
<g id="#231b0074">
<path fill="#231b00" opacity="0.45" d=" M 141.03 421.07 C 230.76 373.34 320.16 324.95 410.23 278.04 C 409.69 279.14 409.19 280.43 408.00 281.00 C 315.41 330.89 221.94 379.31 129.76 429.84 C 159.59 430.41 189.44 429.52 219.27 430.29 C 189.67 435.36 159.07 432.55 129.67 431.28 C 126.21 424.73 137.83 424.44 141.03 421.07 Z" />
</g>
<g id="#251c0077">
<path fill="#251c00" opacity="0.47" d=" M 701.65 281.27 C 712.68 283.32 721.61 291.76 732.02 295.96 C 813.40 339.61 895.19 382.49 976.39 426.53 C 979.51 427.19 980.38 432.39 976.69 432.69 C 937.43 433.65 898.06 433.24 858.86 430.26 C 849.46 430.79 839.91 430.80 830.77 428.23 C 858.78 427.93 886.70 431.26 914.77 430.21 C 927.84 431.00 941.26 432.10 954.28 430.28 C 961.37 429.49 972.14 430.82 976.71 429.28 C 885.78 378.69 792.60 331.83 701.65 281.27 Z" />
</g>
<g id="#261d0073">
<path fill="#261d00" opacity="0.45" d=" M 605.74 355.72 C 610.59 352.63 615.67 349.87 621.19 348.14 C 617.23 351.40 612.49 353.50 608.26 356.37 C 607.66 378.22 608.06 400.11 608.07 421.98 C 636.06 419.96 664.19 421.30 692.23 421.20 C 666.91 421.68 641.46 424.30 616.13 423.10 C 613.06 422.92 610.07 423.23 607.08 422.75 C 607.02 422.36 606.89 421.59 606.83 421.20 C 606.70 400.74 607.89 380.19 606.24 359.78 C 606.07 358.42 605.91 357.07 605.74 355.72 Z" />
</g>
<g id="#4d3b0075">
<path fill="#4d3b00" opacity="0.46" d=" M 501.24 352.80 C 502.20 353.37 503.17 353.96 504.13 354.56 C 501.41 377.09 503.96 399.98 502.82 422.65 C 502.37 422.73 501.49 422.90 501.04 422.99 L 501.01 422.04 C 501.10 398.96 500.73 375.87 501.24 352.80 Z" />
</g>
<g id="#7b5e0080">
<path fill="#7b5e00" opacity="0.50" d=" M 504.13 354.56 C 511.05 356.26 517.39 359.69 524.26 361.58 C 551.14 368.86 580.06 366.20 605.74 355.72 C 605.91 357.07 606.07 358.42 606.24 359.78 C 606.28 380.24 605.02 400.82 606.83 421.20 C 606.89 421.59 607.02 422.36 607.08 422.75 C 581.89 418.60 555.59 422.21 530.00 420.99 C 521.12 422.04 511.09 418.77 502.82 422.65 C 503.96 399.98 501.41 377.09 504.13 354.56 Z" />
</g>
<g id="#5b46007b">
<path fill="#5b4600" opacity="0.48" d=" M 606.24 359.78 C 607.89 380.19 606.70 400.74 606.83 421.20 C 605.02 400.82 606.28 380.24 606.24 359.78 Z" />
</g>
<g id="#807a6680">
<path fill="#807a66" opacity="0.50" d=" M 502.82 422.65 C 511.09 418.77 521.12 422.04 530.00 420.99 C 555.59 422.21 581.89 418.60 607.08 422.75 C 610.07 423.23 613.06 422.92 616.13 423.10 C 612.58 433.77 608.36 444.45 607.97 455.82 C 606.92 455.50 605.79 455.10 605.48 456.54 C 597.98 470.31 594.22 485.67 588.02 500.02 C 587.32 501.24 587.13 503.44 585.21 502.87 C 577.41 485.37 572.17 466.71 563.15 449.76 C 560.52 443.05 557.95 436.31 556.82 429.15 C 556.75 425.95 551.39 426.08 551.01 429.05 C 548.67 439.50 544.61 449.45 541.80 459.77 C 532.67 473.11 531.20 490.69 522.25 503.72 C 515.75 493.44 513.69 481.17 508.81 470.15 C 506.17 464.40 503.51 458.67 501.24 452.76 C 499.80 442.99 496.38 433.70 493.92 424.20 C 495.24 423.97 497.90 423.49 499.23 423.25 C 499.68 423.19 500.59 423.06 501.04 422.99 C 501.49 422.90 502.37 422.73 502.82 422.65 Z" />
</g>
<g id="#6e550280">
<path fill="#6e5502" opacity="0.50" d=" M 490.92 423.06 C 493.68 423.05 496.45 423.11 499.23 423.25 C 497.90 423.49 495.24 423.97 493.92 424.20 C 496.38 433.70 499.80 442.99 501.24 452.76 C 504.84 489.43 503.28 526.27 505.03 563.00 L 504.03 563.00 C 501.49 533.39 504.68 503.53 501.01 473.98 C 499.38 456.72 498.79 438.89 490.92 423.06 Z" />
</g>
<g id="#74590380">
<path fill="#745903" opacity="0.50" d=" M 551.01 429.05 C 551.39 426.08 556.75 425.95 556.82 429.15 C 557.95 436.31 560.52 443.05 563.15 449.76 C 563.19 456.29 565.98 462.46 565.98 469.01 C 561.35 456.17 560.07 442.06 553.83 429.79 C 535.68 471.70 536.44 518.24 536.00 563.00 L 532.89 563.00 C 535.75 528.55 533.81 493.65 541.80 459.77 C 544.61 449.45 548.67 439.50 551.01 429.05 Z" />
</g>
<g id="#54400080">
<path fill="#544000" opacity="0.50" d=" M 536.00 563.00 C 536.44 518.24 535.68 471.70 553.83 429.79 C 560.07 442.06 561.35 456.17 565.98 469.01 C 572.04 499.98 570.55 531.66 573.11 563.00 L 536.00 563.00 Z" />
</g>
<g id="#0e0a0034">
<path fill="#0e0a00" opacity="0.20" d=" M 914.77 430.21 C 927.93 429.84 941.11 429.88 954.28 430.28 C 941.26 432.10 927.84 431.00 914.77 430.21 Z" />
</g>
<g id="#806e3580">
<path fill="#806e35" opacity="0.50" d=" M 563.15 449.76 C 572.17 466.71 577.41 485.37 585.21 502.87 C 587.13 503.44 587.32 501.24 588.02 500.02 C 594.22 485.67 597.98 470.31 605.48 456.54 C 605.79 455.10 606.92 455.50 607.97 455.82 C 607.90 457.57 607.78 461.06 607.72 462.80 C 606.09 472.38 606.04 482.09 605.81 491.78 C 604.43 505.20 604.88 518.76 605.23 532.24 C 605.21 542.50 604.41 552.75 603.91 563.00 L 575.02 563.00 C 570.85 531.82 575.69 499.31 565.98 469.01 C 565.98 462.46 563.19 456.29 563.15 449.76 Z" />
</g>
<g id="#806e3780">
<path fill="#806e37" opacity="0.50" d=" M 501.24 452.76 C 503.51 458.67 506.17 464.40 508.81 470.15 C 513.69 481.17 515.75 493.44 522.25 503.72 C 531.20 490.69 532.67 473.11 541.80 459.77 C 533.81 493.65 535.75 528.55 532.89 563.00 L 505.03 563.00 C 503.28 526.27 504.84 489.43 501.24 452.76 Z" />
</g>
<g id="#41320080">
<path fill="#413200" opacity="0.50" d=" M 605.81 491.78 C 606.04 482.09 606.09 472.38 607.72 462.80 C 608.32 466.91 608.07 471.49 609.73 475.28 C 619.59 480.98 632.31 482.16 640.83 490.29 C 639.91 497.90 628.79 503.70 628.64 511.34 C 642.99 517.72 659.95 516.59 675.03 520.95 C 677.03 521.81 678.53 523.70 678.06 525.99 C 676.93 538.52 673.27 550.66 670.93 563.00 L 603.91 563.00 C 604.41 552.75 605.21 542.50 605.23 532.24 C 606.55 518.79 606.06 505.26 605.81 491.78 Z" />
<path fill="#413200" opacity="0.50" d=" M 470.60 487.52 C 480.02 481.46 491.51 479.74 501.01 473.98 C 504.68 503.53 501.49 533.39 504.03 563.00 L 436.23 563.00 C 434.20 549.77 429.45 536.85 430.10 523.31 C 432.26 520.32 436.38 520.40 439.56 519.50 C 451.74 517.38 463.96 515.43 476.11 513.12 C 477.61 512.46 480.77 512.51 479.91 510.10 C 476.44 503.82 471.52 498.45 467.36 492.63 C 465.87 490.16 468.90 488.65 470.60 487.52 Z" />
</g>
<g id="#72580280">
<path fill="#725802" opacity="0.50" d=" M 565.98 469.01 C 575.69 499.31 570.85 531.82 575.02 563.00 L 573.11 563.00 C 570.55 531.66 572.04 499.98 565.98 469.01 Z" />
</g>
<g id="#634c007f">
<path fill="#634c00" opacity="0.50" d=" M 605.23 532.24 C 604.88 518.76 604.43 505.20 605.81 491.78 C 606.06 505.26 606.55 518.79 605.23 532.24 Z" />
</g>
</svg>
