<?xml version="1.0" encoding="UTF-8" ?>
<!DOCTYPE svg PUBLIC "-//W3C//DTD SVG 1.1//EN" "http://www.w3.org/Graphics/SVG/1.1/DTD/svg11.dtd">
<svg width="528pt" height="693pt" viewBox="0 0 528 693" version="1.1" xmlns="http://www.w3.org/2000/svg">
<g id="#724f6880">
<path fill="#724f68" opacity="0.50" d=" M 362.52 37.43 C 362.76 37.43 363.24 37.44 363.48 37.45 C 369.06 56.83 375.20 76.05 381.05 95.35 C 401.55 95.98 422.05 94.24 442.54 94.80 C 439.60 97.90 435.81 99.93 432.41 102.44 C 419.30 111.69 406.06 120.75 393.07 130.16 C 399.56 149.50 406.12 168.82 412.70 188.13 C 395.93 176.31 379.79 163.61 362.98 151.86 C 346.19 163.64 330.02 176.30 313.27 188.15 C 319.71 168.68 327.19 149.56 333.47 130.04 C 319.75 120.23 305.79 110.75 291.98 101.06 C 289.18 99.07 286.15 97.36 283.74 94.87 C 304.13 93.96 324.54 95.91 344.93 95.11 C 350.75 75.87 356.91 56.73 362.52 37.43 M 358.01 75.12 C 355.38 83.22 353.07 91.43 350.43 99.53 C 350.07 101.11 348.52 101.96 346.98 101.84 C 333.31 102.15 319.60 101.33 305.94 102.09 C 307.43 103.61 309.03 105.02 310.81 106.20 C 317.60 110.72 324.16 115.57 330.96 120.08 C 334.14 122.59 337.90 124.41 340.69 127.38 C 341.19 131.89 338.17 135.87 337.07 140.12 C 334.17 149.76 329.40 158.92 327.85 168.91 C 333.23 165.75 338.12 161.82 343.16 158.16 C 347.39 154.61 352.41 152.17 356.70 148.70 C 358.45 147.38 360.14 145.90 362.20 145.07 C 363.78 144.51 365.17 145.82 366.45 146.56 C 371.06 149.93 375.56 153.46 380.14 156.87 C 383.43 159.33 387.20 161.04 390.44 163.57 C 393.15 165.56 395.60 168.06 398.89 169.07 C 396.31 158.82 392.29 148.97 389.17 138.87 C 388.20 135.09 385.38 131.40 386.33 127.39 C 388.46 124.43 391.94 122.94 394.80 120.81 C 400.23 116.89 405.80 113.18 411.22 109.24 C 414.28 106.99 417.71 105.13 420.10 102.09 C 405.50 101.29 390.86 102.41 376.25 101.79 C 373.06 92.48 370.51 82.96 367.45 73.61 C 365.98 69.25 365.25 64.62 363.01 60.55 C 360.53 65.10 359.59 70.23 358.01 75.12 Z" />
<path fill="#724f68" opacity="0.50" d=" M 34.49 43.54 C 35.12 41.49 35.92 39.48 36.79 37.51 C 43.40 56.64 48.50 76.27 54.94 95.46 C 68.96 95.44 82.99 95.39 97.01 94.78 C 103.47 94.71 109.94 94.40 116.39 94.83 C 110.87 99.63 104.55 103.38 98.64 107.68 C 88.12 115.22 77.32 122.39 66.92 130.10 C 72.88 149.50 80.14 168.49 86.10 187.88 C 69.51 176.13 53.40 163.72 36.89 151.86 C 24.27 160.30 12.48 169.92 0.00 178.57 L 0.00 171.26 C 8.30 164.75 17.09 158.90 25.41 152.41 C 29.18 149.78 32.60 146.42 37.00 144.89 C 43.35 147.84 48.06 153.41 54.20 156.77 C 60.63 160.23 65.67 165.73 72.20 168.99 C 71.73 165.97 71.05 162.97 70.00 160.10 C 66.89 151.41 64.20 142.58 61.09 133.89 C 60.47 132.01 59.74 130.13 59.53 128.14 C 60.22 126.43 61.98 125.47 63.35 124.34 C 69.42 120.08 75.59 115.96 81.56 111.55 C 85.74 108.38 90.52 105.97 94.17 102.12 C 79.37 101.05 64.48 102.82 49.71 101.51 C 47.00 91.95 43.92 82.51 41.06 73.00 C 39.91 68.83 38.68 64.67 36.78 60.77 C 33.59 66.27 32.74 72.70 30.59 78.62 C 28.02 86.12 26.43 93.98 23.27 101.26 C 15.67 102.81 7.73 101.36 0.00 101.89 L 0.00 95.17 C 5.65 95.14 11.32 95.61 16.96 95.21 C 19.01 95.37 19.16 93.03 19.76 91.65 C 24.61 75.60 29.66 59.60 34.49 43.54 Z" />
<path fill="#724f68" opacity="0.50" d=" M 200.16 37.50 C 201.36 39.64 202.10 41.99 202.74 44.34 C 207.80 61.32 213.18 78.20 218.15 95.20 C 238.63 96.18 259.15 94.15 279.64 94.79 C 277.19 97.72 273.74 99.47 270.72 101.71 C 257.25 111.21 243.69 120.58 230.26 130.13 C 235.14 144.46 240.03 158.78 244.85 173.14 C 246.44 177.83 248.29 182.44 249.32 187.30 C 243.14 183.81 237.77 179.11 231.99 175.03 C 221.30 167.38 211.01 159.15 200.09 151.84 C 183.58 163.73 167.45 176.14 150.85 187.90 C 152.05 182.74 154.13 177.85 155.85 172.86 C 160.77 158.58 166.06 144.43 170.85 130.11 C 158.40 121.19 145.74 112.59 133.20 103.80 C 129.09 100.82 124.66 98.27 120.85 94.89 C 141.23 94.01 161.63 95.74 182.02 95.24 C 188.40 76.10 193.66 56.59 200.16 37.50 M 200.17 60.85 C 196.65 68.36 195.10 76.59 192.32 84.37 C 190.26 90.10 189.11 96.13 186.73 101.75 C 172.13 102.28 157.49 101.25 142.90 102.12 C 150.63 108.50 159.37 113.59 167.43 119.58 C 170.64 122.05 174.45 123.78 177.24 126.77 C 178.49 128.05 177.68 129.90 177.35 131.37 C 174.97 139.14 171.76 146.62 169.33 154.37 C 167.98 159.28 165.34 163.83 164.85 168.97 C 168.65 167.30 171.70 164.45 175.00 162.02 C 181.95 156.52 189.76 152.23 196.65 146.67 C 198.02 145.66 199.80 144.14 201.52 145.39 C 209.41 150.01 216.00 156.54 223.95 161.09 C 227.95 163.38 231.31 166.58 235.15 169.10 C 235.36 168.80 235.78 168.22 235.99 167.93 C 232.60 155.80 227.87 144.09 223.91 132.14 C 223.21 130.04 222.34 127.11 224.86 125.86 C 235.71 118.17 246.70 110.63 257.45 102.80 C 256.36 102.27 255.22 101.94 254.03 101.81 C 240.48 101.63 226.90 102.31 213.36 101.75 C 210.24 91.26 207.02 80.80 203.76 70.36 C 202.70 67.15 202.32 63.58 200.17 60.85 Z" />
<path fill="#724f68" opacity="0.50" d=" M 0.00 117.49 C 4.63 121.04 10.51 123.36 14.02 128.14 C 13.21 133.68 10.75 138.81 9.06 144.11 C 5.88 152.18 3.74 160.63 0.00 168.48 L 0.00 150.55 C 2.57 143.80 5.14 137.04 7.20 130.11 C 4.86 128.24 2.39 126.54 0.00 124.74 L 0.00 117.49 Z" />
<path fill="#724f68" opacity="0.50" d=" M 148.89 211.77 C 149.29 211.64 150.08 211.39 150.48 211.26 C 156.98 234.87 165.01 258.01 171.65 281.58 C 174.35 289.87 176.88 298.22 179.36 306.58 C 180.27 309.43 180.60 312.56 182.20 315.14 C 197.44 316.11 212.74 314.58 228.00 314.66 C 238.34 314.68 248.67 314.36 259.00 314.25 C 270.15 313.69 281.33 313.25 292.49 313.83 C 291.35 314.92 290.21 316.00 288.97 316.97 C 260.48 336.94 231.87 356.73 203.57 376.98 C 209.25 395.18 215.55 413.18 221.78 431.19 C 222.10 433.27 224.27 433.12 225.89 433.33 C 221.68 434.56 217.28 435.57 213.75 438.34 C 211.92 437.07 210.48 435.34 209.93 433.15 C 205.03 418.11 199.93 403.13 194.96 388.11 C 193.29 382.86 191.08 377.75 190.08 372.31 C 206.05 360.44 222.68 349.48 238.83 337.87 C 243.98 334.01 249.86 331.00 254.18 326.13 C 245.78 325.61 237.36 325.92 228.96 326.02 C 213.34 327.53 197.62 326.39 181.96 327.06 C 179.61 327.11 177.22 327.54 174.90 327.01 C 173.33 326.23 172.83 324.38 172.22 322.89 C 165.84 301.40 159.05 280.03 152.62 258.55 C 151.90 256.12 150.99 253.75 149.99 251.42 C 148.83 253.55 147.72 255.74 147.01 258.08 C 140.91 279.38 133.90 300.41 127.63 321.66 C 126.78 323.50 126.36 326.62 123.80 326.63 C 114.55 327.23 105.26 326.67 96.03 325.98 C 86.69 325.81 77.34 326.00 68.00 325.88 C 60.61 325.95 53.20 325.47 45.82 326.13 C 49.44 330.03 54.30 332.36 58.53 335.51 C 72.78 345.63 87.13 355.61 101.57 365.46 C 104.70 367.62 108.08 369.55 110.64 372.41 C 110.73 374.47 110.00 376.46 109.39 378.40 C 101.91 399.06 94.85 419.86 87.40 440.53 C 86.43 442.93 85.50 445.42 85.69 448.06 C 95.45 441.48 104.61 434.06 114.24 427.30 C 126.90 420.13 137.38 409.77 149.81 402.26 C 162.89 410.59 174.68 420.74 187.38 429.62 C 193.23 433.74 199.02 437.95 204.77 442.22 C 206.37 443.34 207.39 445.03 208.29 446.72 C 207.95 447.31 207.25 448.49 206.91 449.07 C 205.43 451.06 203.69 452.82 202.07 454.68 C 197.57 450.21 192.27 446.68 187.23 442.87 C 174.57 434.09 162.52 424.47 149.90 415.64 C 135.92 425.30 122.51 435.76 108.77 445.77 C 97.99 454.05 86.69 461.63 75.88 469.88 C 70.91 473.51 66.24 477.55 61.00 480.80 C 64.62 469.00 69.46 457.61 73.08 445.81 C 77.64 433.55 81.99 421.22 86.13 408.83 C 89.97 398.26 93.95 387.74 97.34 377.03 C 91.49 372.29 85.04 368.41 78.91 364.07 C 58.42 349.50 37.62 335.39 17.03 320.95 C 14.03 318.72 10.43 317.08 8.31 313.87 C 21.19 313.27 34.12 313.71 47.00 314.23 C 70.56 314.44 94.12 314.84 117.68 314.71 C 120.25 305.11 123.76 295.80 126.34 286.20 C 130.93 270.11 136.40 254.28 141.18 238.25 C 143.60 229.37 147.01 220.79 148.89 211.77 Z" />
</g>
<g id="#805c7580">
<path fill="#805c75" opacity="0.50" d=" M 30.59 78.62 C 32.74 72.70 33.59 66.27 36.78 60.77 C 38.68 64.67 39.91 68.83 41.06 73.00 C 43.92 82.51 47.00 91.95 49.71 101.51 C 64.48 102.82 79.37 101.05 94.17 102.12 C 90.52 105.97 85.74 108.38 81.56 111.55 C 75.59 115.96 69.42 120.08 63.35 124.34 C 61.98 125.47 60.22 126.43 59.53 128.14 C 59.74 130.13 60.47 132.01 61.09 133.89 C 64.20 142.58 66.89 151.41 70.00 160.10 C 71.05 162.97 71.73 165.97 72.20 168.99 C 65.67 165.73 60.63 160.23 54.20 156.77 C 48.06 153.41 43.35 147.84 37.00 144.89 C 32.60 146.42 29.18 149.78 25.41 152.41 C 17.09 158.90 8.30 164.75 0.00 171.26 L 0.00 168.48 C 3.74 160.63 5.88 152.18 9.06 144.11 C 10.75 138.81 13.21 133.68 14.02 128.14 C 10.51 123.36 4.63 121.04 0.00 117.49 L 0.00 101.89 C 7.73 101.36 15.67 102.81 23.27 101.26 C 26.43 93.98 28.02 86.12 30.59 78.62 Z" />
<path fill="#805c75" opacity="0.50" d=" M 200.17 60.85 C 202.32 63.58 202.70 67.15 203.76 70.36 C 207.02 80.80 210.24 91.26 213.36 101.75 C 226.90 102.31 240.48 101.63 254.03 101.81 C 255.22 101.94 256.36 102.27 257.45 102.80 C 246.70 110.63 235.71 118.17 224.86 125.86 C 222.34 127.11 223.21 130.04 223.91 132.14 C 227.87 144.09 232.60 155.80 235.99 167.93 C 235.78 168.22 235.36 168.80 235.15 169.10 C 231.31 166.58 227.95 163.38 223.95 161.09 C 216.00 156.54 209.41 150.01 201.52 145.39 C 199.80 144.14 198.02 145.66 196.65 146.67 C 189.76 152.23 181.95 156.52 175.00 162.02 C 171.70 164.45 168.65 167.30 164.85 168.97 C 165.34 163.83 167.98 159.28 169.33 154.37 C 171.76 146.62 174.97 139.14 177.35 131.37 C 177.68 129.90 178.49 128.05 177.24 126.77 C 174.45 123.78 170.64 122.05 167.43 119.58 C 159.37 113.59 150.63 108.50 142.90 102.12 C 157.49 101.25 172.13 102.28 186.73 101.75 C 189.11 96.13 190.26 90.10 192.32 84.37 C 195.10 76.59 196.65 68.36 200.17 60.85 Z" />
<path fill="#805c75" opacity="0.50" d=" M 358.01 75.12 C 359.59 70.23 360.53 65.10 363.01 60.55 C 365.25 64.62 365.98 69.25 367.45 73.61 C 370.51 82.96 373.06 92.48 376.25 101.79 C 390.86 102.41 405.50 101.29 420.10 102.09 C 417.71 105.13 414.28 106.99 411.22 109.24 C 405.80 113.18 400.23 116.89 394.80 120.81 C 391.94 122.94 388.46 124.43 386.33 127.39 C 385.38 131.40 388.20 135.09 389.17 138.87 C 392.29 148.97 396.31 158.82 398.89 169.07 C 395.60 168.06 393.15 165.56 390.44 163.57 C 387.20 161.04 383.43 159.33 380.14 156.87 C 375.56 153.46 371.06 149.93 366.45 146.56 C 365.17 145.82 363.78 144.51 362.20 145.07 C 360.14 145.90 358.45 147.38 356.70 148.70 C 352.41 152.17 347.39 154.61 343.16 158.16 C 338.12 161.82 333.23 165.75 327.85 168.91 C 329.40 158.92 334.17 149.76 337.07 140.12 C 338.17 135.87 341.19 131.89 340.69 127.38 C 337.90 124.41 334.14 122.59 330.96 120.08 C 324.16 115.57 317.60 110.72 310.81 106.20 C 309.03 105.02 307.43 103.61 305.94 102.09 C 319.60 101.33 333.31 102.15 346.98 101.84 C 348.52 101.96 350.07 101.11 350.43 99.53 C 353.07 91.43 355.38 83.22 358.01 75.12 Z" />
<path fill="#805c75" opacity="0.50" d=" M 147.01 258.08 C 147.72 255.74 148.83 253.55 149.99 251.42 C 150.99 253.75 151.90 256.12 152.62 258.55 C 159.05 280.03 165.84 301.40 172.22 322.89 C 172.83 324.38 173.33 326.23 174.90 327.01 C 177.22 327.54 179.61 327.11 181.96 327.06 C 197.62 326.39 213.34 327.53 228.96 326.02 C 237.36 325.92 245.78 325.61 254.18 326.13 C 249.86 331.00 243.98 334.01 238.83 337.87 C 222.68 349.48 206.05 360.44 190.08 372.31 C 191.08 377.75 193.29 382.86 194.96 388.11 C 199.93 403.13 205.03 418.11 209.93 433.15 C 210.48 435.34 211.92 437.07 213.75 438.34 C 211.45 440.79 209.80 443.74 208.29 446.72 C 207.39 445.03 206.37 443.34 204.77 442.22 C 199.02 437.95 193.23 433.74 187.38 429.62 C 174.68 420.74 162.89 410.59 149.81 402.26 C 137.38 409.77 126.90 420.13 114.24 427.30 C 104.61 434.06 95.45 441.48 85.69 448.06 C 85.50 445.42 86.43 442.93 87.40 440.53 C 94.85 419.86 101.91 399.06 109.39 378.40 C 110.00 376.46 110.73 374.47 110.64 372.41 C 108.08 369.55 104.70 367.62 101.57 365.46 C 87.13 355.61 72.78 345.63 58.53 335.51 C 54.30 332.36 49.44 330.03 45.82 326.13 C 53.20 325.47 60.61 325.95 68.00 325.88 C 77.34 326.00 86.69 325.81 96.03 325.98 C 105.26 326.67 114.55 327.23 123.80 326.63 C 126.36 326.62 126.78 323.50 127.63 321.66 C 133.90 300.41 140.91 279.38 147.01 258.08 Z" />
</g>
<g id="#7b587180">
<path fill="#7b5871" opacity="0.50" d=" M 292.14 405.06 C 303.36 400.11 314.63 394.28 327.02 393.15 C 336.53 394.44 345.26 398.67 354.12 402.11 C 357.87 404.87 362.62 405.23 366.72 407.26 C 385.06 416.00 404.63 421.62 423.82 428.12 C 428.03 429.43 432.46 429.87 436.60 431.41 C 445.52 434.71 453.65 439.98 460.63 446.39 C 465.80 452.65 469.86 459.88 472.44 467.59 C 475.95 480.09 474.43 493.21 476.11 505.96 C 477.20 527.64 477.97 549.38 480.76 570.92 C 482.13 591.18 485.75 611.22 489.83 631.09 C 491.81 640.72 495.22 649.94 499.20 658.91 C 503.77 670.66 509.64 681.83 515.45 693.00 L 375.71 693.00 C 372.18 688.34 368.34 683.93 364.57 679.47 C 360.81 675.16 358.36 669.82 354.13 665.90 C 349.88 661.99 347.32 656.73 343.49 652.47 C 338.76 646.43 334.74 639.88 330.49 633.50 C 326.81 628.20 325.33 621.82 323.47 615.74 C 322.21 610.30 320.07 604.92 320.52 599.25 C 320.61 597.31 320.46 595.31 319.40 593.64 C 316.28 588.22 313.21 582.69 308.99 578.03 C 304.15 572.22 298.40 567.26 293.45 561.55 C 286.43 553.59 278.71 546.28 271.23 538.76 C 268.17 535.54 265.54 531.93 262.41 528.77 C 254.30 519.16 245.21 510.41 237.31 500.62 C 233.69 496.27 229.60 492.31 226.31 487.69 C 223.81 484.43 221.94 480.74 219.36 477.55 C 215.02 473.15 208.98 471.24 203.76 468.20 C 200.21 464.85 198.70 458.70 202.07 454.68 C 203.69 452.82 205.43 451.06 206.91 449.07 C 207.71 456.12 209.02 463.65 213.86 469.15 C 217.71 473.53 223.93 474.17 228.49 477.52 C 230.66 479.10 232.66 480.90 234.86 482.45 C 237.72 483.72 241.11 484.61 244.06 483.07 C 251.43 479.55 255.41 471.51 256.74 463.79 C 258.01 457.60 255.05 451.47 251.23 446.78 C 247.77 443.23 243.66 440.39 240.13 436.91 C 237.52 434.55 234.54 432.67 231.56 430.82 C 235.27 427.16 239.59 424.18 244.65 422.73 C 252.75 420.30 259.39 414.57 267.63 412.52 C 275.69 409.67 284.23 408.40 292.14 405.06 M 320.53 435.58 C 317.85 440.53 312.16 442.60 307.01 443.90 C 298.49 445.82 289.75 447.29 280.98 446.76 C 278.37 446.56 275.61 446.10 273.45 444.52 C 271.71 442.78 270.42 440.65 269.01 438.65 C 268.06 441.08 266.85 443.43 264.93 445.24 C 278.12 453.66 288.72 465.30 299.66 476.34 C 305.06 483.22 311.66 488.99 317.70 495.29 C 321.72 499.63 326.71 502.92 330.71 507.29 C 342.63 519.68 355.51 531.07 368.82 541.95 C 370.39 539.62 371.32 536.23 374.39 535.49 C 380.46 532.99 386.85 535.64 393.05 535.91 C 394.58 536.22 395.50 534.87 396.50 534.01 C 392.76 531.47 388.59 529.27 384.02 528.81 C 377.34 527.97 370.81 530.39 364.13 529.77 C 364.22 529.20 364.40 528.06 364.48 527.49 C 368.96 523.87 373.88 520.90 378.63 517.67 C 388.89 510.98 398.88 503.91 409.07 497.13 C 412.43 494.43 416.66 492.59 419.05 488.86 C 409.09 490.78 401.44 499.41 391.03 499.92 C 380.05 501.16 371.42 489.21 373.14 478.97 C 373.18 472.70 377.90 468.13 382.36 464.38 C 385.20 461.82 388.91 460.21 391.11 456.96 C 383.03 456.69 375.58 461.59 367.44 460.46 C 355.67 459.45 344.16 455.81 333.83 450.14 C 327.11 444.39 328.68 434.49 325.89 426.87 C 322.79 428.77 322.34 432.69 320.53 435.58 Z" />
</g>
<g id="#6d4a6380">
<path fill="#6d4a63" opacity="0.50" d=" M 320.53 435.58 C 322.34 432.69 322.79 428.77 325.89 426.87 C 328.68 434.49 327.11 444.39 333.83 450.14 C 344.16 455.81 355.67 459.45 367.44 460.46 C 375.58 461.59 383.03 456.69 391.11 456.96 C 388.91 460.21 385.20 461.82 382.36 464.38 C 377.90 468.13 373.18 472.70 373.14 478.97 C 371.42 489.21 380.05 501.16 391.03 499.92 C 401.44 499.41 409.09 490.78 419.05 488.86 C 416.66 492.59 412.43 494.43 409.07 497.13 C 398.88 503.91 388.89 510.98 378.63 517.67 C 373.88 520.90 368.96 523.87 364.48 527.49 C 364.40 528.06 364.22 529.20 364.13 529.77 C 370.81 530.39 377.34 527.97 384.02 528.81 C 388.59 529.27 392.76 531.47 396.50 534.01 C 395.50 534.87 394.58 536.22 393.05 535.91 C 386.85 535.64 380.46 532.99 374.39 535.49 C 371.32 536.23 370.39 539.62 368.82 541.95 C 355.51 531.07 342.63 519.68 330.71 507.29 C 326.71 502.92 321.72 499.63 317.70 495.29 C 311.66 488.99 305.06 483.22 299.66 476.34 C 288.72 465.30 278.12 453.66 264.93 445.24 C 266.85 443.43 268.06 441.08 269.01 438.65 C 270.42 440.65 271.71 442.78 273.45 444.52 C 275.61 446.10 278.37 446.56 280.98 446.76 C 289.75 447.29 298.49 445.82 307.01 443.90 C 312.16 442.60 317.85 440.53 320.53 435.58 Z" />
</g>
<g id="#806d7a80">
<path fill="#806d7a" opacity="0.50" d=" M 225.89 433.33 C 227.84 432.64 229.75 431.81 231.56 430.82 C 234.54 432.67 237.52 434.55 240.13 436.91 C 240.79 441.10 240.64 445.58 242.42 449.50 C 245.50 452.07 250.17 453.24 251.53 457.45 C 253.52 462.51 250.66 467.61 247.45 471.41 C 244.77 475.25 240.85 477.89 236.76 480.02 C 236.94 480.71 237.12 481.41 237.30 482.12 C 236.69 482.21 235.47 482.37 234.86 482.45 C 232.66 480.90 230.66 479.10 228.49 477.52 C 223.93 474.17 217.71 473.53 213.86 469.15 C 209.02 463.65 207.71 456.12 206.91 449.07 C 207.25 448.49 207.95 447.31 208.29 446.72 C 209.80 443.74 211.45 440.79 213.75 438.34 C 217.28 435.57 221.68 434.56 225.89 433.33 Z" />
</g>
<g id="#75657075">
<path fill="#756570" opacity="0.46" d=" M 240.13 436.91 C 243.66 440.39 247.77 443.23 251.23 446.78 C 255.05 451.47 258.01 457.60 256.74 463.79 C 255.41 471.51 251.43 479.55 244.06 483.07 C 241.11 484.61 237.72 483.72 234.86 482.45 C 235.47 482.37 236.69 482.21 237.30 482.12 C 237.12 481.41 236.94 480.71 236.76 480.02 C 240.85 477.89 244.77 475.25 247.45 471.41 C 250.66 467.61 253.52 462.51 251.53 457.45 C 250.17 453.24 245.50 452.07 242.42 449.50 C 240.64 445.58 240.79 441.10 240.13 436.91 Z" />
</g>
<g id="#704d6680">
<path fill="#704d66" opacity="0.50" d=" M 262.41 528.77 C 265.54 531.93 268.17 535.54 271.23 538.76 C 278.71 546.28 286.43 553.59 293.45 561.55 C 298.40 567.26 304.15 572.22 308.99 578.03 C 313.21 582.69 316.28 588.22 319.40 593.64 C 320.46 595.31 320.61 597.31 320.52 599.25 C 320.10 598.49 319.25 596.98 318.83 596.22 C 315.03 596.82 311.95 599.81 308.01 599.69 C 303.50 599.80 298.60 597.91 296.18 593.94 C 292.23 587.59 288.89 580.59 288.38 573.02 C 283.03 572.12 277.57 573.87 272.29 572.71 C 267.57 570.11 264.87 564.94 264.35 559.69 C 261.92 549.55 262.37 539.10 262.41 528.77 Z" />
</g>
</svg>
