<?xml version="1.0" encoding="UTF-8" ?>
<!DOCTYPE svg PUBLIC "-//W3C//DTD SVG 1.1//EN" "http://www.w3.org/Graphics/SVG/1.1/DTD/svg11.dtd">
<svg width="443pt" height="123pt" viewBox="0 0 443 123" version="1.1" xmlns="http://www.w3.org/2000/svg">
<g id="#0267c7ff">
<path fill="#0267c7" opacity="1.00" d=" M 24.84 5.92 C 31.49 3.99 39.97 5.30 44.20 11.18 C 42.72 14.30 39.88 16.57 37.45 18.95 C 35.03 17.75 32.55 14.80 29.63 16.43 C 27.08 17.44 25.62 20.22 25.99 22.91 C 26.11 29.58 25.71 36.25 25.89 42.92 C 30.53 43.02 35.18 42.85 39.82 43.13 C 39.97 46.57 39.97 50.01 39.83 53.45 C 35.25 53.25 30.68 53.02 26.09 53.21 C 25.89 66.80 26.29 80.39 26.18 93.98 C 22.18 94.00 18.17 94.03 14.17 93.95 C 13.56 80.43 14.20 66.89 13.73 53.37 C 11.02 53.34 8.31 53.46 5.60 53.61 C 5.48 50.28 5.16 46.91 5.60 43.59 C 8.27 42.97 11.04 43.21 13.76 43.09 C 14.10 35.38 13.47 27.65 14.00 19.95 C 14.36 13.64 18.62 7.59 24.84 5.92 Z" />
<path fill="#0267c7" opacity="1.00" d=" M 386.58 6.27 C 390.69 5.67 394.86 6.09 399.00 5.97 C 399.41 20.71 397.85 35.40 398.17 50.13 C 401.78 45.01 407.41 40.51 414.01 40.93 C 420.61 40.18 427.66 43.47 430.70 49.49 C 433.41 54.20 433.20 59.77 433.50 65.01 C 433.43 73.99 433.62 82.97 433.24 91.94 C 429.35 92.00 425.47 91.99 421.59 92.02 C 421.04 84.37 421.52 76.69 421.49 69.03 C 421.81 64.08 421.89 58.52 418.59 54.45 C 412.48 49.25 401.10 52.37 399.01 60.32 C 397.81 64.10 397.93 68.11 398.05 72.02 C 398.43 78.69 398.30 85.38 398.19 92.06 C 394.18 92.14 390.17 92.24 386.16 92.12 C 385.97 64.74 386.38 37.37 386.37 10.00 C 386.37 8.75 386.44 7.51 386.58 6.27 Z" />
<path fill="#0267c7" opacity="1.00" d=" M 150.39 21.34 C 155.34 16.48 162.76 14.30 169.56 15.60 C 172.46 15.95 175.34 16.44 178.16 17.20 C 178.35 21.90 178.30 26.60 178.21 31.29 C 174.23 28.29 169.44 25.77 164.30 26.42 C 159.06 26.97 155.03 33.33 157.81 38.10 C 160.11 42.69 165.19 44.48 169.59 46.38 C 176.42 49.21 182.34 54.45 184.80 61.56 C 186.19 67.08 186.72 73.01 184.51 78.41 C 181.49 86.90 173.86 93.84 164.86 95.27 C 159.42 96.71 153.87 94.97 148.55 93.82 C 146.69 92.99 144.81 92.17 142.96 91.32 C 142.93 86.46 142.94 81.60 142.94 76.74 C 148.31 81.04 154.95 84.91 162.10 83.92 C 171.33 82.84 176.79 69.74 170.33 62.78 C 165.00 56.91 156.53 55.62 150.89 50.12 C 143.03 42.84 142.53 28.81 150.39 21.34 Z" />
<path fill="#0267c7" opacity="1.00" d=" M 277.47 15.95 C 279.51 15.92 281.56 15.93 283.61 15.94 C 285.33 17.15 286.84 18.61 288.06 20.33 C 288.08 22.44 288.08 24.56 288.07 26.67 C 286.58 29.80 283.56 31.35 280.30 32.02 C 277.15 31.12 273.54 29.62 272.82 26.01 C 271.47 21.93 274.09 18.02 277.47 15.95 Z" />
<path fill="#0267c7" opacity="1.00" d=" M 50.01 16.81 C 54.34 16.57 58.69 16.44 63.01 16.76 C 62.85 25.47 61.84 34.14 61.98 42.86 C 66.72 42.87 71.45 42.79 76.19 42.87 C 75.78 46.19 77.19 50.20 75.38 53.09 C 70.92 53.35 66.45 53.19 61.99 53.32 C 62.45 62.39 61.40 71.56 63.13 80.53 C 63.45 81.08 64.10 82.20 64.42 82.76 C 65.65 83.17 66.87 83.60 68.10 84.03 C 70.04 83.21 71.90 82.21 73.83 81.37 C 76.40 83.54 78.20 86.42 80.27 89.03 C 74.38 94.43 65.44 96.33 58.09 92.92 C 53.01 90.39 50.75 84.52 50.36 79.15 C 49.79 70.60 50.20 62.02 50.03 53.46 C 47.69 53.47 45.34 53.50 43.00 53.55 C 43.00 50.00 43.00 46.46 43.00 42.91 C 45.34 42.91 47.68 42.91 50.01 42.91 C 50.03 34.21 50.00 25.51 50.01 16.81 Z" />
<path fill="#0267c7" opacity="1.00" d=" M 301.13 16.97 C 305.33 16.89 309.53 16.82 313.73 16.91 C 312.78 25.55 312.99 34.25 312.97 42.93 C 317.43 42.91 321.89 42.90 326.35 42.86 C 326.34 46.26 326.32 49.65 326.15 53.04 C 321.75 53.07 317.35 53.08 312.96 53.13 C 312.91 60.10 313.06 67.07 312.98 74.05 C 312.97 77.05 313.13 80.55 315.41 82.80 C 317.37 83.81 319.55 83.37 321.59 82.93 C 322.37 82.17 323.17 81.41 323.97 80.65 C 326.26 83.29 328.47 86.00 330.55 88.82 C 324.19 94.45 314.05 96.14 306.81 91.25 C 302.75 88.22 301.37 82.93 301.14 78.10 C 300.85 69.86 301.27 61.60 300.91 53.36 C 298.50 53.29 296.10 53.25 293.70 53.20 C 293.56 49.81 293.55 46.42 293.73 43.04 C 296.14 42.99 298.55 42.95 300.97 42.87 C 301.20 34.24 301.00 25.60 301.13 16.97 Z" />
<path fill="#0267c7" opacity="1.00" d=" M 97.27 50.47 C 100.56 46.04 105.14 42.23 110.80 41.56 C 119.26 39.70 128.41 43.75 133.09 50.95 C 141.12 62.36 139.12 79.51 128.59 88.69 C 122.75 93.43 114.68 94.91 107.48 92.87 C 103.36 91.26 99.88 88.46 97.08 85.08 C 97.73 96.10 96.70 107.18 97.89 118.16 C 93.64 118.76 89.35 118.75 85.07 118.73 C 84.91 93.38 85.05 68.03 85.00 42.68 C 89.19 42.57 93.39 42.44 97.58 42.66 C 97.47 45.26 97.29 47.87 97.27 50.47 M 109.22 52.18 C 103.53 52.88 99.10 57.45 97.70 62.87 C 95.30 70.06 98.29 79.52 105.85 82.20 C 113.58 85.55 123.46 80.40 124.94 72.08 C 125.29 67.39 125.80 62.12 122.87 58.09 C 120.09 53.57 114.34 51.38 109.22 52.18 Z" />
<path fill="#0267c7" opacity="1.00" d=" M 341.19 48.21 C 351.56 38.62 370.83 38.39 379.27 50.70 C 376.56 52.58 374.03 54.80 371.00 56.14 C 369.08 55.34 367.35 54.20 365.57 53.15 C 361.20 51.50 356.00 51.27 351.93 53.83 C 342.83 59.66 342.59 75.39 351.99 81.04 C 358.35 84.43 365.98 82.20 371.39 78.03 C 374.17 79.49 376.46 81.71 378.97 83.59 C 379.32 84.85 378.01 85.57 377.35 86.42 C 366.28 97.81 344.41 95.34 336.52 81.39 C 330.13 71.04 332.08 56.34 341.19 48.21 Z" />
<path fill="#0267c7" opacity="1.00" d=" M 230.41 42.63 C 231.89 42.79 232.13 44.37 232.74 45.44 C 236.97 54.94 241.24 64.42 245.71 73.80 C 249.87 63.74 253.11 53.32 257.21 43.24 C 260.98 43.57 265.13 42.32 268.67 43.77 C 262.70 58.62 256.44 73.38 250.17 88.12 C 249.11 90.66 247.97 93.17 246.55 95.53 C 240.29 84.93 236.45 73.08 230.70 62.21 C 225.24 73.13 220.14 84.25 214.66 95.15 C 212.79 95.47 212.69 93.17 211.95 92.00 C 205.44 75.93 198.08 60.21 191.68 44.09 C 196.06 44.01 200.45 43.71 204.83 44.05 C 205.79 44.97 206.03 46.34 206.54 47.52 C 209.51 56.08 212.68 64.57 215.65 73.14 C 221.16 63.27 224.79 52.43 230.41 42.63 Z" />
<path fill="#0267c7" opacity="1.00" d=" M 274.63 43.04 C 278.52 43.05 282.40 43.03 286.29 43.01 C 286.83 59.76 286.50 76.54 286.41 93.30 C 282.49 93.44 278.55 93.85 274.64 93.45 C 273.68 89.06 274.42 84.50 274.21 80.04 C 274.40 67.71 273.82 55.34 274.63 43.04 Z" />
</g>
</svg>
