<?xml version="1.0" encoding="UTF-8" ?>
<!DOCTYPE svg PUBLIC "-//W3C//DTD SVG 1.1//EN" "http://www.w3.org/Graphics/SVG/1.1/DTD/svg11.dtd">
<svg width="626pt" height="1044pt" viewBox="0 0 626 1044" version="1.1" xmlns="http://www.w3.org/2000/svg">
<g id="#622b417d">
<path fill="#622b41" opacity="0.49" d=" M 55.81 93.87 C 58.56 91.14 62.53 88.75 66.65 90.10 C 67.70 92.14 67.73 94.84 69.71 96.29 C 69.87 97.88 70.19 101.08 70.34 102.68 C 70.13 104.38 69.89 106.07 69.62 107.77 C 65.95 122.80 68.90 138.71 68.05 154.05 C 70.39 163.79 54.63 161.38 55.85 152.81 C 55.28 137.80 57.04 122.74 55.31 107.76 C 55.20 103.12 55.50 98.49 55.81 93.87 Z" />
<path fill="#622b41" opacity="0.49" d=" M 199.19 90.11 C 203.59 89.52 208.57 89.77 211.02 94.01 C 210.55 113.93 211.58 133.91 211.21 153.77 C 210.14 159.54 205.14 162.72 199.98 159.08 C 196.84 142.45 198.84 125.54 197.85 108.79 C 198.42 102.63 196.94 96.00 199.19 90.11 Z" />
<path fill="#622b41" opacity="0.49" d=" M 442.30 90.16 C 447.68 89.41 456.99 90.74 454.24 98.73 C 454.28 102.75 454.80 106.75 454.77 110.78 C 453.30 124.75 454.11 138.83 454.16 152.85 C 454.80 160.72 441.15 163.97 441.83 155.21 C 441.26 135.75 440.69 116.30 440.92 96.83 C 441.39 94.61 441.90 92.39 442.30 90.16 Z" />
</g>
<g id="#612a417d">
<path fill="#612a41" opacity="0.49" d=" M 69.71 96.29 C 68.81 88.19 79.82 93.08 84.85 89.97 C 87.58 92.45 90.32 95.15 91.15 98.89 C 89.52 117.95 89.75 136.79 88.94 155.96 C 86.87 161.35 78.00 161.86 77.70 155.22 C 76.58 140.76 77.20 126.22 75.80 111.76 C 75.90 110.54 75.98 109.33 76.04 108.11 C 75.24 103.07 79.69 91.91 69.71 96.29 Z" />
<path fill="#612a41" opacity="0.49" d=" M 423.63 91.53 C 426.12 91.38 428.62 91.53 431.11 91.84 C 431.59 92.17 432.56 92.84 433.04 93.17 C 434.46 100.68 434.02 108.36 433.86 115.95 C 432.35 129.65 433.31 143.49 432.16 157.23 C 431.50 161.94 425.76 159.95 422.37 159.78 C 421.49 157.41 420.76 154.99 419.90 152.62 C 419.19 137.43 421.66 121.89 419.00 106.87 C 420.85 104.43 417.51 102.53 417.43 100.16 C 418.51 96.75 420.55 93.46 423.63 91.53 Z" />
</g>
<g id="#622b417e">
<path fill="#622b41" opacity="0.49" d=" M 177.00 94.87 C 179.27 88.97 187.44 89.49 191.06 93.93 C 191.33 113.99 189.27 133.99 190.05 154.06 C 192.47 162.19 180.28 162.03 177.91 156.09 C 176.21 141.74 181.73 125.61 175.36 112.30 C 176.04 106.50 176.81 100.71 177.00 94.87 Z" />
</g>
<g id="#612a407d">
<path fill="#612a40" opacity="0.49" d=" M 297.83 94.85 C 300.58 89.07 307.16 89.76 311.36 93.58 C 315.62 104.95 310.68 117.29 312.75 129.04 C 311.31 138.55 317.88 153.63 307.58 159.71 C 300.68 163.25 300.01 156.82 298.24 152.49 C 297.35 140.33 299.94 128.23 298.00 116.11 C 298.00 109.02 298.09 101.93 297.83 94.85 Z" />
<path fill="#612a40" opacity="0.49" d=" M 318.27 95.38 C 320.95 90.52 329.46 87.64 332.28 93.77 C 333.55 113.40 332.89 133.35 333.30 152.88 C 331.20 157.34 328.36 162.52 322.26 159.86 C 314.10 146.37 321.45 130.60 317.99 116.12 C 317.96 109.21 317.79 102.28 318.27 95.38 Z" />
</g>
<g id="#2e0e1b43">
<path fill="#2e0e1b" opacity="0.26" d=" M 423.63 91.53 C 425.80 89.24 428.97 89.85 431.11 91.84 C 428.62 91.53 426.12 91.38 423.63 91.53 Z" />
</g>
<g id="#2503104f">
<path fill="#250310" opacity="0.31" d=" M 433.04 93.17 C 436.53 95.22 439.53 91.90 442.30 90.16 C 441.90 92.39 441.39 94.61 440.92 96.83 C 437.10 102.81 445.75 119.02 433.86 115.95 C 434.02 108.36 434.46 100.68 433.04 93.17 Z" />
</g>
<g id="#19060e24">
<path fill="#19060e" opacity="0.14" d=" M 53.79 114.90 C 54.21 107.87 53.83 100.71 55.81 93.87 C 55.50 98.49 55.20 103.12 55.31 107.76 C 54.79 110.45 56.18 114.37 54.21 116.25 C 36.14 115.77 18.07 116.08 0.00 116.00 L 0.00 115.00 C 17.93 114.91 35.86 115.19 53.79 114.90 Z" />
</g>
<g id="#5c19347b">
<path fill="#5c1934" opacity="0.48" d=" M 191.06 93.93 C 193.97 100.49 190.85 108.90 192.06 116.00 C 198.99 119.34 196.55 111.79 197.85 108.79 C 198.84 125.54 196.84 142.45 199.98 159.08 C 199.26 153.94 194.13 147.37 190.05 154.06 C 189.27 133.99 191.33 113.99 191.06 93.93 Z" />
</g>
<g id="#5e14327e">
<path fill="#5e1432" opacity="0.49" d=" M 211.02 94.01 C 212.99 100.64 211.47 108.05 211.92 114.97 C 212.15 115.28 212.60 115.91 212.83 116.23 C 240.68 117.44 269.26 117.61 297.19 116.31 L 298.00 116.11 C 299.94 128.23 297.35 140.33 298.24 152.49 C 293.50 151.23 294.69 158.47 294.03 160.90 C 295.59 167.59 303.97 172.40 309.97 167.93 C 316.94 162.00 323.82 172.75 331.00 168.99 C 336.55 167.06 340.79 154.16 333.30 152.88 C 332.89 133.35 333.55 113.40 332.28 93.77 C 336.74 99.66 332.52 108.20 333.93 114.97 C 334.14 115.32 334.57 116.01 334.78 116.35 C 362.15 117.32 390.02 117.65 417.26 116.27 C 418.93 115.59 416.74 113.15 416.81 111.77 C 417.45 110.10 418.19 108.47 419.00 106.87 C 421.66 121.89 419.19 137.43 419.90 152.62 C 413.10 155.28 415.32 166.58 421.87 168.22 C 427.22 170.03 432.11 166.81 437.01 165.26 C 442.33 167.34 448.58 171.43 453.97 167.00 C 458.83 164.40 460.66 153.60 454.16 152.85 C 454.11 138.83 453.30 124.75 454.77 110.78 C 455.30 112.62 453.83 116.44 456.80 116.25 C 464.77 117.68 472.90 116.56 480.94 117.12 C 481.09 156.41 480.97 195.69 480.98 234.98 C 333.65 235.03 186.33 234.98 39.00 235.00 C 37.49 235.09 36.07 235.67 34.65 236.12 C 23.10 235.94 11.55 235.99 0.00 236.00 L 0.00 206.00 C 117.60 205.90 235.21 206.20 352.79 205.85 C 355.26 201.86 359.80 191.06 352.62 189.35 C 346.22 187.66 339.54 188.05 333.00 187.95 C 222.00 188.06 111.00 187.97 0.00 188.00 L 0.00 117.00 C 17.99 116.24 36.46 118.37 54.21 116.25 C 56.18 114.37 54.79 110.45 55.31 107.76 C 57.04 122.74 55.28 137.80 55.85 152.81 C 49.22 153.49 51.20 164.44 55.74 167.31 C 62.63 169.53 70.38 166.19 77.53 167.64 C 81.70 168.05 86.38 169.83 90.09 167.06 C 94.50 163.73 94.30 157.80 93.94 152.80 C 92.06 153.48 90.51 154.77 88.94 155.96 C 89.75 136.79 89.52 117.95 91.15 98.89 C 92.31 104.18 91.74 109.60 91.97 114.96 C 92.18 115.28 92.61 115.91 92.83 116.23 C 119.37 117.59 146.55 117.41 173.20 116.31 C 173.38 115.97 173.74 115.28 173.93 114.94 C 173.78 108.06 175.65 101.52 177.00 94.87 C 176.81 100.71 176.04 106.50 175.36 112.30 C 181.73 125.61 176.21 141.74 177.91 156.09 C 173.94 148.56 171.90 159.09 174.11 162.86 C 177.63 171.57 187.21 167.71 194.00 166.42 C 199.67 167.06 205.30 170.30 210.97 167.93 C 215.32 165.53 217.98 154.51 211.21 153.77 C 211.58 133.91 210.55 113.93 211.02 94.01 Z" />
</g>
<g id="#54112c7d">
<path fill="#54112c" opacity="0.49" d=" M 311.36 93.58 C 320.10 97.38 307.11 116.28 317.99 116.12 C 321.45 130.60 314.10 146.37 322.26 159.86 C 328.36 162.52 331.20 157.34 333.30 152.88 C 340.79 154.16 336.55 167.06 331.00 168.99 C 323.82 172.75 316.94 162.00 309.97 167.93 C 303.97 172.40 295.59 167.59 294.03 160.90 C 294.69 158.47 293.50 151.23 298.24 152.49 C 300.01 156.82 300.68 163.25 307.58 159.71 C 317.88 153.63 311.31 138.55 312.75 129.04 C 310.68 117.29 315.62 104.95 311.36 93.58 Z" />
</g>
<g id="#15050c1d">
<path fill="#15050c" opacity="0.11" d=" M 296.88 114.91 C 297.32 108.25 296.34 101.37 297.83 94.85 C 298.09 101.93 298.00 109.02 298.00 116.11 L 297.19 116.31 C 269.07 115.79 240.94 115.86 212.83 116.23 C 212.60 115.91 212.15 115.28 211.92 114.97 C 240.24 114.98 268.56 115.12 296.88 114.91 Z" />
</g>
<g id="#0a030611">
<path fill="#0a0306" opacity="0.07" d=" M 69.71 96.29 C 79.69 91.91 75.24 103.07 76.04 108.11 C 72.05 110.81 72.08 105.03 70.34 102.68 C 70.19 101.08 69.87 97.88 69.71 96.29 Z" />
</g>
<g id="#5e19357d">
<path fill="#5e1935" opacity="0.49" d=" M 433.86 115.95 C 445.75 119.02 437.10 102.81 440.92 96.83 C 440.69 116.30 441.26 135.75 441.83 155.21 C 440.44 148.35 431.85 150.93 432.16 157.23 C 433.31 143.49 432.35 129.65 433.86 115.95 Z" />
</g>
<g id="#1e08112c">
<path fill="#1e0811" opacity="0.17" d=" M 454.24 98.73 C 456.88 103.72 455.85 109.47 456.12 114.88 C 464.14 115.43 472.24 114.35 480.23 115.70 C 472.41 115.88 464.61 116.10 456.80 116.25 C 453.83 116.44 455.30 112.62 454.77 110.78 C 454.80 106.75 454.28 102.75 454.24 98.73 Z" />
</g>
<g id="#370a1c6e">
<path fill="#370a1c" opacity="0.43" d=" M 70.34 102.68 C 72.08 105.03 72.05 110.81 76.04 108.11 C 75.98 109.33 75.90 110.54 75.80 111.76 C 76.06 119.88 66.42 113.87 69.62 107.77 C 69.89 106.07 70.13 104.38 70.34 102.68 Z" />
</g>
<g id="#5f19357e">
<path fill="#5f1935" opacity="0.49" d=" M 68.05 154.05 C 68.90 138.71 65.95 122.80 69.62 107.77 C 66.42 113.87 76.06 119.88 75.80 111.76 C 77.20 126.22 76.58 140.76 77.70 155.22 C 75.87 151.01 70.50 149.47 68.05 154.05 Z" />
</g>
<g id="#15040b1e">
<path fill="#15040b" opacity="0.12" d=" M 410.97 114.96 C 415.39 117.67 415.72 113.98 416.81 111.77 C 416.74 113.15 418.93 115.59 417.26 116.27 C 389.77 115.88 362.26 115.72 334.78 116.35 C 334.57 116.01 334.14 115.32 333.93 114.97 C 359.61 114.99 385.29 115.07 410.97 114.96 Z" />
</g>
<g id="#15040b1d">
<path fill="#15040b" opacity="0.11" d=" M 91.97 114.96 C 119.28 115.02 146.61 115.05 173.93 114.94 C 173.74 115.28 173.38 115.97 173.20 116.31 C 146.42 115.80 119.61 115.84 92.83 116.23 C 92.61 115.91 92.18 115.28 91.97 114.96 Z" />
</g>
<g id="#49102762">
<path fill="#491027" opacity="0.38" d=" M 0.00 116.00 C 18.07 116.08 36.14 115.77 54.21 116.25 C 36.46 118.37 17.99 116.24 0.00 117.00 L 0.00 116.00 Z" />
<path fill="#491027" opacity="0.38" d=" M 92.83 116.23 C 119.61 115.84 146.42 115.80 173.20 116.31 C 146.55 117.41 119.37 117.59 92.83 116.23 Z" />
<path fill="#491027" opacity="0.38" d=" M 212.83 116.23 C 240.94 115.86 269.07 115.79 297.19 116.31 C 269.26 117.61 240.68 117.44 212.83 116.23 Z" />
<path fill="#491027" opacity="0.38" d=" M 334.78 116.35 C 362.26 115.72 389.77 115.88 417.26 116.27 C 390.02 117.65 362.15 117.32 334.78 116.35 Z" />
</g>
<g id="#46112761">
<path fill="#461127" opacity="0.38" d=" M 456.80 116.25 C 464.61 116.10 472.41 115.88 480.23 115.70 C 480.74 115.96 481.76 116.49 482.27 116.75 C 481.69 158.16 482.09 199.58 482.06 240.99 C 481.82 241.28 481.34 241.84 481.10 242.13 C 481.08 240.75 481.05 239.37 481.01 238.00 C 481.00 237.49 480.99 236.47 480.98 235.96 L 480.98 234.98 C 480.97 195.69 481.09 156.41 480.94 117.12 C 472.90 116.56 464.77 117.68 456.80 116.25 Z" />
</g>
<g id="#14050b1d">
<path fill="#14050b" opacity="0.11" d=" M 482.27 116.75 C 483.48 157.83 483.68 199.98 482.06 240.99 C 482.09 199.58 481.69 158.16 482.27 116.75 Z" />
</g>
<g id="#500e297e">
<path fill="#500e29" opacity="0.49" d=" M 68.05 154.05 C 70.50 149.47 75.87 151.01 77.70 155.22 C 78.00 161.86 86.87 161.35 88.94 155.96 C 90.51 154.77 92.06 153.48 93.94 152.80 C 94.30 157.80 94.50 163.73 90.09 167.06 C 86.38 169.83 81.70 168.05 77.53 167.64 C 70.38 166.19 62.63 169.53 55.74 167.31 C 51.20 164.44 49.22 153.49 55.85 152.81 C 54.63 161.38 70.39 163.79 68.05 154.05 Z" />
</g>
<g id="#4f0e287e">
<path fill="#4f0e28" opacity="0.49" d=" M 190.05 154.06 C 194.13 147.37 199.26 153.94 199.98 159.08 C 205.14 162.72 210.14 159.54 211.21 153.77 C 217.98 154.51 215.32 165.53 210.97 167.93 C 205.30 170.30 199.67 167.06 194.00 166.42 C 187.21 167.71 177.63 171.57 174.11 162.86 C 171.90 159.09 173.94 148.56 177.91 156.09 C 180.28 162.03 192.47 162.19 190.05 154.06 Z" />
</g>
<g id="#4f0d287e">
<path fill="#4f0d28" opacity="0.49" d=" M 432.16 157.23 C 431.85 150.93 440.44 148.35 441.83 155.21 C 441.15 163.97 454.80 160.72 454.16 152.85 C 460.66 153.60 458.83 164.40 453.97 167.00 C 448.58 171.43 442.33 167.34 437.01 165.26 C 432.11 166.81 427.22 170.03 421.87 168.22 C 415.32 166.58 413.10 155.28 419.90 152.62 C 420.76 154.99 421.49 157.41 422.37 159.78 C 425.76 159.95 431.50 161.94 432.16 157.23 Z" />
</g>
<g id="#570f2c7e">
<path fill="#570f2c" opacity="0.49" d=" M 0.00 188.00 C 111.00 187.97 222.00 188.06 333.00 187.95 C 339.54 188.05 346.22 187.66 352.62 189.35 C 359.80 191.06 355.26 201.86 352.79 205.85 C 235.21 206.20 117.60 205.90 0.00 206.00 L 0.00 188.00 Z" />
</g>
<g id="#5e1c377e">
<path fill="#5e1c37" opacity="0.49" d=" M 34.65 236.12 C 36.07 235.67 37.49 235.09 39.00 235.00 C 186.33 234.98 333.65 235.03 480.98 234.98 L 480.98 235.96 C 397.36 238.25 313.66 236.40 230.00 237.00 C 164.89 236.42 99.68 238.16 34.65 236.12 Z" />
</g>
<g id="#5a293d7e">
<path fill="#5a293d" opacity="0.49" d=" M 0.00 236.00 C 11.55 235.99 23.10 235.94 34.65 236.12 C 99.68 238.16 164.89 236.42 230.00 237.00 C 313.66 236.40 397.36 238.25 480.98 235.96 C 480.99 236.47 481.00 237.49 481.01 238.00 C 320.72 239.82 160.34 238.70 0.00 239.00 L 0.00 236.00 Z" />
</g>
<g id="#5935447e">
<path fill="#593544" opacity="0.49" d=" M 0.00 239.00 C 160.34 238.70 320.72 239.82 481.01 238.00 C 481.05 239.37 481.08 240.75 481.10 242.13 C 480.86 242.40 480.38 242.96 480.14 243.23 C 479.79 243.65 479.08 244.47 478.73 244.89 C 472.80 245.01 466.87 244.78 460.97 245.08 C 460.80 249.86 463.98 256.77 470.04 254.96 C 476.26 254.73 475.20 263.06 476.42 267.45 C 482.05 328.37 477.46 389.76 479.10 450.85 C 479.58 451.72 480.14 452.55 480.79 453.33 C 480.80 454.08 480.83 455.57 480.84 456.31 C 479.48 454.89 478.01 453.50 477.28 451.64 C 475.94 392.29 478.69 332.83 475.64 273.52 C 474.13 267.49 476.54 254.79 466.34 256.56 C 310.94 254.55 155.38 257.77 0.00 254.96 L 0.00 239.00 Z" />
</g>
<g id="#4224305f">
<path fill="#422430" opacity="0.37" d=" M 478.73 244.89 C 479.08 244.47 479.79 243.65 480.14 243.23 C 480.10 253.47 483.23 263.33 482.36 273.70 C 481.66 397.86 481.95 522.05 482.21 646.22 C 481.85 651.39 482.02 656.55 482.12 661.75 C 481.33 661.27 480.57 660.76 479.85 660.21 C 482.46 593.07 480.38 525.58 480.90 458.31 C 480.88 457.81 480.86 456.81 480.84 456.31 C 480.83 455.57 480.80 454.08 480.79 453.33 C 481.26 389.56 480.90 325.77 480.98 261.99 C 479.41 256.43 478.84 250.67 478.73 244.89 Z" />
</g>
<g id="#522c3c7f">
<path fill="#522c3c" opacity="0.50" d=" M 460.97 245.08 C 466.87 244.78 472.80 245.01 478.73 244.89 C 478.84 250.67 479.41 256.43 480.98 261.99 C 480.90 325.77 481.26 389.56 480.79 453.33 C 480.14 452.55 479.58 451.72 479.10 450.85 C 477.46 389.76 482.05 328.37 476.42 267.45 C 475.20 263.06 476.26 254.73 470.04 254.96 C 463.98 256.77 460.80 249.86 460.97 245.08 Z" />
</g>
<g id="#603b4a7e">
<path fill="#603b4a" opacity="0.49" d=" M 0.00 254.96 C 155.38 257.77 310.94 254.55 466.34 256.56 C 476.54 254.79 474.13 267.49 475.64 273.52 C 478.69 332.83 475.94 392.29 477.28 451.64 C 478.01 453.50 479.48 454.89 480.84 456.31 C 480.86 456.81 480.88 457.81 480.90 458.31 C 467.16 448.81 478.07 427.25 473.02 414.82 C 472.15 428.20 474.80 442.39 471.31 455.30 C 459.35 456.86 446.39 455.77 434.07 455.95 C 430.99 456.41 432.74 448.24 430.69 452.71 C 429.00 458.70 422.83 456.45 418.16 456.06 C 415.34 461.88 420.73 471.93 413.62 474.69 C 398.42 475.40 383.19 474.85 367.98 475.04 C 363.91 475.61 363.28 470.43 360.12 468.94 C 351.21 475.68 338.73 472.55 328.31 474.33 C 310.18 475.42 291.57 476.68 274.02 471.11 C 245.75 476.19 216.63 476.62 188.23 474.12 C 183.78 477.79 185.50 488.40 177.00 486.00 C 151.89 484.80 126.12 488.22 101.31 484.72 C 97.51 476.37 100.13 465.54 97.29 456.66 C 90.69 455.13 83.12 456.17 76.18 456.11 C 73.60 461.92 77.29 472.25 69.62 474.69 C 55.79 475.26 41.92 475.13 28.10 474.89 C 19.80 473.29 23.41 462.24 21.43 456.54 C 18.34 455.84 13.07 454.61 11.31 458.38 C 10.03 466.79 11.19 475.32 9.76 483.73 C 7.76 487.21 3.36 485.67 0.00 486.10 L 0.00 254.96 M 322.25 258.12 C 321.98 258.40 321.43 258.95 321.16 259.23 C 320.73 283.47 321.14 307.75 320.99 332.01 C 318.50 336.09 322.27 338.11 325.08 338.88 C 338.61 340.67 352.67 338.39 365.77 342.52 C 378.59 334.51 394.17 336.95 408.34 338.66 C 412.17 339.18 412.78 344.94 416.91 344.02 C 419.98 342.68 421.25 338.29 425.58 339.42 C 441.03 338.61 457.17 338.24 472.31 340.73 C 475.05 352.50 470.87 368.42 473.95 378.96 C 473.01 338.86 479.23 297.38 470.80 258.14 C 421.30 257.88 371.76 257.94 322.25 258.12 M 251.40 338.45 C 248.83 339.60 244.92 340.04 243.99 343.06 C 247.30 358.70 246.34 374.86 244.61 390.66 C 242.45 397.94 232.36 395.23 227.00 396.03 C 214.85 395.08 200.17 399.42 190.60 389.45 C 178.75 386.17 164.94 386.87 155.36 395.36 C 140.14 397.44 123.73 394.54 108.68 396.68 C 108.39 404.09 105.51 414.63 110.69 421.30 C 125.65 425.38 142.61 419.56 157.26 424.76 C 161.28 437.67 176.29 430.14 186.01 432.01 C 194.31 435.56 190.57 424.32 196.06 423.12 C 211.20 421.09 226.55 421.86 241.72 423.23 C 244.56 425.25 244.92 428.94 246.24 431.91 C 249.45 431.83 253.24 431.96 255.92 429.84 C 256.93 420.73 254.34 410.96 257.22 402.19 C 271.29 400.48 285.63 402.24 299.66 403.51 C 304.35 402.48 314.45 406.78 312.90 398.20 C 304.32 395.46 294.86 397.77 286.00 396.99 C 283.17 398.51 278.76 396.23 278.99 393.01 C 279.07 377.77 278.77 362.52 279.18 347.29 C 285.90 340.69 297.84 348.17 305.95 343.81 C 306.32 342.13 304.83 341.19 303.73 340.26 C 286.43 337.96 268.85 337.43 251.40 338.45 M 369.32 344.26 C 366.73 345.02 365.96 347.84 365.09 350.08 C 364.91 364.98 364.91 379.88 365.10 394.79 C 367.50 396.87 370.75 397.83 373.98 397.03 C 387.23 396.90 400.49 397.22 413.74 396.85 C 416.18 394.69 417.90 391.43 416.97 388.00 C 416.92 374.78 417.33 361.54 416.72 348.34 C 415.87 344.90 411.68 345.02 408.88 344.22 C 395.70 343.84 382.49 343.78 369.32 344.26 M 25.20 346.08 C 19.76 358.07 24.17 372.79 23.58 385.59 C 24.32 389.34 22.67 395.88 27.99 396.00 C 42.85 395.23 58.25 398.04 72.72 393.71 C 76.44 384.14 72.66 373.03 74.02 363.00 C 72.61 357.78 76.80 349.95 71.75 346.20 C 56.26 345.72 40.71 346.04 25.20 346.08 M 110.29 346.17 C 108.46 347.91 106.04 349.59 108.01 352.99 C 108.59 366.07 105.99 380.64 111.29 392.73 C 123.00 395.76 135.89 393.19 148.00 393.97 C 154.43 395.68 159.19 389.23 158.59 383.42 C 161.32 373.39 158.43 363.16 158.96 353.00 C 160.49 350.21 158.23 345.73 155.02 345.99 C 140.11 346.06 125.19 345.77 110.29 346.17 M 197.33 346.28 C 196.18 346.78 195.06 347.36 194.10 348.17 C 194.11 361.77 193.93 375.37 192.97 388.94 C 202.54 398.08 216.38 392.56 228.01 394.03 C 232.34 393.15 240.10 395.66 242.40 390.36 C 245.38 376.12 244.58 360.82 242.27 346.70 C 227.87 345.19 212.20 346.10 197.33 346.28 M 283.27 346.16 C 278.76 349.84 280.56 356.98 279.96 362.00 C 281.01 372.94 277.73 386.18 283.23 395.82 C 298.10 396.01 313.76 396.20 328.28 393.28 C 330.41 382.03 330.50 369.62 329.19 357.98 C 328.11 354.37 331.04 347.32 325.94 346.08 C 311.72 345.88 297.48 345.89 283.27 346.16 M 27.39 423.45 C 26.31 423.65 25.25 423.90 24.20 424.21 C 21.55 439.04 23.49 454.18 24.89 469.03 C 26.03 475.20 34.83 472.38 39.00 473.03 C 49.49 471.68 61.47 475.56 71.25 471.27 C 75.07 458.51 73.90 444.34 73.99 430.99 C 76.07 426.77 71.21 421.95 67.00 424.04 C 53.79 424.20 40.59 421.84 27.39 423.45 M 112.33 424.27 C 108.74 425.08 108.86 429.82 108.38 432.57 C 107.31 442.32 108.24 452.20 108.06 462.00 C 108.92 465.81 107.38 471.32 111.28 473.84 C 124.52 474.21 137.76 473.94 151.01 473.99 C 154.24 475.80 156.13 473.67 157.75 471.73 C 160.19 460.26 158.02 448.44 159.75 436.90 C 159.76 432.53 158.39 426.83 153.92 425.14 C 140.10 423.91 126.25 424.85 112.33 424.27 M 205.41 424.59 C 201.53 425.64 195.47 423.07 194.28 428.27 C 193.90 441.89 193.48 455.73 194.58 469.35 C 194.85 474.23 201.44 474.76 204.99 473.96 C 217.87 471.89 230.96 473.55 243.94 472.96 C 242.17 457.57 247.82 440.20 241.27 425.77 C 229.97 422.97 217.15 423.86 205.41 424.59 M 281.23 424.12 C 278.88 439.24 279.50 455.39 281.19 470.72 C 292.73 475.82 305.84 473.18 317.98 473.06 C 321.53 473.41 326.03 474.99 328.84 471.81 C 329.75 456.19 331.07 439.96 329.32 424.68 C 313.83 422.78 297.10 424.55 281.23 424.12 M 367.25 424.12 C 364.17 438.97 366.35 456.98 366.67 472.33 C 379.92 474.02 394.34 472.50 408.00 472.99 C 413.09 475.20 416.99 469.41 415.03 465.02 C 414.54 451.64 415.93 437.67 414.32 424.67 C 399.15 422.92 382.81 424.43 367.25 424.12 Z" />
<path fill="#603b4a" opacity="0.49" d=" M 169.26 558.19 C 177.59 556.76 186.29 557.42 194.19 554.03 C 193.84 554.49 193.14 555.43 192.79 555.89 C 179.37 565.26 166.31 579.40 167.98 596.97 C 168.81 614.58 185.92 623.71 197.71 634.15 C 202.08 641.18 206.63 648.09 211.24 654.97 C 211.04 664.27 192.90 652.79 195.80 664.96 C 194.74 678.36 194.35 692.00 195.48 705.40 C 195.66 712.87 205.53 708.93 210.07 709.10 C 216.37 708.42 224.94 712.19 222.86 719.97 C 221.77 734.85 215.23 753.33 226.00 766.07 C 236.84 778.51 248.66 790.06 259.16 802.81 C 260.09 803.95 259.84 805.58 260.18 806.96 C 254.36 807.12 248.54 807.14 242.72 807.34 C 215.90 806.76 189.04 806.84 162.22 807.22 C 108.15 806.72 54.07 807.14 0.00 807.00 L 0.00 575.85 C 19.58 578.14 39.36 579.87 59.05 578.25 C 74.04 578.61 89.97 572.20 104.20 579.70 C 124.67 581.22 145.17 577.92 165.46 575.43 C 166.63 569.72 165.79 563.22 169.26 558.19 M 141.41 580.55 C 130.80 582.73 119.97 581.77 109.23 582.13 C 106.40 597.32 107.86 614.04 109.74 629.28 C 120.87 633.83 134.30 630.72 146.37 631.54 C 151.01 630.50 160.75 632.88 158.59 624.42 C 160.60 611.84 160.29 599.03 159.67 586.36 C 157.69 578.52 147.48 579.22 141.41 580.55 M 26.31 581.33 C 25.78 581.55 24.71 581.98 24.18 582.19 C 21.91 598.02 24.04 613.83 24.19 629.70 C 25.88 631.63 27.65 633.83 30.99 631.92 C 44.16 630.32 57.45 631.48 70.66 630.72 C 73.67 630.09 73.69 626.48 74.02 624.02 C 73.56 610.34 74.94 595.94 73.31 582.71 C 58.11 579.33 41.88 581.56 26.31 581.33 M 25.25 659.12 C 21.65 674.44 23.61 692.54 24.70 708.31 C 36.89 711.83 50.35 709.29 63.00 709.93 C 66.71 709.50 74.90 710.03 74.04 704.03 C 72.75 689.78 76.47 674.44 72.27 660.73 C 57.35 656.97 40.75 659.80 25.25 659.12 M 117.41 659.56 C 114.56 660.29 109.83 658.37 109.35 662.30 C 107.05 676.64 107.73 691.27 109.40 705.65 C 110.09 709.63 115.46 708.98 118.29 709.73 C 131.08 710.38 143.96 710.29 156.69 708.72 C 158.65 707.24 160.80 704.97 158.99 702.00 C 160.04 688.32 160.78 673.87 157.27 660.75 C 144.68 656.74 130.45 659.62 117.41 659.56 Z" />
</g>
<g id="#633d4d7e">
<path fill="#633d4d" opacity="0.49" d=" M 322.25 258.12 C 371.76 257.94 421.30 257.88 470.80 258.14 C 479.23 297.38 473.01 338.86 473.95 378.96 C 470.87 368.42 475.05 352.50 472.31 340.73 C 457.17 338.24 441.03 338.61 425.58 339.42 C 421.25 338.29 419.98 342.68 416.91 344.02 C 412.78 344.94 412.17 339.18 408.34 338.66 C 394.17 336.95 378.59 334.51 365.77 342.52 C 352.67 338.39 338.61 340.67 325.08 338.88 C 322.27 338.11 318.50 336.09 320.99 332.01 C 321.14 307.75 320.73 283.47 321.16 259.23 C 321.43 258.95 321.98 258.40 322.25 258.12 Z" />
<path fill="#633d4d" opacity="0.49" d=" M 251.40 338.45 C 268.85 337.43 286.43 337.96 303.73 340.26 C 304.83 341.19 306.32 342.13 305.95 343.81 C 297.84 348.17 285.90 340.69 279.18 347.29 C 278.77 362.52 279.07 377.77 278.99 393.01 C 278.76 396.23 283.17 398.51 286.00 396.99 C 294.86 397.77 304.32 395.46 312.90 398.20 C 314.45 406.78 304.35 402.48 299.66 403.51 C 285.63 402.24 271.29 400.48 257.22 402.19 C 254.34 410.96 256.93 420.73 255.92 429.84 C 253.24 431.96 249.45 431.83 246.24 431.91 C 244.92 428.94 244.56 425.25 241.72 423.23 C 226.55 421.86 211.20 421.09 196.06 423.12 C 190.57 424.32 194.31 435.56 186.01 432.01 C 176.29 430.14 161.28 437.67 157.26 424.76 C 142.61 419.56 125.65 425.38 110.69 421.30 C 105.51 414.63 108.39 404.09 108.68 396.68 C 123.73 394.54 140.14 397.44 155.36 395.36 C 164.94 386.87 178.75 386.17 190.60 389.45 C 200.17 399.42 214.85 395.08 227.00 396.03 C 232.36 395.23 242.45 397.94 244.61 390.66 C 246.34 374.86 247.30 358.70 243.99 343.06 C 244.92 340.04 248.83 339.60 251.40 338.45 Z" />
</g>
<g id="#140b0f1c">
<path fill="#140b0f" opacity="0.11" d=" M 482.36 273.70 C 483.87 319.40 482.56 365.24 483.00 411.00 C 482.48 489.40 484.04 567.88 482.21 646.22 C 481.95 522.05 481.66 397.86 482.36 273.70 Z" />
</g>
<g id="#5f2e427e">
<path fill="#5f2e42" opacity="0.49" d=" M 369.32 344.26 C 382.49 343.78 395.70 343.84 408.88 344.22 C 411.68 345.02 415.87 344.90 416.72 348.34 C 417.33 361.54 416.92 374.78 416.97 388.00 C 417.90 391.43 416.18 394.69 413.74 396.85 C 400.49 397.22 387.23 396.90 373.98 397.03 C 370.75 397.83 367.50 396.87 365.10 394.79 C 364.91 379.88 364.91 364.98 365.09 350.08 C 365.96 347.84 366.73 345.02 369.32 344.26 M 369.24 346.12 C 363.01 358.07 367.14 372.94 366.05 386.00 C 366.24 389.58 366.21 398.17 372.99 395.02 C 386.35 394.55 400.33 395.94 413.32 394.32 C 414.26 379.02 414.38 362.88 414.89 347.23 C 400.25 343.59 384.28 347.21 369.24 346.12 Z" />
</g>
<g id="#5a35447e">
<path fill="#5a3544" opacity="0.49" d=" M 25.20 346.08 C 40.71 346.04 56.26 345.72 71.75 346.20 C 76.80 349.95 72.61 357.78 74.02 363.00 C 72.66 373.03 76.44 384.14 72.72 393.71 C 58.25 398.04 42.85 395.23 27.99 396.00 C 22.67 395.88 24.32 389.34 23.58 385.59 C 24.17 372.79 19.76 358.07 25.20 346.08 Z" />
<path fill="#5a3544" opacity="0.49" d=" M 110.29 346.17 C 125.19 345.77 140.11 346.06 155.02 345.99 C 158.23 345.73 160.49 350.21 158.96 353.00 C 158.43 363.16 161.32 373.39 158.59 383.42 C 159.19 389.23 154.43 395.68 148.00 393.97 C 135.89 393.19 123.00 395.76 111.29 392.73 C 105.99 380.64 108.59 366.07 108.01 352.99 C 106.04 349.59 108.46 347.91 110.29 346.17 Z" />
<path fill="#5a3544" opacity="0.49" d=" M 197.33 346.28 C 212.20 346.10 227.87 345.19 242.27 346.70 C 244.58 360.82 245.38 376.12 242.40 390.36 C 240.10 395.66 232.34 393.15 228.01 394.03 C 216.38 392.56 202.54 398.08 192.97 388.94 C 193.93 375.37 194.11 361.77 194.10 348.17 C 195.06 347.36 196.18 346.78 197.33 346.28 Z" />
<path fill="#5a3544" opacity="0.49" d=" M 27.39 423.45 C 40.59 421.84 53.79 424.20 67.00 424.04 C 71.21 421.95 76.07 426.77 73.99 430.99 C 73.90 444.34 75.07 458.51 71.25 471.27 C 61.47 475.56 49.49 471.68 39.00 473.03 C 34.83 472.38 26.03 475.20 24.89 469.03 C 23.49 454.18 21.55 439.04 24.20 424.21 C 25.25 423.90 26.31 423.65 27.39 423.45 Z" />
<path fill="#5a3544" opacity="0.49" d=" M 112.33 424.27 C 126.25 424.85 140.10 423.91 153.92 425.14 C 158.39 426.83 159.76 432.53 159.75 436.90 C 158.02 448.44 160.19 460.26 157.75 471.73 C 156.13 473.67 154.24 475.80 151.01 473.99 C 137.76 473.94 124.52 474.21 111.28 473.84 C 107.38 471.32 108.92 465.81 108.06 462.00 C 108.24 452.20 107.31 442.32 108.38 432.57 C 108.86 429.82 108.74 425.08 112.33 424.27 Z" />
<path fill="#5a3544" opacity="0.49" d=" M 205.41 424.59 C 217.15 423.86 229.97 422.97 241.27 425.77 C 247.82 440.20 242.17 457.57 243.94 472.96 C 230.96 473.55 217.87 471.89 204.99 473.96 C 201.44 474.76 194.85 474.23 194.58 469.35 C 193.48 455.73 193.90 441.89 194.28 428.27 C 195.47 423.07 201.53 425.64 205.41 424.59 Z" />
<path fill="#5a3544" opacity="0.49" d=" M 141.41 580.55 C 147.48 579.22 157.69 578.52 159.67 586.36 C 160.29 599.03 160.60 611.84 158.59 624.42 C 160.75 632.88 151.01 630.50 146.37 631.54 C 134.30 630.72 120.87 633.83 109.74 629.28 C 107.86 614.04 106.40 597.32 109.23 582.13 C 119.97 581.77 130.80 582.73 141.41 580.55 Z" />
<path fill="#5a3544" opacity="0.49" d=" M 26.31 581.33 C 41.88 581.56 58.11 579.33 73.31 582.71 C 74.94 595.94 73.56 610.34 74.02 624.02 C 73.69 626.48 73.67 630.09 70.66 630.72 C 57.45 631.48 44.16 630.32 30.99 631.92 C 27.65 633.83 25.88 631.63 24.19 629.70 C 24.04 613.83 21.91 598.02 24.18 582.19 C 24.71 581.98 25.78 581.55 26.31 581.33 Z" />
<path fill="#5a3544" opacity="0.49" d=" M 25.25 659.12 C 40.75 659.80 57.35 656.97 72.27 660.73 C 76.47 674.44 72.75 689.78 74.04 704.03 C 74.90 710.03 66.71 709.50 63.00 709.93 C 50.35 709.29 36.89 711.83 24.70 708.31 C 23.61 692.54 21.65 674.44 25.25 659.12 Z" />
<path fill="#5a3544" opacity="0.49" d=" M 117.41 659.56 C 130.45 659.62 144.68 656.74 157.27 660.75 C 160.78 673.87 160.04 688.32 158.99 702.00 C 160.80 704.97 158.65 707.24 156.69 708.72 C 143.96 710.29 131.08 710.38 118.29 709.73 C 115.46 708.98 110.09 709.63 109.40 705.65 C 107.73 691.27 107.05 676.64 109.35 662.30 C 109.83 658.37 114.56 660.29 117.41 659.56 Z" />
</g>
<g id="#632e437e">
<path fill="#632e43" opacity="0.49" d=" M 283.27 346.16 C 297.48 345.89 311.72 345.88 325.94 346.08 C 331.04 347.32 328.11 354.37 329.19 357.98 C 330.50 369.62 330.41 382.03 328.28 393.28 C 313.76 396.20 298.10 396.01 283.23 395.82 C 277.73 386.18 281.01 372.94 279.96 362.00 C 280.56 356.98 278.76 349.84 283.27 346.16 Z" />
<path fill="#632e43" opacity="0.49" d=" M 281.23 424.12 C 297.10 424.55 313.83 422.78 329.32 424.68 C 331.07 439.96 329.75 456.19 328.84 471.81 C 326.03 474.99 321.53 473.41 317.98 473.06 C 305.84 473.18 292.73 475.82 281.19 470.72 C 279.50 455.39 278.88 439.24 281.23 424.12 Z" />
<path fill="#632e43" opacity="0.49" d=" M 282.21 502.10 C 297.78 502.46 314.14 500.91 329.32 502.67 C 330.49 517.60 330.69 533.52 328.73 548.74 C 326.44 553.01 320.68 550.01 317.01 551.03 C 305.37 550.21 292.82 552.82 281.73 549.27 C 277.94 540.57 280.96 530.21 279.98 521.00 C 281.01 514.89 277.63 507.22 282.21 502.10 Z" />
</g>
<g id="#5e15337e">
<path fill="#5e1533" opacity="0.49" d=" M 369.24 346.12 C 384.28 347.21 400.25 343.59 414.89 347.23 C 414.38 362.88 414.26 379.02 413.32 394.32 C 400.33 395.94 386.35 394.55 372.99 395.02 C 366.21 398.17 366.24 389.58 366.05 386.00 C 367.14 372.94 363.01 358.07 369.24 346.12 Z" />
<path fill="#5e1533" opacity="0.49" d=" M 367.25 424.12 C 382.81 424.43 399.15 422.92 414.32 424.67 C 415.93 437.67 414.54 451.64 415.03 465.02 C 416.99 469.41 413.09 475.20 408.00 472.99 C 394.34 472.50 379.92 474.02 366.67 472.33 C 366.35 456.98 364.17 438.97 367.25 424.12 Z" />
<path fill="#5e1533" opacity="0.49" d=" M 366.06 502.04 C 381.99 502.64 398.78 500.74 414.32 502.68 C 415.40 517.66 415.56 534.37 414.33 549.33 C 398.98 550.28 381.97 550.71 366.68 549.33 C 365.14 534.01 366.32 517.72 366.06 502.04 Z" />
<path fill="#5e1533" opacity="0.49" d=" M 365.65 581.11 C 381.95 578.08 398.76 579.24 415.14 580.80 C 413.59 595.64 417.89 611.81 412.83 625.97 C 395.94 616.99 382.65 602.24 368.31 589.73 C 366.29 588.10 366.05 585.33 365.74 582.96 C 365.72 582.50 365.68 581.57 365.65 581.11 Z" />
</g>
<g id="#633d4c7e">
<path fill="#633d4c" opacity="0.49" d=" M 473.02 414.82 C 478.07 427.25 467.16 448.81 480.90 458.31 C 480.38 525.58 482.46 593.07 479.85 660.21 C 479.15 660.68 478.43 661.14 477.71 661.59 C 462.56 654.88 448.51 646.00 433.97 638.08 C 428.27 634.90 421.71 632.56 417.18 627.67 C 416.54 612.15 417.39 596.60 416.93 581.08 C 416.97 579.72 415.49 579.06 414.64 578.27 C 400.33 576.85 385.85 576.39 371.51 577.36 C 368.31 576.52 365.12 577.92 365.65 581.11 C 365.68 581.57 365.72 582.50 365.74 582.96 C 363.61 587.47 358.97 582.78 355.57 582.49 C 334.48 581.51 313.44 578.21 292.30 579.25 C 288.78 580.34 283.55 578.60 281.17 582.31 C 279.72 594.47 282.57 607.17 281.08 619.05 C 271.92 625.57 259.16 626.29 250.28 633.29 C 254.46 647.28 233.93 642.06 226.83 643.94 C 230.49 635.36 243.07 639.14 246.10 631.00 C 253.16 619.74 264.17 607.46 260.08 592.96 C 255.09 578.61 240.30 571.73 226.23 569.71 C 215.73 563.22 199.08 571.18 195.67 582.69 C 193.99 594.01 196.13 605.71 193.80 617.02 C 186.02 615.74 181.39 607.43 178.21 600.74 C 174.41 590.53 181.61 580.75 186.05 572.05 C 193.37 564.64 203.95 564.59 213.67 562.65 C 218.68 560.86 216.06 552.35 222.60 553.45 C 228.71 550.73 237.24 554.77 242.23 550.26 C 244.65 539.85 243.88 528.70 244.07 517.99 C 243.39 513.50 245.59 507.62 241.71 504.13 C 226.57 503.90 211.40 503.80 196.26 504.17 C 194.41 505.89 192.23 507.72 194.01 511.00 C 194.40 524.03 192.57 537.34 195.72 550.14 C 196.18 551.67 194.97 552.87 194.19 554.03 C 186.29 557.42 177.59 556.76 169.26 558.19 C 165.79 563.22 166.63 569.72 165.46 575.43 C 145.17 577.92 124.67 581.22 104.20 579.70 C 89.97 572.20 74.04 578.61 59.05 578.25 C 39.36 579.87 19.58 578.14 0.00 575.85 L 0.00 486.10 C 3.36 485.67 7.76 487.21 9.76 483.73 C 11.19 475.32 10.03 466.79 11.31 458.38 C 13.07 454.61 18.34 455.84 21.43 456.54 C 23.41 462.24 19.80 473.29 28.10 474.89 C 41.92 475.13 55.79 475.26 69.62 474.69 C 77.29 472.25 73.60 461.92 76.18 456.11 C 83.12 456.17 90.69 455.13 97.29 456.66 C 100.13 465.54 97.51 476.37 101.31 484.72 C 126.12 488.22 151.89 484.80 177.00 486.00 C 185.50 488.40 183.78 477.79 188.23 474.12 C 216.63 476.62 245.75 476.19 274.02 471.11 C 291.57 476.68 310.18 475.42 328.31 474.33 C 338.73 472.55 351.21 475.68 360.12 468.94 C 363.28 470.43 363.91 475.61 367.98 475.04 C 383.19 474.85 398.42 475.40 413.62 474.69 C 420.73 471.93 415.34 461.88 418.16 456.06 C 422.83 456.45 429.00 458.70 430.69 452.71 C 432.74 448.24 430.99 456.41 434.07 455.95 C 446.39 455.77 459.35 456.86 471.31 455.30 C 474.80 442.39 472.15 428.20 473.02 414.82 M 25.25 502.12 C 21.29 512.48 25.56 525.78 23.97 537.01 C 24.08 541.50 22.38 548.39 28.34 549.62 C 42.54 551.70 57.39 551.60 71.29 549.27 C 73.81 543.06 72.71 535.62 73.04 529.00 C 72.07 520.50 75.13 510.11 70.30 502.70 C 55.71 501.14 40.19 502.27 25.25 502.12 M 111.29 502.18 C 107.36 504.37 109.71 509.59 108.97 513.01 C 108.31 525.23 107.60 538.22 111.22 549.85 C 124.39 551.71 137.79 551.36 150.99 550.01 C 155.08 551.78 160.21 547.39 157.99 543.01 C 157.60 529.63 158.90 515.70 157.33 502.67 C 142.50 501.09 126.52 502.27 111.29 502.18 M 282.21 502.10 C 277.63 507.22 281.01 514.89 279.98 521.00 C 280.96 530.21 277.94 540.57 281.73 549.27 C 292.82 552.82 305.37 550.21 317.01 551.03 C 320.68 550.01 326.44 553.01 328.73 548.74 C 330.69 533.52 330.49 517.60 329.32 502.67 C 314.14 500.91 297.78 502.46 282.21 502.10 M 366.06 502.04 C 366.32 517.72 365.14 534.01 366.68 549.33 C 381.97 550.71 398.98 550.28 414.33 549.33 C 415.56 534.37 415.40 517.66 414.32 502.68 C 398.78 500.74 381.99 502.64 366.06 502.04 Z" />
</g>
<g id="#5c37467e">
<path fill="#5c3746" opacity="0.49" d=" M 25.25 502.12 C 40.19 502.27 55.71 501.14 70.30 502.70 C 75.13 510.11 72.07 520.50 73.04 529.00 C 72.71 535.62 73.81 543.06 71.29 549.27 C 57.39 551.60 42.54 551.70 28.34 549.62 C 22.38 548.39 24.08 541.50 23.97 537.01 C 25.56 525.78 21.29 512.48 25.25 502.12 Z" />
<path fill="#5c3746" opacity="0.49" d=" M 111.29 502.18 C 126.52 502.27 142.50 501.09 157.33 502.67 C 158.90 515.70 157.60 529.63 157.99 543.01 C 160.21 547.39 155.08 551.78 150.99 550.01 C 137.79 551.36 124.39 551.71 111.22 549.85 C 107.60 538.22 108.31 525.23 108.97 513.01 C 109.71 509.59 107.36 504.37 111.29 502.18 Z" />
<path fill="#5c3746" opacity="0.49" d=" M 196.26 504.17 C 211.40 503.80 226.57 503.90 241.71 504.13 C 245.59 507.62 243.39 513.50 244.07 517.99 C 243.88 528.70 244.65 539.85 242.23 550.26 C 237.24 554.77 228.71 550.73 222.60 553.45 C 216.06 552.35 218.68 560.86 213.67 562.65 C 203.95 564.59 193.37 564.64 186.05 572.05 C 190.78 557.82 208.99 566.61 216.01 557.07 C 210.96 551.24 199.93 553.89 192.79 555.89 C 193.14 555.43 193.84 554.49 194.19 554.03 C 194.97 552.87 196.18 551.67 195.72 550.14 C 192.57 537.34 194.40 524.03 194.01 511.00 C 192.23 507.72 194.41 505.89 196.26 504.17 Z" />
</g>
<g id="#3b15257e">
<path fill="#3b1525" opacity="0.49" d=" M 192.79 555.89 C 199.93 553.89 210.96 551.24 216.01 557.07 C 208.99 566.61 190.78 557.82 186.05 572.05 C 177.95 579.03 174.47 590.40 176.14 600.88 C 180.58 612.70 191.75 619.56 202.18 625.51 C 199.32 627.49 197.71 630.68 197.71 634.15 C 185.92 623.71 168.81 614.58 167.98 596.97 C 166.31 579.40 179.37 565.26 192.79 555.89 Z" />
</g>
<g id="#5934437e">
<path fill="#593443" opacity="0.49" d=" M 195.67 582.69 C 199.08 571.18 215.73 563.22 226.23 569.71 C 217.39 569.62 207.89 569.23 201.22 576.14 C 198.25 578.39 200.90 582.37 203.09 584.13 C 207.45 583.92 209.76 578.79 214.12 578.09 C 227.92 576.11 242.71 581.70 251.65 592.35 C 256.47 609.12 243.00 624.88 228.66 631.89 C 219.67 630.57 210.62 629.01 202.18 625.51 C 191.75 619.56 180.58 612.70 176.14 600.88 C 174.47 590.40 177.95 579.03 186.05 572.05 C 181.61 580.75 174.41 590.53 178.21 600.74 C 181.39 607.43 186.02 615.74 193.80 617.02 C 196.13 605.71 193.99 594.01 195.67 582.69 Z" />
</g>
<g id="#3c15257e">
<path fill="#3c1525" opacity="0.49" d=" M 201.22 576.14 C 207.89 569.23 217.39 569.62 226.23 569.71 C 240.30 571.73 255.09 578.61 260.08 592.96 C 264.17 607.46 253.16 619.74 246.10 631.00 C 241.68 635.27 234.97 634.66 229.94 637.83 C 231.28 635.64 230.59 633.43 228.66 631.89 C 243.00 624.88 256.47 609.12 251.65 592.35 C 242.71 581.70 227.92 576.11 214.12 578.09 C 209.76 578.79 207.45 583.92 203.09 584.13 C 200.90 582.37 198.25 578.39 201.22 576.14 Z" />
</g>
<g id="#6232457e">
<path fill="#623245" opacity="0.49" d=" M 371.51 577.36 C 385.85 576.39 400.33 576.85 414.64 578.27 C 415.49 579.06 416.97 579.72 416.93 581.08 C 417.39 596.60 416.54 612.15 417.18 627.67 C 421.71 632.56 428.27 634.90 433.97 638.08 C 448.51 646.00 462.56 654.88 477.71 661.59 C 478.43 661.14 479.15 660.68 479.85 660.21 C 480.57 660.76 481.33 661.27 482.12 661.75 C 494.21 666.39 507.89 668.06 517.86 677.09 C 519.20 679.36 521.19 681.12 523.13 682.92 C 528.03 689.84 529.98 698.71 528.05 707.04 C 523.19 743.48 524.77 780.59 525.79 817.30 C 527.42 824.42 525.92 831.97 527.86 838.98 C 528.53 840.96 529.06 843.01 529.07 845.13 C 521.87 842.78 515.26 838.32 509.75 833.18 C 508.16 796.49 509.98 759.64 513.14 723.06 C 516.25 707.65 510.30 690.74 498.68 680.31 C 471.58 662.85 439.80 652.28 416.10 629.90 C 414.14 614.18 418.26 596.56 415.14 580.80 C 398.76 579.24 381.95 578.08 365.65 581.11 C 365.12 577.92 368.31 576.52 371.51 577.36 Z" />
</g>
<g id="#632a417e">
<path fill="#632a41" opacity="0.49" d=" M 292.30 579.25 C 313.44 578.21 334.48 581.51 355.57 582.49 C 358.97 582.78 363.61 587.47 365.74 582.96 C 366.05 585.33 366.29 588.10 368.31 589.73 C 382.65 602.24 395.94 616.99 412.83 625.97 C 417.89 611.81 413.59 595.64 415.14 580.80 C 418.26 596.56 414.14 614.18 416.10 629.90 C 439.80 652.28 471.58 662.85 498.68 680.31 C 510.30 690.74 516.25 707.65 513.14 723.06 C 509.98 759.64 508.16 796.49 509.75 833.18 C 478.58 810.65 446.69 789.16 415.81 766.24 C 414.06 763.44 407.48 760.93 411.45 757.45 C 416.24 752.93 415.59 745.84 412.58 740.36 C 407.65 727.72 398.60 716.18 399.21 701.97 C 398.31 692.98 400.41 680.28 390.94 675.04 C 377.94 668.11 362.02 668.95 349.63 660.40 C 340.58 655.41 333.53 647.68 327.76 639.25 C 324.54 635.44 320.36 640.96 317.67 642.66 C 301.69 656.80 282.10 668.67 260.05 668.21 C 253.58 669.82 245.18 666.63 239.81 670.94 C 246.87 672.76 252.21 677.10 257.97 681.20 C 258.75 681.98 259.53 682.77 260.28 683.61 C 268.52 697.40 272.21 713.34 274.96 729.01 C 275.73 736.06 278.41 742.81 282.37 748.67 C 288.69 754.96 297.04 758.50 303.97 764.01 C 314.46 770.89 319.89 782.71 328.53 791.44 C 331.48 794.81 336.09 797.42 340.70 795.72 C 350.96 789.62 358.22 779.54 368.32 773.27 C 373.42 771.96 376.17 778.63 381.17 778.97 C 427.81 812.21 474.01 846.03 520.47 879.50 C 518.96 879.27 517.44 879.08 515.93 879.02 C 521.66 906.56 539.70 929.07 555.30 951.68 C 571.47 973.61 581.87 998.90 595.81 1022.17 C 599.53 1029.50 604.96 1036.05 607.42 1044.00 L 473.32 1044.00 C 459.84 1019.35 444.61 995.70 430.77 971.25 C 417.42 948.99 394.41 936.20 375.03 919.97 C 344.09 894.68 320.34 862.14 296.81 830.20 C 283.32 808.92 259.14 793.83 254.55 767.58 C 254.26 759.53 244.38 762.79 239.29 760.74 C 235.51 758.42 238.24 752.79 235.17 749.78 C 228.82 743.72 228.62 735.05 226.79 727.15 C 226.38 727.13 225.57 727.09 225.16 727.06 C 223.03 740.82 219.51 758.14 231.29 768.71 C 241.28 780.68 252.93 791.24 262.35 803.66 C 264.03 805.23 262.08 807.37 260.18 806.96 C 259.84 805.58 260.09 803.95 259.16 802.81 C 248.66 790.06 236.84 778.51 226.00 766.07 C 217.56 749.27 222.33 729.77 225.23 712.26 C 241.49 712.79 236.69 693.68 233.90 684.07 C 231.94 677.66 229.21 671.46 225.39 665.94 C 226.02 660.95 220.76 657.21 221.96 651.97 C 219.55 645.20 225.84 641.54 229.94 637.83 C 234.97 634.66 241.68 635.27 246.10 631.00 C 243.07 639.14 230.49 635.36 226.83 643.94 C 233.93 642.06 254.46 647.28 250.28 633.29 C 259.16 626.29 271.92 625.57 281.08 619.05 C 282.57 607.17 279.72 594.47 281.17 582.31 C 283.55 578.60 288.78 580.34 292.30 579.25 Z" />
</g>
<g id="#2d09187e">
<path fill="#2d0918" opacity="0.49" d=" M 197.71 634.15 C 197.71 630.68 199.32 627.49 202.18 625.51 C 210.62 629.01 219.67 630.57 228.66 631.89 C 230.59 633.43 231.28 635.64 229.94 637.83 C 225.84 641.54 219.55 645.20 221.96 651.97 C 220.76 657.21 226.02 660.95 225.39 665.94 C 220.64 662.32 215.51 659.17 211.24 654.97 C 206.63 648.09 202.08 641.18 197.71 634.15 Z" />
</g>
<g id="#61233d7e">
<path fill="#61233d" opacity="0.49" d=" M 317.67 642.66 C 320.36 640.96 324.54 635.44 327.76 639.25 C 333.53 647.68 340.58 655.41 349.63 660.40 C 362.02 668.95 377.94 668.11 390.94 675.04 C 400.41 680.28 398.31 692.98 399.21 701.97 C 398.60 716.18 407.65 727.72 412.58 740.36 C 415.59 745.84 416.24 752.93 411.45 757.45 C 407.48 760.93 414.06 763.44 415.81 766.24 C 415.39 766.14 414.56 765.93 414.15 765.82 C 405.56 759.17 397.18 752.08 387.94 746.38 C 391.83 741.82 389.68 729.97 382.95 728.31 C 384.66 727.37 385.65 725.42 384.38 723.67 C 378.94 713.43 370.42 703.80 371.67 691.37 C 368.01 686.61 361.30 685.82 356.56 682.51 C 345.93 677.65 338.67 668.26 331.71 659.28 C 331.01 657.97 329.47 657.70 328.14 658.10 C 312.86 663.78 297.80 672.49 280.99 671.95 C 278.09 671.63 274.72 671.47 272.69 673.87 C 266.85 674.14 261.00 673.70 255.18 674.12 C 252.20 676.53 256.91 678.90 257.97 681.20 C 252.21 677.10 246.87 672.76 239.81 670.94 C 245.18 666.63 253.58 669.82 260.05 668.21 C 282.10 668.67 301.69 656.80 317.67 642.66 Z" />
<path fill="#61233d" opacity="0.49" d=" M 225.16 727.06 C 225.57 727.09 226.38 727.13 226.79 727.15 C 228.62 735.05 228.82 743.72 235.17 749.78 C 238.24 752.79 235.51 758.42 239.29 760.74 C 244.38 762.79 254.26 759.53 254.55 767.58 C 259.14 793.83 283.32 808.92 296.81 830.20 C 320.34 862.14 344.09 894.68 375.03 919.97 C 394.41 936.20 417.42 948.99 430.77 971.25 C 444.61 995.70 459.84 1019.35 473.32 1044.00 L 451.38 1044.00 C 439.99 1021.84 428.77 998.72 411.56 980.44 C 401.18 969.88 387.80 962.98 376.79 953.22 C 357.43 934.18 336.82 915.70 322.92 892.07 C 310.46 870.39 292.43 852.57 280.40 830.64 C 275.77 822.52 270.39 814.79 263.70 808.23 C 256.71 807.90 249.69 808.10 242.72 807.34 C 248.54 807.14 254.36 807.12 260.18 806.96 C 262.08 807.37 264.03 805.23 262.35 803.66 C 252.93 791.24 241.28 780.68 231.29 768.71 C 219.51 758.14 223.03 740.82 225.16 727.06 Z" />
</g>
<g id="#5c35457e">
<path fill="#5c3545" opacity="0.49" d=" M 211.24 654.97 C 215.51 659.17 220.64 662.32 225.39 665.94 C 229.21 671.46 231.94 677.66 233.90 684.07 C 236.69 693.68 241.49 712.79 225.23 712.26 C 222.33 729.77 217.56 749.27 226.00 766.07 C 215.23 753.33 221.77 734.85 222.86 719.97 C 224.94 712.19 216.37 708.42 210.07 709.10 C 205.53 708.93 195.66 712.87 195.48 705.40 C 194.35 692.00 194.74 678.36 195.80 664.96 C 192.90 652.79 211.04 664.27 211.24 654.97 Z" />
</g>
<g id="#5319307e">
<path fill="#531930" opacity="0.49" d=" M 280.99 671.95 C 297.80 672.49 312.86 663.78 328.14 658.10 C 329.47 657.70 331.01 657.97 331.71 659.28 C 338.67 668.26 345.93 677.65 356.56 682.51 C 361.30 685.82 368.01 686.61 371.67 691.37 C 370.42 703.80 378.94 713.43 384.38 723.67 C 385.65 725.42 384.66 727.37 382.95 728.31 C 375.49 725.41 368.51 721.41 361.17 718.29 C 358.52 719.50 355.89 721.70 355.84 724.84 C 331.45 710.21 311.13 690.07 286.99 675.07 C 282.49 672.75 277.49 673.58 272.69 673.87 C 274.72 671.47 278.09 671.63 280.99 671.95 Z" />
</g>
<g id="#3009197e">
<path fill="#300919" opacity="0.49" d=" M 272.69 673.87 C 277.49 673.58 282.49 672.75 286.99 675.07 C 311.13 690.07 331.45 710.21 355.84 724.84 C 366.41 732.21 376.93 739.68 387.94 746.38 C 397.18 752.08 405.56 759.17 414.15 765.82 C 415.72 770.74 431.92 774.13 424.53 779.64 C 423.32 780.46 424.33 782.14 425.32 782.68 C 439.22 793.78 453.64 804.25 466.74 816.31 C 503.57 837.67 536.41 865.12 572.68 887.32 C 576.80 890.22 579.07 885.28 578.51 881.73 C 587.11 889.25 605.80 893.80 601.44 908.46 C 598.96 916.47 592.98 922.67 586.92 928.13 C 570.51 917.64 554.77 905.86 539.03 894.33 C 538.66 894.48 537.92 894.78 537.55 894.93 C 533.95 888.02 526.15 884.45 520.47 879.50 C 474.01 846.03 427.81 812.21 381.17 778.97 C 374.50 773.28 367.10 768.49 360.30 762.96 C 349.28 754.33 337.38 746.92 326.05 738.71 C 309.95 726.76 293.91 714.66 277.09 703.75 C 271.92 696.70 266.58 689.70 260.28 683.61 C 259.53 682.77 258.75 681.98 257.97 681.20 C 256.91 678.90 252.20 676.53 255.18 674.12 C 261.00 673.70 266.85 674.14 272.69 673.87 Z" />
</g>
<g id="#32121f48">
<path fill="#32121f" opacity="0.28" d=" M 517.86 677.09 C 519.87 678.78 521.97 680.46 523.13 682.92 C 521.19 681.12 519.20 679.36 517.86 677.09 Z" />
</g>
<g id="#61243d7e">
<path fill="#61243d" opacity="0.49" d=" M 260.28 683.61 C 266.58 689.70 271.92 696.70 277.09 703.75 C 281.73 718.36 283.94 736.13 298.95 744.05 C 302.62 748.14 307.85 744.11 312.22 744.24 C 309.74 745.43 307.11 746.39 304.97 748.16 C 313.49 755.27 320.64 763.82 327.25 772.76 C 332.42 780.94 343.85 778.74 349.87 772.86 C 352.97 769.28 359.70 768.24 360.30 762.96 C 367.10 768.49 374.50 773.28 381.17 778.97 C 376.17 778.63 373.42 771.96 368.32 773.27 C 358.22 779.54 350.96 789.62 340.70 795.72 C 336.09 797.42 331.48 794.81 328.53 791.44 C 319.89 782.71 314.46 770.89 303.97 764.01 C 297.04 758.50 288.69 754.96 282.37 748.67 C 278.41 742.81 275.73 736.06 274.96 729.01 C 272.21 713.34 268.52 697.40 260.28 683.61 Z" />
</g>
<g id="#551b337e">
<path fill="#551b33" opacity="0.49" d=" M 277.09 703.75 C 293.91 714.66 309.95 726.76 326.05 738.71 C 321.31 740.20 316.75 742.21 312.22 744.24 C 307.85 744.11 302.62 748.14 298.95 744.05 C 283.94 736.13 281.73 718.36 277.09 703.75 Z" />
</g>
<g id="#47233261">
<path fill="#472332" opacity="0.38" d=" M 525.79 817.30 C 524.77 780.59 523.19 743.48 528.05 707.04 C 528.24 714.65 527.82 722.25 526.31 729.71 C 525.47 758.89 526.45 788.11 525.79 817.30 Z" />
</g>
<g id="#5c34457e">
<path fill="#5c3445" opacity="0.49" d=" M 361.17 718.29 C 368.51 721.41 375.49 725.41 382.95 728.31 C 389.68 729.97 391.83 741.82 387.94 746.38 C 376.93 739.68 366.41 732.21 355.84 724.84 C 355.89 721.70 358.52 719.50 361.17 718.29 Z" />
</g>
<g id="#140a0f1d">
<path fill="#140a0f" opacity="0.11" d=" M 526.31 729.71 C 527.83 758.73 526.71 787.87 526.87 816.95 L 525.79 817.30 C 526.45 788.11 525.47 758.89 526.31 729.71 Z" />
</g>
<g id="#60394a7e">
<path fill="#60394a" opacity="0.49" d=" M 312.22 744.24 C 316.75 742.21 321.31 740.20 326.05 738.71 C 337.38 746.92 349.28 754.33 360.30 762.96 C 359.70 768.24 352.97 769.28 349.87 772.86 C 343.85 778.74 332.42 780.94 327.25 772.76 C 320.64 763.82 313.49 755.27 304.97 748.16 C 307.11 746.39 309.74 745.43 312.22 744.24 Z" />
</g>
<g id="#360d1e7d">
<path fill="#360d1e" opacity="0.49" d=" M 414.15 765.82 C 414.56 765.93 415.39 766.14 415.81 766.24 C 446.69 789.16 478.58 810.65 509.75 833.18 C 515.26 838.32 521.87 842.78 529.07 845.13 C 529.06 843.01 528.53 840.96 527.86 838.98 C 531.20 840.54 529.03 845.14 531.82 847.20 C 546.71 859.59 562.97 870.20 578.51 881.73 C 579.07 885.28 576.80 890.22 572.68 887.32 C 536.41 865.12 503.57 837.67 466.74 816.31 C 453.64 804.25 439.22 793.78 425.32 782.68 C 424.33 782.14 423.32 780.46 424.53 779.64 C 431.92 774.13 415.72 770.74 414.15 765.82 Z" />
</g>
<g id="#4c223373">
<path fill="#4c2233" opacity="0.45" d=" M 0.00 807.00 C 54.07 807.14 108.15 806.72 162.22 807.22 C 108.21 809.03 54.06 807.48 0.00 808.00 L 0.00 807.00 Z" />
</g>
<g id="#2d031469">
<path fill="#2d0314" opacity="0.41" d=" M 162.22 807.22 C 189.04 806.84 215.90 806.76 242.72 807.34 C 249.69 808.10 256.71 807.90 263.70 808.23 C 270.39 814.79 275.77 822.52 280.40 830.64 C 292.43 852.57 310.46 870.39 322.92 892.07 C 336.82 915.70 357.43 934.18 376.79 953.22 C 387.80 962.98 401.18 969.88 411.56 980.44 C 428.77 998.72 439.99 1021.84 451.38 1044.00 L 404.25 1044.00 C 402.74 1024.90 393.16 1006.63 377.38 995.59 C 355.12 984.22 334.32 970.28 317.08 952.05 C 308.15 942.14 299.54 931.90 292.10 920.82 C 281.06 904.49 266.64 890.90 254.55 875.41 C 249.12 869.62 244.68 861.26 236.25 859.72 C 157.57 858.04 78.74 859.48 0.00 859.00 L 0.00 808.00 C 54.06 807.48 108.21 809.03 162.22 807.22 Z" />
</g>
<g id="#441e2d5c">
<path fill="#441e2d" opacity="0.36" d=" M 525.79 817.30 L 526.87 816.95 C 529.32 824.02 527.45 831.66 527.86 838.98 C 525.92 831.97 527.42 824.42 525.79 817.30 Z" />
</g>
<g id="#1f020e47">
<path fill="#1f020e" opacity="0.28" d=" M 0.00 859.00 C 78.74 859.48 157.57 858.04 236.25 859.72 C 157.50 860.37 78.75 859.82 0.00 860.00 L 0.00 859.00 Z" />
</g>
<g id="#0500020b">
<path fill="#050002" opacity="0.04" d=" M 0.00 860.00 C 78.75 859.82 157.50 860.37 236.25 859.72 C 244.68 861.26 249.12 869.62 254.55 875.41 C 266.64 890.90 281.06 904.49 292.10 920.82 C 299.54 931.90 308.15 942.14 317.08 952.05 C 303.20 943.17 295.21 927.53 285.33 914.64 C 271.66 897.71 257.34 881.42 242.80 865.23 C 240.60 862.87 237.43 861.04 234.00 862.04 C 156.00 861.93 78.00 862.03 0.00 862.00 L 0.00 860.00 Z" />
</g>
<g id="#6231457d">
<path fill="#623145" opacity="0.49" d=" M 515.93 879.02 C 517.44 879.08 518.96 879.27 520.47 879.50 C 526.15 884.45 533.95 888.02 537.55 894.93 C 540.75 901.71 543.54 908.67 546.63 915.50 C 557.19 934.87 576.23 948.65 584.60 969.52 C 591.55 990.75 606.28 1007.92 616.72 1027.37 C 620.40 1031.71 621.43 1037.81 626.00 1041.45 L 626.00 1044.00 L 607.42 1044.00 C 604.96 1036.05 599.53 1029.50 595.81 1022.17 C 581.87 998.90 571.47 973.61 555.30 951.68 C 539.70 929.07 521.66 906.56 515.93 879.02 Z" />
</g>
</svg>
