<?xml version="1.0" encoding="UTF-8" ?>
<!DOCTYPE svg PUBLIC "-//W3C//DTD SVG 1.1//EN" "http://www.w3.org/Graphics/SVG/1.1/DTD/svg11.dtd">
<svg width="398pt" height="890pt" viewBox="0 0 398 890" version="1.1" xmlns="http://www.w3.org/2000/svg">
<g id="#370d183e">
<path fill="#370d18" opacity="0.24" d=" M 119.07 52.00 C 118.47 50.64 130.91 49.54 129.69 52.06 C 126.14 52.02 122.61 51.97 119.07 52.00 Z" />
</g>
<g id="#6b3e4a6b">
<path fill="#6b3e4a" opacity="0.42" d=" M 110.08 60.27 C 112.41 56.97 115.05 53.30 119.07 52.00 C 122.61 51.97 126.14 52.02 129.69 52.06 C 132.26 54.30 135.03 56.29 137.80 58.27 C 138.78 58.86 139.18 59.74 139.00 60.91 C 139.00 64.62 139.04 68.33 138.99 72.04 C 137.88 73.83 136.85 75.83 135.13 77.11 C 130.79 80.44 125.33 81.18 120.00 81.09 C 115.59 80.31 112.37 76.35 110.08 72.71 C 110.05 68.56 110.03 64.41 110.08 60.27 Z" />
<path fill="#6b3e4a" opacity="0.42" d=" M 362.86 199.88 C 367.36 196.94 372.38 194.80 377.93 195.92 C 379.94 196.76 382.08 197.91 383.15 199.89 C 383.95 204.89 384.35 210.07 383.11 215.04 C 381.70 218.05 377.83 219.09 374.98 220.19 C 370.36 220.33 366.47 217.66 362.89 215.07 C 362.13 214.42 361.53 213.64 361.09 212.72 C 361.01 209.79 361.00 206.90 360.99 203.98 C 361.10 202.52 361.60 200.72 362.86 199.88 Z" />
</g>
<g id="#43111f47">
<path fill="#43111f" opacity="0.28" d=" M 129.69 52.06 C 133.31 52.19 136.43 55.11 137.80 58.27 C 135.03 56.29 132.26 54.30 129.69 52.06 Z" />
</g>
<g id="#3a0b1841">
<path fill="#3a0b18" opacity="0.25" d=" M 110.08 72.71 C 108.73 72.59 107.56 60.77 110.08 60.27 C 110.03 64.41 110.05 68.56 110.08 72.71 Z" />
</g>
<g id="#41142144">
<path fill="#411421" opacity="0.27" d=" M 139.00 60.91 C 140.76 63.28 142.27 69.85 138.99 72.04 C 139.04 68.33 139.00 64.62 139.00 60.91 Z" />
</g>
<g id="#3e0f1b42">
<path fill="#3e0f1b" opacity="0.26" d=" M 120.00 81.09 C 125.33 81.18 130.79 80.44 135.13 77.11 C 133.78 82.50 123.19 83.57 120.00 81.09 Z" />
</g>
<g id="#47202b48">
<path fill="#47202b" opacity="0.28" d=" M 83.74 90.82 C 87.22 89.62 91.76 87.68 95.07 89.79 C 91.31 90.35 87.55 90.90 83.74 90.82 Z" />
</g>
<g id="#7b74767b">
<path fill="#7b7476" opacity="0.48" d=" M 83.74 90.82 C 87.55 90.90 91.31 90.35 95.07 89.79 C 94.96 92.05 95.28 94.31 97.00 95.94 C 95.63 98.13 96.29 100.28 98.02 102.02 C 94.66 109.90 101.72 111.47 107.08 109.29 C 113.31 108.97 124.01 102.11 126.89 109.24 C 127.23 110.47 127.60 111.70 127.96 112.93 C 127.92 120.20 129.59 127.33 131.94 134.17 C 132.29 135.39 132.70 136.60 133.07 137.82 C 132.94 141.69 133.40 145.55 134.71 149.20 C 134.80 149.58 134.97 150.35 135.06 150.74 C 135.14 153.35 135.74 155.90 136.58 158.37 L 136.83 159.25 C 137.27 161.00 137.96 162.67 138.71 164.31 C 138.88 166.12 138.99 167.94 139.13 169.77 C 141.20 187.70 147.26 204.93 149.93 222.79 C 143.90 224.21 137.84 225.54 131.76 226.71 C 128.32 227.18 125.08 228.46 121.94 229.88 C 121.52 229.96 120.68 230.13 120.27 230.21 C 116.99 229.91 113.77 230.62 110.71 231.76 C 109.20 232.19 107.71 232.69 106.23 233.19 C 100.19 233.28 94.25 234.67 88.65 236.86 C 88.13 236.96 87.10 237.16 86.58 237.26 C 79.97 233.06 78.68 223.97 72.73 218.86 C 80.34 215.13 89.02 215.11 97.12 213.22 C 99.02 213.28 98.96 211.47 99.22 210.08 C 103.06 210.44 108.46 212.95 110.46 208.40 C 112.59 202.86 117.65 212.84 121.13 208.14 C 123.01 206.02 124.40 201.19 127.67 204.33 C 134.52 210.90 144.44 197.05 135.14 193.68 C 132.18 192.07 128.91 193.32 126.18 194.61 C 125.10 195.09 124.00 195.55 122.90 195.99 C 119.33 195.73 115.03 195.63 112.81 198.95 C 109.99 203.26 103.57 195.91 100.28 200.28 C 99.19 201.53 98.21 202.87 97.17 204.17 C 96.19 201.96 95.70 197.96 91.40 201.40 C 82.43 202.18 73.87 205.41 64.92 206.16 C 53.23 188.05 42.31 169.63 30.33 151.70 C 27.00 147.44 21.72 152.05 18.05 153.45 C 17.06 150.42 16.60 147.25 15.88 144.16 C 15.57 140.51 15.12 136.89 14.93 133.23 L 15.43 132.64 C 24.01 135.02 34.39 132.22 41.89 127.77 C 40.43 119.27 40.44 109.85 35.50 102.44 C 41.87 99.12 49.41 99.47 56.12 97.13 C 57.56 96.84 60.42 96.26 61.86 95.97 C 64.76 96.10 67.66 95.60 70.21 94.15 C 71.09 93.74 71.97 93.33 72.86 92.93 C 75.60 92.81 78.52 93.38 81.00 91.95 C 81.90 91.55 82.82 91.17 83.74 90.82 M 66.30 117.32 C 59.38 127.95 50.13 138.16 45.94 149.98 C 55.07 149.69 64.28 147.80 72.90 144.78 C 71.67 135.72 69.40 124.15 66.30 117.32 M 116.41 134.49 C 108.52 137.31 99.30 136.51 92.10 141.15 C 92.82 144.77 93.80 148.32 94.19 152.00 C 104.82 150.40 115.35 147.73 125.96 145.82 C 125.08 140.50 125.09 130.09 116.41 134.49 M 125.24 153.43 C 103.18 157.27 81.59 163.81 59.31 166.32 C 54.32 169.23 59.98 176.00 60.15 179.95 C 83.17 175.01 106.57 171.32 129.30 165.25 C 129.75 162.51 129.88 154.01 125.24 153.43 M 129.33 172.37 C 107.53 176.72 85.85 181.57 64.07 186.06 C 59.06 187.30 63.80 194.44 63.19 197.72 C 64.86 200.48 68.33 198.15 70.66 197.65 C 91.76 193.16 113.33 189.66 133.98 183.82 C 132.26 180.42 134.33 171.04 129.33 172.37 Z" />
</g>
<g id="#47232d4a">
<path fill="#47232d" opacity="0.29" d=" M 95.07 89.79 C 96.70 91.44 96.95 93.74 97.00 95.94 C 95.28 94.31 94.96 92.05 95.07 89.79 Z" />
</g>
<g id="#53283454">
<path fill="#532834" opacity="0.33" d=" M 72.86 92.93 C 75.35 91.62 78.27 92.18 81.00 91.95 C 78.52 93.38 75.60 92.81 72.86 92.93 Z" />
</g>
<g id="#51243053">
<path fill="#512430" opacity="0.33" d=" M 61.86 95.97 C 64.24 94.05 67.26 94.17 70.21 94.15 C 67.66 95.60 64.76 96.10 61.86 95.97 Z" />
<path fill="#512430" opacity="0.33" d=" M 56.12 97.13 C 57.56 96.84 60.42 96.26 61.86 95.97 C 60.42 96.26 57.56 96.84 56.12 97.13 Z" />
</g>
<g id="#461c284a">
<path fill="#461c28" opacity="0.29" d=" M 97.00 95.94 C 97.25 97.46 97.77 100.50 98.02 102.02 C 96.29 100.28 95.63 98.13 97.00 95.94 Z" />
</g>
<g id="#3a151f3f">
<path fill="#3a151f" opacity="0.25" d=" M 34.67 102.78 C 38.99 96.33 49.37 98.54 56.12 97.13 C 49.41 99.47 41.87 99.12 35.50 102.44 L 34.67 102.78 Z" />
</g>
<g id="#562c3756">
<path fill="#562c37" opacity="0.34" d=" M 98.02 102.02 C 98.21 107.53 100.73 111.44 107.08 109.29 C 101.72 111.47 94.66 109.90 98.02 102.02 Z" />
</g>
<g id="#6d4a536d">
<path fill="#6d4a53" opacity="0.43" d=" M 15.43 132.64 C 21.94 122.76 28.63 112.97 34.67 102.78 L 35.50 102.44 C 40.44 109.85 40.43 119.27 41.89 127.77 C 34.39 132.22 24.01 135.02 15.43 132.64 Z" />
</g>
<g id="#4d212d4f">
<path fill="#4d212d" opacity="0.31" d=" M 107.08 109.29 C 111.56 107.36 128.26 99.48 126.89 109.24 C 124.01 102.11 113.31 108.97 107.08 109.29 Z" />
</g>
<g id="#4e202d4f">
<path fill="#4e202d" opacity="0.31" d=" M 127.96 112.93 C 130.00 119.84 132.05 126.88 131.94 134.17 C 129.59 127.33 127.92 120.20 127.96 112.93 Z" />
</g>
<g id="#704f5770">
<path fill="#704f57" opacity="0.44" d=" M 66.30 117.32 C 69.40 124.15 71.67 135.72 72.90 144.78 C 64.28 147.80 55.07 149.69 45.94 149.98 C 50.13 138.16 59.38 127.95 66.30 117.32 Z" />
</g>
<g id="#48212c4c">
<path fill="#48212c" opacity="0.30" d=" M 15.88 144.16 C 13.52 141.10 13.18 136.60 14.93 133.23 C 15.12 136.89 15.57 140.51 15.88 144.16 Z" />
</g>
<g id="#70505870">
<path fill="#705058" opacity="0.44" d=" M 116.41 134.49 C 125.09 130.09 125.08 140.50 125.96 145.82 C 115.35 147.73 104.82 150.40 94.19 152.00 C 93.80 148.32 92.82 144.77 92.10 141.15 C 99.30 136.51 108.52 137.31 116.41 134.49 Z" />
<path fill="#705058" opacity="0.44" d=" M 125.24 153.43 C 129.88 154.01 129.75 162.51 129.30 165.25 C 106.57 171.32 83.17 175.01 60.15 179.95 C 59.98 176.00 54.32 169.23 59.31 166.32 C 81.59 163.81 103.18 157.27 125.24 153.43 Z" />
</g>
<g id="#542b3654">
<path fill="#542b36" opacity="0.33" d=" M 133.07 137.82 C 134.31 141.49 136.20 145.31 134.71 149.20 C 133.40 145.55 132.94 141.69 133.07 137.82 Z" />
</g>
<g id="#3a051349">
<path fill="#3a0513" opacity="0.29" d=" M 183.70 143.79 C 187.08 134.73 201.22 142.33 197.01 150.52 C 195.86 147.40 194.84 144.24 193.54 141.19 C 189.22 138.64 187.38 143.81 183.70 143.79 Z" />
</g>
<g id="#7e223a7e">
<path fill="#7e223a" opacity="0.49" d=" M 183.70 143.79 C 187.38 143.81 189.22 138.64 193.54 141.19 C 194.84 144.24 195.86 147.40 197.01 150.52 C 193.16 160.81 207.39 163.96 212.22 157.35 C 216.68 155.74 216.88 147.55 222.44 149.46 C 227.47 152.19 231.66 156.15 235.83 160.01 C 237.83 162.89 242.06 164.20 242.34 168.07 C 240.26 170.74 237.93 173.19 235.63 175.67 C 230.83 177.22 233.85 182.38 235.77 185.16 C 236.42 186.20 237.09 187.25 237.87 188.22 C 242.40 193.67 249.40 187.51 254.62 187.22 C 256.84 191.20 256.54 195.87 257.85 200.14 L 258.05 200.89 C 257.93 205.84 259.37 210.58 259.87 215.47 C 254.45 217.89 248.63 218.84 242.93 219.98 C 240.57 224.14 238.84 231.67 243.77 234.26 C 246.73 236.68 250.01 238.68 253.06 241.00 C 251.80 243.41 250.14 245.59 248.87 248.00 C 247.21 250.32 245.61 252.67 244.07 255.07 C 241.11 258.27 239.73 264.15 235.24 265.04 C 234.31 260.32 227.95 259.99 224.83 257.00 C 223.44 256.10 222.08 254.50 220.23 255.09 C 208.97 257.03 211.90 269.54 214.04 277.88 C 204.07 275.58 195.69 281.05 186.17 280.94 C 183.11 274.28 184.76 260.76 173.81 261.74 L 172.98 261.54 C 167.46 259.32 166.00 267.61 164.08 271.28 C 162.54 273.04 161.17 276.39 158.32 274.70 C 152.62 270.42 146.70 266.43 141.10 262.01 C 135.45 258.41 140.53 254.26 142.03 249.92 C 142.67 249.26 143.33 248.62 144.02 248.00 C 149.23 244.32 144.45 230.54 137.40 234.18 C 132.35 234.68 123.54 237.89 121.99 230.78 L 121.94 229.88 C 125.08 228.46 128.32 227.18 131.76 226.71 C 137.30 229.35 147.67 222.01 149.03 230.99 C 159.16 255.96 194.46 265.02 215.70 248.71 C 236.64 235.26 241.31 203.41 225.88 184.14 C 213.01 166.77 186.76 161.15 167.95 171.92 C 157.41 176.80 151.72 186.85 146.21 196.34 C 142.87 187.76 144.30 177.62 139.13 169.77 C 138.99 167.94 138.88 166.12 138.71 164.31 C 141.58 161.45 145.29 160.60 149.24 161.75 C 154.80 163.40 155.08 170.77 162.88 166.07 C 165.91 164.69 170.76 163.18 168.44 158.96 L 168.22 158.14 C 166.80 153.53 166.09 148.77 165.84 143.97 L 166.70 143.67 C 171.53 143.77 176.38 143.95 181.23 143.88 C 181.85 143.85 183.08 143.81 183.70 143.79 Z" />
</g>
<g id="#28020c39">
<path fill="#28020c" opacity="0.22" d=" M 166.70 143.67 C 171.38 141.99 176.45 143.47 181.23 143.88 C 176.38 143.95 171.53 143.77 166.70 143.67 Z" />
</g>
<g id="#4d081b5a">
<path fill="#4d081b" opacity="0.35" d=" M 168.22 158.14 C 162.81 155.81 164.53 147.53 165.84 143.97 C 166.09 148.77 166.80 153.53 168.22 158.14 Z" />
</g>
<g id="#48061755">
<path fill="#480617" opacity="0.33" d=" M 212.22 157.35 C 213.04 153.26 219.86 142.68 222.44 149.46 C 216.88 147.55 216.68 155.74 212.22 157.35 Z" />
</g>
<g id="#7c263d7c">
<path fill="#7c263d" opacity="0.49" d=" M 18.05 153.45 C 21.72 152.05 27.00 147.44 30.33 151.70 C 42.31 169.63 53.23 188.05 64.92 206.16 C 65.98 211.10 69.86 214.83 72.73 218.86 C 78.68 223.97 79.97 233.06 86.58 237.26 C 86.53 238.48 86.54 239.71 86.82 240.90 C 87.31 245.22 89.85 249.06 92.91 252.04 C 95.17 257.16 98.18 261.99 101.87 266.20 C 103.80 268.36 108.90 273.33 104.26 275.12 C 99.97 275.80 96.37 278.48 94.02 282.03 C 89.58 284.16 84.71 285.75 81.02 289.13 C 79.99 290.19 79.35 291.55 79.01 292.98 L 78.72 293.93 C 73.37 293.97 68.02 294.10 62.67 293.95 C 70.87 283.31 86.66 280.65 95.06 270.04 C 85.51 254.39 75.26 239.15 65.26 223.77 C 61.15 216.76 54.73 211.31 50.96 204.12 C 45.56 188.89 33.96 176.14 25.86 162.19 C 16.58 165.99 8.40 171.92 0.00 177.29 L 0.00 169.21 C 2.33 167.46 4.69 165.75 6.97 163.95 C 10.50 161.85 14.25 159.97 17.23 157.08 C 18.82 156.30 18.55 154.85 18.05 153.45 Z" />
</g>
<g id="#59333d5b">
<path fill="#59333d" opacity="0.36" d=" M 135.06 150.74 C 137.38 152.64 136.54 155.65 136.58 158.37 C 135.74 155.90 135.14 153.35 135.06 150.74 Z" />
</g>
<g id="#4b071a56">
<path fill="#4b071a" opacity="0.34" d=" M 6.97 163.95 C 9.69 160.79 12.96 157.75 17.23 157.08 C 14.25 159.97 10.50 161.85 6.97 163.95 Z" />
</g>
<g id="#460e1d4f">
<path fill="#460e1d" opacity="0.31" d=" M 136.83 159.25 C 140.80 160.50 146.36 158.55 149.24 161.75 C 145.29 160.60 141.58 161.45 138.71 164.31 C 137.96 162.67 137.27 161.00 136.83 159.25 Z" />
</g>
<g id="#48071956">
<path fill="#480719" opacity="0.34" d=" M 168.44 158.96 C 170.76 163.18 165.91 164.69 162.88 166.07 C 163.55 162.66 168.24 162.58 168.44 158.96 Z" />
</g>
<g id="#44071751">
<path fill="#440717" opacity="0.32" d=" M 235.83 160.01 C 239.32 160.84 246.56 163.84 242.34 168.07 C 242.06 164.20 237.83 162.89 235.83 160.01 Z" />
</g>
<g id="#7e49577e">
<path fill="#7e4957" opacity="0.49" d=" M 0.00 177.29 C 8.40 171.92 16.58 165.99 25.86 162.19 C 33.96 176.14 45.56 188.89 50.96 204.12 C 37.10 192.48 18.18 184.80 0.00 187.05 L 0.00 177.29 Z" />
</g>
<g id="#4c071a58">
<path fill="#4c071a" opacity="0.35" d=" M 0.00 167.18 C 2.14 165.74 4.38 164.35 6.97 163.95 C 4.69 165.75 2.33 167.46 0.00 169.21 L 0.00 167.18 Z" />
</g>
<g id="#7e48577e">
<path fill="#7e4857" opacity="0.49" d=" M 167.95 171.92 C 186.76 161.15 213.01 166.77 225.88 184.14 C 241.31 203.41 236.64 235.26 215.70 248.71 C 194.46 265.02 159.16 255.96 149.03 230.99 C 147.67 222.01 137.30 229.35 131.76 226.71 C 137.84 225.54 143.90 224.21 149.93 222.79 C 147.26 204.93 141.20 187.70 139.13 169.77 C 144.30 177.62 142.87 187.76 146.21 196.34 C 151.72 186.85 157.41 176.80 167.95 171.92 M 181.87 182.93 C 178.16 182.45 174.24 184.04 172.44 187.42 C 168.85 187.39 164.42 189.96 164.98 194.02 C 161.69 196.73 160.00 202.05 160.23 206.31 L 159.89 207.13 L 158.96 206.96 C 160.42 214.40 157.99 225.95 165.76 230.19 C 166.12 231.69 167.30 232.77 168.75 233.22 C 169.82 236.27 172.93 238.95 176.28 238.84 C 177.26 240.93 181.74 241.69 184.35 241.98 C 189.96 246.58 204.03 241.24 208.74 235.67 C 210.55 233.51 212.17 231.19 213.70 228.82 C 216.24 228.01 218.73 225.72 217.81 222.82 L 217.96 222.03 C 221.58 216.49 222.10 204.71 217.79 200.34 C 217.55 200.06 217.07 199.50 216.83 199.22 C 217.64 196.71 216.10 194.82 213.79 194.06 C 213.60 193.79 213.21 193.25 213.02 192.98 C 212.40 190.41 210.29 187.93 207.72 187.36 C 202.57 179.61 189.30 179.83 181.87 182.93 Z" />
</g>
<g id="#70515971">
<path fill="#705159" opacity="0.44" d=" M 129.33 172.37 C 134.33 171.04 132.26 180.42 133.98 183.82 C 113.33 189.66 91.76 193.16 70.66 197.65 C 68.33 198.15 64.86 200.48 63.19 197.72 C 63.80 194.44 59.06 187.30 64.07 186.06 C 85.85 181.57 107.53 176.72 129.33 172.37 Z" />
</g>
<g id="#4107164f">
<path fill="#410716" opacity="0.31" d=" M 235.77 185.16 C 233.85 182.38 230.83 177.22 235.63 175.67 C 235.54 178.83 235.60 182.00 235.77 185.16 Z" />
</g>
<g id="#5911245d">
<path fill="#591124" opacity="0.36" d=" M 181.87 182.93 C 189.30 179.83 202.57 179.61 207.72 187.36 C 205.08 187.11 203.04 185.55 201.07 183.92 C 194.92 182.28 188.26 183.22 181.87 182.93 Z" />
</g>
<g id="#22030c33">
<path fill="#22030c" opacity="0.20" d=" M 172.44 187.42 C 174.24 184.04 178.16 182.45 181.87 182.93 C 188.26 183.22 194.92 182.28 201.07 183.92 C 191.21 184.41 180.30 181.39 172.19 188.30 L 172.44 187.42 Z" />
</g>
<g id="#77626777">
<path fill="#776267" opacity="0.47" d=" M 0.00 187.05 C 18.18 184.80 37.10 192.48 50.96 204.12 C 54.73 211.31 61.15 216.76 65.26 223.77 C 73.52 245.65 71.61 271.44 57.48 290.46 C 55.40 293.71 60.52 293.96 62.67 293.95 C 68.02 294.10 73.37 293.97 78.72 293.93 C 83.82 293.98 88.92 293.93 94.01 293.92 C 98.16 295.76 102.66 295.76 107.09 295.96 C 114.20 297.05 121.08 299.16 127.94 301.25 C 129.52 302.94 131.75 303.60 133.98 302.87 C 134.46 305.25 136.95 305.55 138.92 304.92 C 141.65 306.94 144.71 308.45 148.11 308.84 C 148.46 308.92 149.14 309.10 149.48 309.19 C 163.89 316.94 178.25 325.26 189.96 336.91 C 206.18 353.90 222.35 372.18 230.42 394.63 C 231.42 397.11 233.15 399.18 234.91 401.16 C 239.12 415.10 241.95 429.30 244.03 443.71 C 245.31 456.18 245.34 468.75 244.32 481.25 C 244.20 481.89 243.96 483.17 243.84 483.80 C 242.71 487.16 241.91 490.66 242.22 494.22 C 242.13 494.61 241.96 495.39 241.87 495.78 C 240.18 497.94 239.87 500.60 240.19 503.26 C 239.74 504.43 239.27 505.59 238.83 506.77 C 237.39 509.97 236.31 513.32 235.69 516.77 C 229.68 532.57 221.28 547.34 212.94 562.01 C 201.20 580.65 189.24 599.68 182.52 620.79 C 181.70 621.88 180.86 622.96 180.21 624.17 C 179.74 625.03 179.29 625.91 178.86 626.81 C 177.24 629.31 176.35 632.18 176.01 635.13 C 171.64 644.27 168.72 654.04 165.75 663.70 C 163.54 667.81 163.43 672.62 163.05 677.17 C 162.63 678.69 162.18 680.21 161.86 681.78 C 159.48 688.25 161.47 695.54 158.78 701.86 C 146.94 702.11 135.07 702.21 123.23 701.82 C 123.10 701.34 122.85 700.39 122.72 699.91 C 128.69 678.31 131.54 655.94 137.16 634.24 C 138.65 632.27 139.22 630.01 138.09 627.72 C 144.17 600.63 149.28 573.38 155.18 546.27 C 156.79 543.72 156.67 540.67 156.72 537.77 C 157.86 530.84 159.85 524.08 161.07 517.17 C 162.34 514.43 164.36 512.23 167.09 510.90 C 169.88 508.52 173.88 506.27 174.27 502.24 C 174.73 499.39 175.56 496.45 174.33 493.72 C 171.39 484.18 156.92 479.83 151.00 489.03 C 143.57 491.74 138.22 482.20 131.08 481.97 C 126.18 484.90 123.27 490.46 119.01 494.12 C 114.06 491.02 110.52 484.17 105.21 490.08 C 102.06 484.05 99.16 477.89 95.72 472.02 C 92.49 472.66 90.74 476.14 88.24 478.12 C 85.56 480.13 83.00 482.36 80.95 485.04 C 79.45 486.81 77.85 488.52 76.10 490.06 C 72.25 458.09 80.11 425.98 76.20 393.97 C 77.94 361.00 75.96 327.86 73.75 295.10 C 62.39 295.55 51.13 294.32 40.31 298.14 C 40.51 290.45 32.31 291.32 28.01 295.21 C 28.01 297.85 30.83 299.31 32.97 300.19 C 28.05 301.44 22.79 301.74 18.20 304.08 C 17.26 288.12 11.75 272.84 9.94 257.11 C 13.95 248.09 19.98 240.10 27.93 233.98 C 30.17 232.64 33.85 228.87 30.37 226.87 C 25.81 221.84 22.27 230.36 18.73 232.73 C 13.44 238.51 8.13 244.70 0.00 245.93 L 0.00 199.17 C 10.54 202.60 8.91 186.92 0.00 189.78 L 0.00 187.05 M 24.19 197.06 C 16.81 203.49 31.09 213.39 33.63 203.66 C 37.93 195.65 28.27 196.61 24.19 197.06 M 49.31 216.20 C 42.32 219.13 48.39 231.99 54.68 226.66 C 61.04 224.02 55.30 213.43 49.31 216.20 M 62.30 245.28 C 54.36 242.30 50.12 258.88 58.99 257.05 C 66.89 260.76 68.67 245.40 62.30 245.28 M 53.21 272.12 C 51.22 274.27 49.39 276.98 49.03 279.92 C 51.12 283.46 57.26 287.48 60.06 282.05 C 65.20 277.54 57.92 272.36 53.21 272.12 Z" />
</g>
<g id="#2d030e3c">
<path fill="#2d030e" opacity="0.24" d=" M 237.87 188.22 C 243.34 185.10 249.74 187.19 255.66 186.16 C 260.51 189.01 256.71 195.76 257.85 200.14 C 256.54 195.87 256.84 191.20 254.62 187.22 C 249.40 187.51 242.40 193.67 237.87 188.22 Z" />
</g>
<g id="#62213364">
<path fill="#622133" opacity="0.39" d=" M 164.98 194.02 C 164.42 189.96 168.85 187.39 172.44 187.42 L 172.19 188.30 C 169.96 189.99 167.76 191.71 165.79 193.71 L 164.98 194.02 Z" />
</g>
<g id="#4a0f1f4f">
<path fill="#4a0f1f" opacity="0.31" d=" M 207.72 187.36 C 210.29 187.93 212.40 190.41 213.02 192.98 C 211.14 191.20 209.32 189.37 207.72 187.36 Z" />
</g>
<g id="#6a132a74">
<path fill="#6a132a" opacity="0.45" d=" M 0.00 189.78 C 8.91 186.92 10.54 202.60 0.00 199.17 L 0.00 189.78 Z" />
</g>
<g id="#79273d79">
<path fill="#79273d" opacity="0.47" d=" M 126.18 194.61 C 128.91 193.32 132.18 192.07 135.14 193.68 C 136.90 197.47 138.02 203.29 132.71 204.73 C 128.03 205.29 126.85 199.57 126.46 195.97 C 126.39 195.63 126.25 194.95 126.18 194.61 Z" />
</g>
<g id="#754b5675">
<path fill="#754b56" opacity="0.46" d=" M 135.14 193.68 C 144.44 197.05 134.52 210.90 127.67 204.33 C 124.40 201.19 123.01 206.02 121.13 208.14 C 116.53 207.30 111.64 204.39 112.81 198.95 C 115.03 195.63 119.33 195.73 122.90 195.99 C 121.35 200.20 126.49 200.48 126.46 195.97 C 126.85 199.57 128.03 205.29 132.71 204.73 C 138.02 203.29 136.90 197.47 135.14 193.68 Z" />
</g>
<g id="#4a102050">
<path fill="#4a1020" opacity="0.31" d=" M 160.23 206.31 C 160.00 202.05 161.69 196.73 164.98 194.02 L 165.79 193.71 C 164.01 197.94 162.30 202.21 160.23 206.31 Z" />
</g>
<g id="#41091849">
<path fill="#410918" opacity="0.29" d=" M 213.79 194.06 C 216.10 194.82 217.64 196.71 216.83 199.22 C 215.38 197.78 214.55 195.91 213.79 194.06 Z" />
</g>
<g id="#160f1116">
<path fill="#160f11" opacity="0.09" d=" M 122.90 195.99 C 124.00 195.55 125.10 195.09 126.18 194.61 C 126.25 194.95 126.39 195.63 126.46 195.97 C 126.49 200.48 121.35 200.20 122.90 195.99 Z" />
</g>
<g id="#43182447">
<path fill="#431824" opacity="0.28" d=" M 362.86 199.88 C 364.08 193.59 375.42 194.43 377.93 195.92 C 372.38 194.80 367.36 196.94 362.86 199.88 Z" />
</g>
<g id="#691c3171">
<path fill="#691c31" opacity="0.44" d=" M 24.19 197.06 C 28.27 196.61 37.93 195.65 33.63 203.66 C 31.09 213.39 16.81 203.49 24.19 197.06 Z" />
</g>
<g id="#78636978">
<path fill="#786369" opacity="0.47" d=" M 100.28 200.28 C 103.57 195.91 109.99 203.26 112.81 198.95 C 111.64 204.39 116.53 207.30 121.13 208.14 C 117.65 212.84 112.59 202.86 110.46 208.40 C 108.46 212.95 103.06 210.44 99.22 210.08 C 98.50 208.12 97.74 206.17 97.17 204.17 C 98.21 202.87 99.19 201.53 100.28 200.28 Z" />
</g>
<g id="#4b102051">
<path fill="#4b1020" opacity="0.32" d=" M 217.79 200.34 C 222.10 204.71 221.58 216.49 217.96 222.03 C 219.37 214.86 219.00 207.50 217.79 200.34 Z" />
</g>
<g id="#3c111c41">
<path fill="#3c111c" opacity="0.25" d=" M 383.15 199.89 C 386.57 203.30 387.82 213.05 383.11 215.04 C 384.35 210.07 383.95 204.89 383.15 199.89 Z" />
</g>
<g id="#704e5770">
<path fill="#704e57" opacity="0.44" d=" M 91.40 201.40 C 95.70 197.96 96.19 201.96 97.17 204.17 C 97.74 206.17 98.50 208.12 99.22 210.08 C 98.96 211.47 99.02 213.28 97.12 213.22 C 89.02 215.11 80.34 215.13 72.73 218.86 C 69.86 214.83 65.98 211.10 64.92 206.16 C 73.87 205.41 82.43 202.18 91.40 201.40 Z" />
</g>
<g id="#37041247">
<path fill="#370412" opacity="0.28" d=" M 258.05 200.89 C 260.01 206.76 263.30 214.48 258.76 219.89 C 253.48 220.02 248.20 220.05 242.93 219.98 C 248.63 218.84 254.45 217.89 259.87 215.47 C 259.37 210.58 257.93 205.84 258.05 200.89 Z" />
</g>
<g id="#3d0c1a42">
<path fill="#3d0c1a" opacity="0.26" d=" M 361.09 212.72 C 359.33 214.44 359.14 204.14 360.99 203.98 C 361.00 206.90 361.01 209.79 361.09 212.72 Z" />
</g>
<g id="#4c122252">
<path fill="#4c1222" opacity="0.32" d=" M 158.96 206.96 L 159.89 207.13 C 160.37 215.11 162.01 223.06 165.76 230.19 C 157.99 225.95 160.42 214.40 158.96 206.96 Z" />
</g>
<g id="#2e061036">
<path fill="#2e0610" opacity="0.21" d=" M 362.89 215.07 C 366.47 217.66 370.36 220.33 374.98 220.19 C 372.64 222.66 363.45 219.91 362.89 215.07 Z" />
</g>
<g id="#66182d6f">
<path fill="#66182d" opacity="0.44" d=" M 49.31 216.20 C 55.30 213.43 61.04 224.02 54.68 226.66 C 48.39 231.99 42.32 219.13 49.31 216.20 Z" />
</g>
<g id="#4e0f2053">
<path fill="#4e0f20" opacity="0.33" d=" M 213.70 228.82 C 214.94 226.73 216.43 224.81 217.81 222.82 C 218.73 225.72 216.24 228.01 213.70 228.82 Z" />
</g>
<g id="#7d4a587d">
<path fill="#7d4a58" opacity="0.49" d=" M 65.26 223.77 C 75.26 239.15 85.51 254.39 95.06 270.04 C 86.66 280.65 70.87 283.31 62.67 293.95 C 60.52 293.96 55.40 293.71 57.48 290.46 C 71.61 271.44 73.52 245.65 65.26 223.77 Z" />
</g>
<g id="#0902041a">
<path fill="#090204" opacity="0.10" d=" M 18.73 232.73 C 22.27 230.36 25.81 221.84 30.37 226.87 C 29.98 229.37 29.05 231.73 27.93 233.98 C 19.98 240.10 13.95 248.09 9.94 257.11 C 8.10 257.98 6.17 258.70 4.17 259.11 C 2.87 257.82 1.43 256.70 0.00 255.58 L 0.00 245.93 C 8.13 244.70 13.44 238.51 18.73 232.73 Z" />
</g>
<g id="#4b202c4d">
<path fill="#4b202c" opacity="0.30" d=" M 30.37 226.87 C 33.85 228.87 30.17 232.64 27.93 233.98 C 29.05 231.73 29.98 229.37 30.37 226.87 Z" />
</g>
<g id="#52263353">
<path fill="#522633" opacity="0.33" d=" M 110.71 231.76 C 113.77 230.62 116.99 229.91 120.27 230.21 C 117.21 231.36 114.00 232.13 110.71 231.76 Z" />
</g>
<g id="#47071854">
<path fill="#470718" opacity="0.33" d=" M 121.99 230.78 C 123.54 237.89 132.35 234.68 137.40 234.18 C 144.45 230.54 149.23 244.32 144.02 248.00 C 146.35 242.94 143.94 234.44 136.97 236.10 C 131.77 234.55 119.67 239.97 121.99 230.78 Z" />
</g>
<g id="#4a1b294c">
<path fill="#4a1b29" opacity="0.30" d=" M 88.65 236.86 C 94.25 234.67 100.19 233.28 106.23 233.19 C 100.69 235.57 94.66 236.70 88.65 236.86 Z" />
</g>
<g id="#4f132354">
<path fill="#4f1323" opacity="0.33" d=" M 168.75 233.22 C 171.65 234.50 174.54 236.08 176.28 238.84 C 172.93 238.95 169.82 236.27 168.75 233.22 Z" />
</g>
<g id="#4a071955">
<path fill="#4a0719" opacity="0.33" d=" M 243.77 234.26 C 247.06 235.95 250.40 237.64 253.61 239.51 C 255.22 243.04 251.53 246.20 248.87 248.00 C 250.14 245.59 251.80 243.41 253.06 241.00 C 250.01 238.68 246.73 236.68 243.77 234.26 Z" />
<path fill="#4a0719" opacity="0.33" d=" M 244.07 255.07 C 245.61 252.67 247.21 250.32 248.87 248.00 C 247.34 250.41 245.74 252.77 244.07 255.07 Z" />
<path fill="#4a0719" opacity="0.33" d=" M 319.93 572.95 C 322.10 570.41 324.45 568.03 326.99 565.87 C 327.56 570.06 322.55 570.92 319.93 572.95 Z" />
</g>
<g id="#5a1c2c5d">
<path fill="#5a1c2c" opacity="0.36" d=" M 184.35 241.98 C 193.61 243.96 200.61 237.54 208.74 235.67 C 204.03 241.24 189.96 246.58 184.35 241.98 Z" />
</g>
<g id="#5914275d">
<path fill="#591427" opacity="0.36" d=" M 176.28 238.84 C 179.49 238.97 183.42 238.09 184.35 241.98 C 181.74 241.69 177.26 240.93 176.28 238.84 Z" />
</g>
<g id="#3f06154b">
<path fill="#3f0615" opacity="0.29" d=" M 86.82 240.90 C 89.54 244.20 91.42 248.06 92.91 252.04 C 89.85 249.06 87.31 245.22 86.82 240.90 Z" />
</g>
<g id="#661c306d">
<path fill="#661c30" opacity="0.43" d=" M 62.30 245.28 C 68.67 245.40 66.89 260.76 58.99 257.05 C 50.12 258.88 54.36 242.30 62.30 245.28 Z" />
</g>
<g id="#47061851">
<path fill="#470618" opacity="0.32" d=" M 141.10 262.01 C 133.78 260.49 136.18 252.54 142.03 249.92 C 140.53 254.26 135.45 258.41 141.10 262.01 Z" />
</g>
<g id="#4b081a55">
<path fill="#4b081a" opacity="0.33" d=" M 92.91 252.04 C 96.97 255.95 100.06 260.87 101.87 266.20 C 98.18 261.99 95.17 257.16 92.91 252.04 Z" />
</g>
<g id="#48071852">
<path fill="#480718" opacity="0.32" d=" M 214.04 277.88 C 211.90 269.54 208.97 257.03 220.23 255.09 C 217.92 257.26 215.32 259.07 212.95 261.15 C 212.68 267.09 216.69 273.56 214.28 279.17 C 203.67 277.24 194.96 284.22 184.26 281.89 C 182.40 276.94 183.28 271.10 180.56 266.55 C 177.96 265.46 175.29 264.29 173.81 261.74 C 184.76 260.76 183.11 274.28 186.17 280.94 C 195.69 281.05 204.07 275.58 214.04 277.88 Z" />
</g>
<g id="#76606676">
<path fill="#766066" opacity="0.46" d=" M 0.00 255.58 C 1.43 256.70 2.87 257.82 4.17 259.11 C 7.83 273.19 9.68 287.71 13.00 301.82 C 7.56 301.53 -0.08 304.54 6.12 310.18 C 4.11 310.98 2.07 311.72 0.00 312.37 L 0.00 255.58 Z" />
</g>
<g id="#6b24386e">
<path fill="#6b2438" opacity="0.43" d=" M 4.17 259.11 C 6.17 258.70 8.10 257.98 9.94 257.11 C 11.75 272.84 17.26 288.12 18.20 304.08 C 14.30 306.34 10.35 308.58 6.12 310.18 C -0.08 304.54 7.56 301.53 13.00 301.82 C 9.68 287.71 7.83 273.19 4.17 259.11 Z" />
</g>
<g id="#46061852">
<path fill="#460618" opacity="0.32" d=" M 224.83 257.00 C 227.95 259.99 234.31 260.32 235.24 265.04 C 231.07 263.87 226.62 261.13 224.83 257.00 Z" />
</g>
<g id="#4c081a55">
<path fill="#4c081a" opacity="0.33" d=" M 164.08 271.28 C 166.00 267.61 167.46 259.32 172.98 261.54 C 168.40 263.10 167.80 268.72 164.08 271.28 Z" />
</g>
<g id="#641b2f6c">
<path fill="#641b2f" opacity="0.42" d=" M 53.21 272.12 C 57.92 272.36 65.20 277.54 60.06 282.05 C 57.26 287.48 51.12 283.46 49.03 279.92 C 49.39 276.98 51.22 274.27 53.21 272.12 Z" />
</g>
<g id="#4c081a56">
<path fill="#4c081a" opacity="0.34" d=" M 94.02 282.03 C 96.37 278.48 99.97 275.80 104.26 275.12 C 101.55 278.35 97.69 280.15 94.02 282.03 Z" />
</g>
<g id="#4b091b55">
<path fill="#4b091b" opacity="0.33" d=" M 81.02 289.13 C 84.71 285.75 89.58 284.16 94.02 282.03 C 90.80 285.77 86.04 288.97 81.02 289.13 Z" />
</g>
<g id="#681e326f">
<path fill="#681e32" opacity="0.44" d=" M 28.01 295.21 C 32.31 291.32 40.51 290.45 40.31 298.14 C 37.86 298.81 35.43 299.54 32.97 300.19 C 30.83 299.31 28.01 297.85 28.01 295.21 Z" />
</g>
<g id="#320c163e">
<path fill="#320c16" opacity="0.24" d=" M 79.01 292.98 C 84.03 292.89 89.05 293.13 94.01 293.92 C 88.92 293.93 83.82 293.98 78.72 293.93 L 79.01 292.98 Z" />
</g>
<g id="#43182446">
<path fill="#431824" opacity="0.27" d=" M 94.01 293.92 C 98.42 294.24 102.89 294.39 107.09 295.96 C 102.66 295.76 98.16 295.76 94.01 293.92 Z" />
</g>
<g id="#7d78797d">
<path fill="#7d7879" opacity="0.49" d=" M 40.31 298.14 C 51.13 294.32 62.39 295.55 73.75 295.10 C 75.96 327.86 77.94 361.00 76.20 393.97 C 80.11 425.98 72.25 458.09 76.10 490.06 C 72.82 492.60 70.81 498.25 66.09 498.05 C 58.40 492.44 52.06 484.95 43.90 480.02 C 38.80 482.92 34.21 488.73 30.80 493.99 C 28.45 493.93 26.12 493.64 23.82 493.22 C 22.28 492.00 20.69 490.84 19.06 489.75 C 17.63 487.80 15.38 487.81 13.91 489.72 C 12.24 490.52 10.61 491.41 8.93 492.17 C 5.59 490.64 2.90 488.02 0.00 485.85 L 0.00 312.37 C 2.07 311.72 4.11 310.98 6.12 310.18 C 10.35 308.58 14.30 306.34 18.20 304.08 C 22.79 301.74 28.05 301.44 32.97 300.19 C 35.43 299.54 37.86 298.81 40.31 298.14 Z" />
</g>
<g id="#4c19284d">
<path fill="#4c1928" opacity="0.30" d=" M 127.94 301.25 C 130.14 300.61 132.27 301.51 133.98 302.87 C 131.75 303.60 129.52 302.94 127.94 301.25 Z" />
</g>
<g id="#50243153">
<path fill="#502431" opacity="0.33" d=" M 133.98 302.87 C 135.92 302.59 137.71 303.41 138.92 304.92 C 136.95 305.55 134.46 305.25 133.98 302.87 Z" />
<path fill="#502431" opacity="0.33" d=" M 19.22 596.76 C 21.81 601.85 21.38 607.73 21.73 613.27 C 19.79 608.00 19.42 602.31 19.22 596.76 Z" />
</g>
<g id="#4f1f2d50">
<path fill="#4f1f2d" opacity="0.31" d=" M 138.92 304.92 C 142.17 305.75 145.21 307.16 148.11 308.84 C 144.71 308.45 141.65 306.94 138.92 304.92 Z" />
</g>
<g id="#3a051348">
<path fill="#3a0513" opacity="0.28" d=" M 216.39 327.34 C 221.40 321.28 226.37 331.78 226.99 336.11 C 224.67 328.48 217.98 328.11 210.98 328.81 C 212.33 328.44 215.04 327.71 216.39 327.34 Z" />
</g>
<g id="#1f020931">
<path fill="#1f0209" opacity="0.19" d=" M 194.68 334.75 C 198.96 330.19 205.44 330.65 210.98 328.81 C 210.95 334.82 202.29 329.97 199.44 333.46 C 198.23 334.94 196.43 334.88 194.68 334.75 Z" />
</g>
<g id="#7f223b7f">
<path fill="#7f223b" opacity="0.50" d=" M 210.98 328.81 C 217.98 328.11 224.67 328.48 226.99 336.11 C 227.27 336.59 227.82 337.53 228.09 338.00 C 228.01 340.09 228.87 342.22 230.96 342.98 C 233.29 347.29 236.03 351.38 238.07 355.84 C 238.63 365.15 249.83 361.36 256.03 361.98 C 261.41 358.75 262.75 365.47 267.20 365.00 C 273.64 366.29 275.92 358.63 280.09 355.22 C 281.48 353.86 282.81 352.43 283.98 350.86 C 284.18 350.61 284.60 350.10 284.81 349.85 C 288.69 346.17 294.31 343.30 295.89 337.87 C 297.88 335.92 300.14 335.98 302.11 337.93 C 312.14 344.92 323.23 350.30 334.15 355.78 C 336.67 356.25 335.86 359.33 336.33 361.19 C 332.75 369.83 330.98 379.04 327.75 387.81 C 327.67 390.58 325.30 395.42 328.87 397.06 C 329.32 397.35 330.22 397.93 330.67 398.22 C 333.93 405.63 341.27 410.19 344.46 417.71 C 357.97 418.38 371.51 417.92 385.04 417.88 C 388.15 429.77 391.27 441.75 396.02 453.10 C 399.02 458.49 394.39 462.74 389.25 463.18 C 386.33 463.38 383.96 465.08 382.12 467.25 C 378.83 470.25 374.94 472.84 370.39 473.33 C 367.56 475.02 362.52 475.89 362.92 480.04 C 362.88 480.47 362.80 481.35 362.76 481.79 C 361.65 488.86 363.12 496.41 360.11 503.12 C 358.34 506.31 359.90 510.23 362.94 511.98 C 364.38 513.17 365.79 514.41 367.15 515.71 C 368.97 517.66 370.99 519.44 373.19 520.97 C 374.11 521.98 375.04 522.97 376.00 523.95 C 379.04 529.60 388.69 530.77 388.26 538.03 C 387.95 538.50 387.33 539.43 387.02 539.90 C 384.96 541.85 383.00 544.18 382.98 547.17 C 382.32 548.40 381.66 549.63 381.01 550.88 C 375.67 557.28 373.02 565.48 367.72 571.86 C 363.56 572.01 359.42 572.08 355.28 571.88 C 355.01 570.81 354.63 569.81 354.11 568.87 C 347.07 566.06 338.26 566.21 332.11 562.51 C 330.18 563.24 328.57 564.57 326.99 565.87 C 324.45 568.03 322.10 570.41 319.93 572.95 C 319.69 573.18 319.23 573.65 319.00 573.89 C 314.22 575.73 309.47 578.32 306.21 582.36 C 305.64 588.97 305.98 595.64 306.70 602.24 C 306.80 603.86 307.02 607.10 307.12 608.72 C 283.03 598.67 258.95 587.90 234.05 580.02 C 227.58 584.44 223.52 591.77 220.77 598.97 C 220.65 599.28 220.41 599.90 220.30 600.21 L 220.01 599.15 C 213.55 594.18 208.64 603.42 205.16 608.26 C 204.88 608.69 204.33 609.53 204.06 609.95 C 200.00 613.88 194.95 617.19 192.28 622.31 C 191.98 622.82 191.39 623.82 191.09 624.32 C 187.46 624.80 184.44 623.78 182.52 620.79 C 189.24 599.68 201.20 580.65 212.94 562.01 C 215.51 559.92 217.40 555.45 221.37 557.55 C 257.94 569.26 300.93 549.16 315.99 513.99 C 333.42 478.58 319.01 431.77 284.69 412.32 C 270.03 402.97 252.04 400.08 234.91 401.16 C 227.57 375.69 210.01 354.63 191.74 336.05 C 192.70 335.57 193.68 335.14 194.68 334.75 C 196.43 334.88 198.23 334.94 199.44 333.46 C 202.29 329.97 210.95 334.82 210.98 328.81 Z" />
</g>
<g id="#47081951">
<path fill="#470819" opacity="0.32" d=" M 295.89 337.87 C 296.82 333.23 301.26 333.26 302.11 337.93 C 300.14 335.98 297.88 335.92 295.89 337.87 Z" />
</g>
<g id="#6f34446f">
<path fill="#6f3444" opacity="0.44" d=" M 189.96 336.91 C 190.40 336.69 191.29 336.26 191.74 336.05 C 210.01 354.63 227.57 375.69 234.91 401.16 C 233.15 399.18 231.42 397.11 230.42 394.63 C 222.35 372.18 206.18 353.90 189.96 336.91 Z" />
</g>
<g id="#3e04134a">
<path fill="#3e0413" opacity="0.29" d=" M 228.09 338.00 C 230.12 338.83 230.96 340.91 230.96 342.98 C 228.87 342.22 228.01 340.09 228.09 338.00 Z" />
</g>
<g id="#51091d5b">
<path fill="#51091d" opacity="0.36" d=" M 284.81 349.85 C 287.41 344.98 292.10 341.73 295.89 337.87 C 294.31 343.30 288.69 346.17 284.81 349.85 Z" />
</g>
<g id="#4b081a56">
<path fill="#4b081a" opacity="0.34" d=" M 302.11 337.93 C 307.67 337.70 311.49 342.41 316.07 344.88 C 323.09 348.19 329.76 352.20 336.78 355.50 C 336.67 356.92 336.44 359.77 336.33 361.19 C 335.86 359.33 336.67 356.25 334.15 355.78 C 323.23 350.30 312.14 344.92 302.11 337.93 Z" />
</g>
<g id="#36031141">
<path fill="#360311" opacity="0.25" d=" M 280.09 355.22 C 279.49 352.53 281.30 350.68 283.98 350.86 C 282.81 352.43 281.48 353.86 280.09 355.22 Z" />
</g>
<g id="#46061755">
<path fill="#460617" opacity="0.33" d=" M 238.07 355.84 C 244.54 367.00 260.66 355.03 267.20 365.00 C 262.75 365.47 261.41 358.75 256.03 361.98 C 249.83 361.36 238.63 365.15 238.07 355.84 Z" />
</g>
<g id="#49091a53">
<path fill="#49091a" opacity="0.33" d=" M 328.87 397.06 C 325.30 395.42 327.67 390.58 327.75 387.81 C 328.02 390.89 328.39 393.98 328.87 397.06 Z" />
</g>
<g id="#39041247">
<path fill="#390412" opacity="0.28" d=" M 330.67 398.22 C 337.04 402.77 341.14 410.24 345.38 416.74 C 358.83 417.98 373.01 415.63 386.08 417.84 L 385.04 417.88 C 371.51 417.92 357.97 418.38 344.46 417.71 C 341.27 410.19 333.93 405.63 330.67 398.22 Z" />
</g>
<g id="#7f48577f">
<path fill="#7f4857" opacity="0.50" d=" M 234.91 401.16 C 252.04 400.08 270.03 402.97 284.69 412.32 C 319.01 431.77 333.42 478.58 315.99 513.99 C 300.93 549.16 257.94 569.26 221.37 557.55 C 217.40 555.45 215.51 559.92 212.94 562.01 C 221.28 547.34 229.68 532.57 235.69 516.77 C 241.43 516.63 247.43 517.75 253.06 516.24 C 255.44 515.37 257.87 514.45 259.97 512.99 C 260.99 511.68 261.95 510.29 263.55 509.65 C 265.85 509.22 267.75 507.95 269.18 506.12 C 269.41 505.88 269.88 505.41 270.11 505.18 C 272.07 503.60 273.38 501.46 274.20 499.10 C 275.33 497.12 276.32 495.05 277.14 492.93 C 277.34 492.46 277.76 491.52 277.96 491.05 C 281.63 480.82 281.45 466.04 271.84 459.02 C 270.24 457.38 268.65 455.73 267.12 454.03 C 264.58 451.05 261.38 448.65 257.88 446.94 C 252.77 447.69 248.75 443.90 244.03 443.71 C 241.95 429.30 239.12 415.10 234.91 401.16 M 240.96 417.01 C 242.85 422.93 241.09 434.42 250.31 433.67 C 275.09 435.75 293.84 460.70 290.98 485.00 C 289.96 510.78 263.57 532.69 238.02 528.05 C 230.64 526.28 227.40 536.04 227.10 541.79 C 244.62 547.44 265.57 543.68 280.62 532.59 C 299.52 519.23 310.37 494.66 306.36 471.68 C 303.15 439.99 272.42 415.41 240.96 417.01 Z" />
</g>
<g id="#7f243c7f">
<path fill="#7f243c" opacity="0.50" d=" M 240.96 417.01 C 272.42 415.41 303.15 439.99 306.36 471.68 C 310.37 494.66 299.52 519.23 280.62 532.59 C 265.57 543.68 244.62 547.44 227.10 541.79 C 227.40 536.04 230.64 526.28 238.02 528.05 C 263.57 532.69 289.96 510.78 290.98 485.00 C 293.84 460.70 275.09 435.75 250.31 433.67 C 241.09 434.42 242.85 422.93 240.96 417.01 Z" />
</g>
<g id="#4a081a54">
<path fill="#4a081a" opacity="0.33" d=" M 385.04 417.88 L 386.08 417.84 C 390.47 429.09 393.51 441.22 396.02 453.10 C 391.27 441.75 388.15 429.77 385.04 417.88 Z" />
</g>
<g id="#4b14234e">
<path fill="#4b1423" opacity="0.31" d=" M 244.03 443.71 C 248.75 443.90 252.77 447.69 257.88 446.94 C 253.93 446.86 249.99 446.91 246.06 447.07 C 245.28 458.40 247.58 470.18 244.32 481.25 C 245.34 468.75 245.31 456.18 244.03 443.71 Z" />
</g>
<g id="#490c1c50">
<path fill="#490c1c" opacity="0.31" d=" M 257.88 446.94 C 261.38 448.65 264.58 451.05 267.12 454.03 C 263.28 453.26 259.69 450.39 257.88 446.94 Z" />
</g>
<g id="#5715275b">
<path fill="#571527" opacity="0.36" d=" M 271.84 459.02 C 281.45 466.04 281.63 480.82 277.96 491.05 C 279.65 480.08 278.70 468.16 271.84 459.02 Z" />
</g>
<g id="#48071953">
<path fill="#480719" opacity="0.33" d=" M 382.12 467.25 C 383.96 465.08 386.33 463.38 389.25 463.18 C 387.38 465.37 385.20 467.36 382.12 467.25 Z" />
</g>
<g id="#06020312">
<path fill="#060203" opacity="0.07" d=" M 88.24 478.12 C 90.74 476.14 92.49 472.66 95.72 472.02 C 99.16 477.89 102.06 484.05 105.21 490.08 C 110.52 484.17 114.06 491.02 119.01 494.12 C 123.27 490.46 126.18 484.90 131.08 481.97 C 138.22 482.20 143.57 491.74 151.00 489.03 C 151.36 491.42 150.15 495.86 146.99 494.13 C 145.69 493.66 144.38 493.24 143.06 492.85 C 139.76 492.01 136.63 490.44 133.23 490.05 C 128.45 494.81 125.21 500.85 120.69 505.83 C 116.66 507.03 115.23 499.94 111.16 501.04 C 107.93 502.07 108.80 509.52 104.24 507.88 C 99.28 502.37 97.16 495.09 92.68 489.27 C 92.04 489.72 91.43 490.20 90.84 490.71 C 85.65 494.52 80.95 499.01 76.97 504.08 C 75.95 505.20 74.97 506.37 74.05 507.59 C 72.09 509.48 70.17 511.44 68.03 513.15 C 58.80 507.44 52.85 497.32 43.23 492.16 C 40.87 494.42 38.64 496.84 36.26 499.10 C 34.20 500.42 32.40 502.09 30.74 503.89 C 30.07 503.91 28.72 503.97 28.05 504.00 C 27.45 502.27 26.00 501.00 24.13 500.91 C 21.98 499.39 19.90 497.76 18.00 495.93 C 16.15 493.77 12.60 493.65 10.79 495.66 L 10.02 495.96 C 8.63 496.30 7.56 497.24 6.54 498.18 C 2.26 496.16 5.48 492.52 8.93 492.17 C 10.61 491.41 12.24 490.52 13.91 489.72 C 15.60 490.15 17.36 490.16 19.06 489.75 C 20.69 490.84 22.28 492.00 23.82 493.22 C 25.62 495.00 29.73 497.92 30.80 493.99 C 34.21 488.73 38.80 482.92 43.90 480.02 C 52.06 484.95 58.40 492.44 66.09 498.05 C 70.81 498.25 72.82 492.60 76.10 490.06 C 77.85 488.52 79.45 486.81 80.95 485.04 C 83.97 483.49 86.86 481.31 88.24 478.12 Z" />
</g>
<g id="#4b091b56">
<path fill="#4b091b" opacity="0.34" d=" M 362.92 480.04 C 362.52 475.89 367.56 475.02 370.39 473.33 C 369.93 477.37 364.95 477.09 362.92 480.04 Z" />
</g>
<g id="#3d0f1b40">
<path fill="#3d0f1b" opacity="0.25" d=" M 80.95 485.04 C 83.00 482.36 85.56 480.13 88.24 478.12 C 86.86 481.31 83.97 483.49 80.95 485.04 Z" />
</g>
<g id="#540b1f5e">
<path fill="#540b1f" opacity="0.37" d=" M 360.11 503.12 C 363.12 496.41 361.65 488.86 362.76 481.79 C 363.72 491.85 361.30 501.98 362.94 511.98 C 359.90 510.23 358.34 506.31 360.11 503.12 Z" />
</g>
<g id="#0c02042c">
<path fill="#0c0204" opacity="0.17" d=" M 151.00 489.03 C 156.92 479.83 171.39 484.18 174.33 493.72 C 174.32 496.54 174.31 499.39 174.27 502.24 C 173.88 506.27 169.88 508.52 167.09 510.90 C 162.97 509.95 160.88 513.51 161.07 517.17 C 159.85 524.08 157.86 530.84 156.72 537.77 C 156.10 540.55 155.45 543.41 155.18 546.27 C 149.28 573.38 144.17 600.63 138.09 627.72 C 137.86 629.35 137.39 632.61 137.16 634.24 C 131.54 655.94 128.69 678.31 122.72 699.91 C 122.42 700.25 121.81 700.92 121.51 701.26 C 119.91 701.20 116.73 701.09 115.14 701.03 C 116.78 684.90 121.31 669.22 124.16 653.28 C 125.78 651.06 126.14 648.39 125.81 645.71 C 128.25 634.51 130.14 623.18 132.96 612.07 C 134.09 609.04 134.99 605.96 134.76 602.72 C 139.51 579.90 143.95 556.99 149.26 534.30 C 150.67 531.69 150.70 528.66 150.88 525.78 C 151.85 520.61 152.65 515.39 152.93 510.14 C 150.96 507.13 147.76 504.81 146.76 501.24 C 146.82 499.46 146.93 495.91 146.99 494.13 C 150.15 495.86 151.36 491.42 151.00 489.03 Z" />
</g>
<g id="#431c274b">
<path fill="#431c27" opacity="0.29" d=" M 242.22 494.22 C 241.91 490.66 242.71 487.16 243.84 483.80 C 243.68 487.33 243.80 490.97 242.22 494.22 Z" />
</g>
<g id="#0802031c">
<path fill="#080203" opacity="0.11" d=" M 0.00 485.85 C 2.90 488.02 5.59 490.64 8.93 492.17 C 5.48 492.52 2.26 496.16 6.54 498.18 C 6.82 499.84 7.04 501.51 7.21 503.19 C 5.94 506.32 2.41 508.02 1.14 511.10 C 1.73 517.45 3.41 523.69 4.99 529.86 C 5.30 533.00 5.63 536.24 6.61 539.29 C 7.17 542.84 8.47 546.21 9.30 549.70 C 8.59 556.01 11.26 562.04 13.10 567.93 C 13.78 573.27 12.90 579.22 15.95 583.99 C 16.28 586.76 16.48 589.69 17.65 592.31 C 18.14 593.80 18.68 595.27 19.22 596.76 C 19.42 602.31 19.79 608.00 21.73 613.27 C 22.48 615.79 23.54 618.22 24.19 620.78 C 24.28 626.35 25.24 631.88 26.79 637.24 C 27.11 638.46 27.53 639.66 27.97 640.86 C 27.92 643.46 28.33 646.06 29.77 648.30 C 30.23 650.78 30.79 653.24 31.28 655.72 C 31.29 658.66 30.24 662.22 32.84 664.33 C 33.51 667.52 34.08 670.73 34.97 673.89 C 35.20 679.42 36.16 684.92 37.91 690.18 C 39.04 693.94 39.75 697.77 40.30 701.66 C 38.25 699.88 35.72 700.30 33.36 701.12 C 32.60 699.00 31.90 696.86 31.18 694.74 C 30.82 693.52 30.42 692.33 29.98 691.15 C 29.97 687.28 29.28 683.43 28.24 679.73 C 26.86 675.60 26.23 671.27 24.99 667.12 C 24.75 659.87 23.07 652.75 21.09 645.81 C 20.75 644.61 20.33 643.44 19.93 642.28 C 19.81 640.41 19.96 638.43 18.99 636.76 C 18.61 635.91 18.24 635.05 17.88 634.21 C 18.27 629.21 17.21 624.32 15.15 619.82 C 15.05 619.42 14.84 618.63 14.73 618.23 C 14.69 614.66 14.53 611.10 13.18 607.78 C 12.19 604.99 11.21 602.20 10.72 599.28 C 11.13 589.50 7.40 580.11 5.26 570.72 C 4.86 568.55 4.35 566.41 3.85 564.27 C 3.58 561.43 2.78 558.63 2.03 555.92 C 1.83 554.42 1.44 551.42 1.24 549.91 C 0.93 549.61 0.31 549.00 0.00 548.70 L 0.00 485.85 Z" />
</g>
<g id="#582c3858">
<path fill="#582c38" opacity="0.35" d=" M 13.91 489.72 C 15.38 487.81 17.63 487.80 19.06 489.75 C 17.36 490.16 15.60 490.15 13.91 489.72 Z" />
</g>
<g id="#76616776">
<path fill="#766167" opacity="0.46" d=" M 90.84 490.71 C 91.43 490.20 92.04 489.72 92.68 489.27 C 97.16 495.09 99.28 502.37 104.24 507.88 C 108.80 509.52 107.93 502.07 111.16 501.04 C 115.23 499.94 116.66 507.03 120.69 505.83 C 125.21 500.85 128.45 494.81 133.23 490.05 C 136.63 490.44 139.76 492.01 143.06 492.85 C 145.93 494.75 146.07 498.13 146.76 501.24 C 147.76 504.81 150.96 507.13 152.93 510.14 C 152.65 515.39 151.85 520.61 150.88 525.78 C 149.44 528.40 148.80 531.32 149.26 534.30 C 143.95 556.99 139.51 579.90 134.76 602.72 C 133.58 605.71 133.22 608.84 132.96 612.07 C 130.14 623.18 128.25 634.51 125.81 645.71 C 124.24 647.95 123.87 650.60 124.16 653.28 C 121.31 669.22 116.78 684.90 115.14 701.03 C 114.87 701.29 114.34 701.82 114.08 702.08 C 91.63 701.92 69.18 702.07 46.73 701.93 C 56.71 700.12 66.91 701.41 76.98 700.91 C 73.55 636.52 80.54 571.87 74.05 507.59 C 74.97 506.37 75.95 505.20 76.97 504.08 C 82.39 500.62 87.31 496.12 90.84 490.71 Z" />
</g>
<g id="#43162246">
<path fill="#431622" opacity="0.27" d=" M 76.97 504.08 C 80.95 499.01 85.65 494.52 90.84 490.71 C 87.31 496.12 82.39 500.62 76.97 504.08 Z" />
</g>
<g id="#7c76787c">
<path fill="#7c7678" opacity="0.49" d=" M 43.23 492.16 C 52.85 497.32 58.80 507.44 68.03 513.15 C 70.17 511.44 72.09 509.48 74.05 507.59 C 80.54 571.87 73.55 636.52 76.98 700.91 C 66.91 701.41 56.71 700.12 46.73 701.93 C 46.23 702.01 45.23 702.17 44.73 702.25 C 43.25 702.11 41.75 702.02 40.30 701.66 C 39.75 697.77 39.04 693.94 37.91 690.18 C 38.79 684.49 37.30 678.99 34.97 673.89 C 34.08 670.73 33.51 667.52 32.84 664.33 C 33.15 661.34 32.50 658.43 31.28 655.72 C 30.79 653.24 30.23 650.78 29.77 648.30 C 30.12 645.63 29.97 642.87 27.97 640.86 C 27.53 639.66 27.11 638.46 26.79 637.24 C 27.69 631.52 25.75 626.13 24.19 620.78 C 23.54 618.22 22.48 615.79 21.73 613.27 C 21.38 607.73 21.81 601.85 19.22 596.76 C 18.68 595.27 18.14 593.80 17.65 592.31 C 17.77 589.29 18.15 586.26 15.95 583.99 C 15.47 578.57 15.38 572.96 13.10 567.93 C 12.52 561.74 11.34 555.59 9.30 549.70 C 8.47 546.21 7.17 542.84 6.61 539.29 C 6.98 535.92 7.47 532.43 4.99 529.86 C 3.41 523.69 1.73 517.45 1.14 511.10 C 2.41 508.02 5.94 506.32 7.21 503.19 C 8.12 500.76 8.84 498.27 10.02 495.96 L 10.79 495.66 C 12.59 495.73 16.20 495.86 18.00 495.93 C 19.90 497.76 21.98 499.39 24.13 500.91 C 24.60 502.68 25.98 504.48 28.05 504.00 C 28.72 503.97 30.07 503.91 30.74 503.89 C 33.68 504.24 35.05 501.20 36.26 499.10 C 38.64 496.84 40.87 494.42 43.23 492.16 Z" />
<path fill="#7c7678" opacity="0.49" d=" M 224.03 607.06 C 237.03 603.34 248.80 596.65 261.21 591.49 C 275.15 597.29 289.18 602.92 302.99 609.02 C 307.44 610.62 302.90 615.29 301.79 617.95 C 297.65 624.34 287.63 631.14 290.30 639.64 C 297.57 644.27 303.62 651.16 311.61 654.48 C 319.52 657.09 319.96 642.01 325.35 640.85 C 324.82 642.58 324.38 644.34 324.01 646.13 C 320.59 652.09 319.23 658.96 315.78 664.92 C 314.36 666.22 313.55 668.05 314.06 669.99 C 312.61 672.91 311.44 675.95 310.00 678.88 C 307.70 681.84 306.37 685.40 306.04 689.14 C 305.06 691.39 304.11 693.66 303.03 695.88 C 301.38 698.02 300.01 700.46 300.18 703.27 C 299.47 704.82 298.69 706.35 297.91 707.89 C 296.19 711.27 294.67 714.83 291.70 717.35 C 270.92 722.29 250.78 733.93 230.05 739.73 C 228.08 741.37 226.14 743.67 223.25 742.93 C 219.93 741.30 216.49 739.89 212.90 739.01 C 207.22 736.92 201.75 734.32 196.23 731.86 C 193.12 729.79 189.60 728.36 185.86 728.06 C 182.89 726.81 179.96 725.49 177.11 724.01 C 172.61 722.26 169.24 719.67 170.89 714.10 C 172.36 711.15 173.55 708.07 175.01 705.13 C 177.42 701.39 179.55 697.36 179.98 692.87 C 181.24 689.61 182.52 686.35 184.11 683.23 C 185.58 681.00 186.77 678.56 186.99 675.86 C 187.68 674.28 188.34 672.70 189.03 671.13 C 191.10 668.03 192.88 664.66 192.99 660.87 C 195.48 656.52 196.81 651.65 199.12 647.22 C 201.04 644.07 202.67 640.71 203.13 637.02 C 204.19 633.97 205.58 631.06 207.14 628.23 C 208.89 625.31 210.05 622.08 210.84 618.78 C 211.23 617.88 211.63 616.99 212.04 616.11 C 213.57 613.48 214.82 610.71 215.92 607.89 C 216.13 607.59 216.56 606.99 216.77 606.68 C 219.10 607.69 221.67 608.43 224.03 607.06 Z" />
</g>
<g id="#481e2949">
<path fill="#481e29" opacity="0.29" d=" M 23.82 493.22 C 26.12 493.64 28.45 493.93 30.80 493.99 C 29.73 497.92 25.62 495.00 23.82 493.22 Z" />
</g>
<g id="#52222f52">
<path fill="#52222f" opacity="0.32" d=" M 143.06 492.85 C 144.38 493.24 145.69 493.66 146.99 494.13 C 146.93 495.91 146.82 499.46 146.76 501.24 C 146.07 498.13 145.93 494.75 143.06 492.85 Z" />
</g>
<g id="#4408184d">
<path fill="#440818" opacity="0.30" d=" M 274.20 499.10 C 273.95 496.61 275.05 494.30 277.14 492.93 C 276.32 495.05 275.33 497.12 274.20 499.10 Z" />
</g>
<g id="#531d2d53">
<path fill="#531d2d" opacity="0.33" d=" M 174.33 493.72 C 175.56 496.45 174.73 499.39 174.27 502.24 C 174.31 499.39 174.32 496.54 174.33 493.72 Z" />
</g>
<g id="#491c294b">
<path fill="#491c29" opacity="0.29" d=" M 10.79 495.66 C 12.60 493.65 16.15 493.77 18.00 495.93 C 16.20 495.86 12.59 495.73 10.79 495.66 Z" />
</g>
<g id="#4c212d4d">
<path fill="#4c212d" opacity="0.30" d=" M 6.54 498.18 C 7.56 497.24 8.63 496.30 10.02 495.96 C 8.84 498.27 8.12 500.76 7.21 503.19 C 7.04 501.51 6.82 499.84 6.54 498.18 Z" />
</g>
<g id="#53253153">
<path fill="#532531" opacity="0.33" d=" M 240.19 503.26 C 239.87 500.60 240.18 497.94 241.87 495.78 C 241.95 498.39 241.32 500.92 240.19 503.26 Z" />
</g>
<g id="#4b1f2b4c">
<path fill="#4b1f2b" opacity="0.30" d=" M 30.74 503.89 C 32.40 502.09 34.20 500.42 36.26 499.10 C 35.05 501.20 33.68 504.24 30.74 503.89 Z" />
</g>
<g id="#4409194e">
<path fill="#440919" opacity="0.31" d=" M 270.11 505.18 C 269.95 502.34 271.19 499.61 274.20 499.10 C 273.38 501.46 272.07 503.60 270.11 505.18 Z" />
</g>
<g id="#4d28324e">
<path fill="#4d2832" opacity="0.31" d=" M 24.13 500.91 C 26.00 501.00 27.45 502.27 28.05 504.00 C 25.98 504.48 24.60 502.68 24.13 500.91 Z" />
</g>
<g id="#3e061548">
<path fill="#3e0615" opacity="0.28" d=" M 263.55 509.65 C 264.83 507.60 266.45 505.54 269.18 506.12 C 267.75 507.95 265.85 509.22 263.55 509.65 Z" />
</g>
<g id="#4715234c">
<path fill="#471523" opacity="0.30" d=" M 235.69 516.77 C 236.31 513.32 237.39 509.97 238.83 506.77 C 238.67 509.82 238.37 512.79 238.17 515.85 C 243.12 516.29 248.09 516.06 253.06 516.24 C 247.43 517.75 241.43 516.63 235.69 516.77 Z" />
</g>
<g id="#4f273254">
<path fill="#4f2732" opacity="0.33" d=" M 161.07 517.17 C 160.88 513.51 162.97 509.95 167.09 510.90 C 164.36 512.23 162.34 514.43 161.07 517.17 Z" />
</g>
<g id="#5f162a63">
<path fill="#5f162a" opacity="0.39" d=" M 253.06 516.24 C 252.82 512.28 256.86 513.01 259.97 512.99 C 257.87 514.45 255.44 515.37 253.06 516.24 Z" />
</g>
<g id="#4004144c">
<path fill="#400414" opacity="0.30" d=" M 367.15 515.71 C 370.12 516.10 372.21 518.22 373.19 520.97 C 370.99 519.44 368.97 517.66 367.15 515.71 Z" />
</g>
<g id="#3e04134c">
<path fill="#3e0413" opacity="0.30" d=" M 376.00 523.95 C 380.28 527.89 391.51 530.20 388.26 538.03 C 388.69 530.77 379.04 529.60 376.00 523.95 Z" />
</g>
<g id="#491d2950">
<path fill="#491d29" opacity="0.31" d=" M 149.26 534.30 C 148.80 531.32 149.44 528.40 150.88 525.78 C 150.70 528.66 150.67 531.69 149.26 534.30 Z" />
</g>
<g id="#4f263251">
<path fill="#4f2632" opacity="0.32" d=" M 4.99 529.86 C 7.47 532.43 6.98 535.92 6.61 539.29 C 5.63 536.24 5.30 533.00 4.99 529.86 Z" />
</g>
<g id="#50253153">
<path fill="#502531" opacity="0.33" d=" M 155.18 546.27 C 155.45 543.41 156.10 540.55 156.72 537.77 C 156.67 540.67 156.79 543.72 155.18 546.27 Z" />
</g>
<g id="#44051650">
<path fill="#440516" opacity="0.31" d=" M 382.98 547.17 C 383.00 544.18 384.96 541.85 387.02 539.90 C 386.43 542.71 385.55 545.54 382.98 547.17 Z" />
</g>
<g id="#7d77787d">
<path fill="#7d7778" opacity="0.49" d=" M 0.00 548.70 C 0.31 549.00 0.93 549.61 1.24 549.91 C 1.44 551.42 1.83 554.42 2.03 555.92 C 2.21 558.76 2.31 561.75 3.85 564.27 C 4.35 566.41 4.86 568.55 5.26 570.72 C 5.09 580.47 8.51 589.88 10.72 599.28 C 11.21 602.20 12.19 604.99 13.18 607.78 C 13.31 611.28 13.60 614.87 14.73 618.23 C 14.84 618.63 15.05 619.42 15.15 619.82 C 15.65 624.67 15.78 629.70 17.88 634.21 C 18.24 635.05 18.61 635.91 18.99 636.76 C 17.87 638.81 17.94 640.83 19.93 642.28 C 20.33 643.44 20.75 644.61 21.09 645.81 C 21.44 653.01 22.23 660.40 24.99 667.12 C 26.23 671.27 26.86 675.60 28.24 679.73 C 28.02 683.59 27.10 688.02 29.98 691.15 C 30.42 692.33 30.82 693.52 31.18 694.74 C 31.24 697.15 31.50 699.55 31.72 701.96 C 21.15 702.13 10.57 701.94 0.00 702.00 L 0.00 548.70 Z" />
</g>
<g id="#572b3757">
<path fill="#572b37" opacity="0.34" d=" M 1.24 549.91 C 1.44 551.42 1.83 554.42 2.03 555.92 C 1.83 554.42 1.44 551.42 1.24 549.91 Z" />
</g>
<g id="#552c3757">
<path fill="#552c37" opacity="0.34" d=" M 9.30 549.70 C 11.34 555.59 12.52 561.74 13.10 567.93 C 11.26 562.04 8.59 556.01 9.30 549.70 Z" />
</g>
<g id="#36031045">
<path fill="#360310" opacity="0.27" d=" M 367.72 571.86 C 373.02 565.48 375.67 557.28 381.01 550.88 C 379.85 558.14 374.47 563.73 370.88 569.90 C 368.31 576.65 359.33 572.44 355.28 571.88 C 359.42 572.08 363.56 572.01 367.72 571.86 Z" />
</g>
<g id="#593a435b">
<path fill="#593a43" opacity="0.36" d=" M 2.03 555.92 C 2.78 558.63 3.58 561.43 3.85 564.27 C 2.31 561.75 2.21 558.76 2.03 555.92 Z" />
</g>
<g id="#560b1f61">
<path fill="#560b1f" opacity="0.38" d=" M 332.11 562.51 C 338.26 566.21 347.07 566.06 354.11 568.87 C 344.46 570.18 336.92 563.07 326.99 565.87 C 328.57 564.57 330.18 563.24 332.11 562.51 Z" />
</g>
<g id="#4f232f51">
<path fill="#4f232f" opacity="0.32" d=" M 13.10 567.93 C 15.38 572.96 15.47 578.57 15.95 583.99 C 12.90 579.22 13.78 573.27 13.10 567.93 Z" />
</g>
<g id="#54283556">
<path fill="#542835" opacity="0.34" d=" M 5.26 570.72 C 7.40 580.11 11.13 589.50 10.72 599.28 C 8.51 589.88 5.09 580.47 5.26 570.72 Z" />
<path fill="#542835" opacity="0.34" d=" M 34.97 673.89 C 37.30 678.99 38.79 684.49 37.91 690.18 C 36.16 684.92 35.20 679.42 34.97 673.89 Z" />
</g>
<g id="#4f091c5a">
<path fill="#4f091c" opacity="0.35" d=" M 306.21 582.36 C 309.47 578.32 314.22 575.73 319.00 573.89 C 316.27 578.96 308.09 579.08 307.35 585.31 C 306.74 590.91 306.90 596.59 306.70 602.24 C 305.98 595.64 305.64 588.97 306.21 582.36 Z" />
</g>
<g id="#6d38466e">
<path fill="#6d3846" opacity="0.43" d=" M 234.05 580.02 C 258.95 587.90 283.03 598.67 307.12 608.72 C 311.52 608.60 315.14 610.99 317.88 614.24 C 318.19 614.67 318.82 615.54 319.13 615.97 C 314.06 616.85 312.29 609.48 307.38 610.16 C 306.16 613.19 305.03 616.51 301.79 617.95 C 302.90 615.29 307.44 610.62 302.99 609.02 C 289.18 602.92 275.15 597.29 261.21 591.49 C 258.33 590.20 255.31 589.25 252.23 588.62 C 245.99 585.57 239.31 582.48 232.21 582.99 C 228.37 588.06 225.26 593.61 221.77 598.92 L 220.77 598.97 C 223.52 591.77 227.58 584.44 234.05 580.02 Z" />
</g>
<g id="#70505971">
<path fill="#705059" opacity="0.44" d=" M 232.21 582.99 C 239.31 582.48 245.99 585.57 252.23 588.62 C 241.43 589.16 232.74 598.38 221.77 598.92 C 225.26 593.61 228.37 588.06 232.21 582.99 Z" />
</g>
<g id="#52293455">
<path fill="#522934" opacity="0.33" d=" M 15.95 583.99 C 18.15 586.26 17.77 589.29 17.65 592.31 C 16.48 589.69 16.28 586.76 15.95 583.99 Z" />
</g>
<g id="#76626876">
<path fill="#766268" opacity="0.46" d=" M 221.77 598.92 C 232.74 598.38 241.43 589.16 252.23 588.62 C 255.31 589.25 258.33 590.20 261.21 591.49 C 248.80 596.65 237.03 603.34 224.03 607.06 C 221.67 608.43 219.10 607.69 216.77 606.68 L 217.18 606.04 C 219.09 605.07 219.94 603.04 220.03 600.99 L 220.30 600.21 C 220.41 599.90 220.65 599.28 220.77 598.97 L 221.77 598.92 Z" />
</g>
<g id="#4e091c58">
<path fill="#4e091c" opacity="0.35" d=" M 205.16 608.26 C 208.64 603.42 213.55 594.18 220.01 599.15 C 212.54 597.00 210.99 606.03 205.16 608.26 Z" />
</g>
<g id="#4d242f4f">
<path fill="#4d242f" opacity="0.31" d=" M 217.18 606.04 C 216.98 603.90 217.87 601.71 220.03 600.99 C 219.94 603.04 219.09 605.07 217.18 606.04 Z" />
</g>
<g id="#4a212c50">
<path fill="#4a212c" opacity="0.31" d=" M 132.96 612.07 C 133.22 608.84 133.58 605.71 134.76 602.72 C 134.99 605.96 134.09 609.04 132.96 612.07 Z" />
</g>
<g id="#51293553">
<path fill="#512935" opacity="0.33" d=" M 13.18 607.78 C 14.53 611.10 14.69 614.66 14.73 618.23 C 13.60 614.87 13.31 611.28 13.18 607.78 Z" />
</g>
<g id="#491a274a">
<path fill="#491a27" opacity="0.29" d=" M 212.04 616.11 C 212.57 613.04 213.86 610.24 215.92 607.89 C 214.82 610.71 213.57 613.48 212.04 616.11 Z" />
</g>
<g id="#46071850">
<path fill="#460718" opacity="0.31" d=" M 192.28 622.31 C 194.95 617.19 200.00 613.88 204.06 609.95 C 201.88 615.39 196.52 618.61 192.28 622.31 Z" />
</g>
<g id="#7d4c597d">
<path fill="#7d4c59" opacity="0.49" d=" M 307.38 610.16 C 312.29 609.48 314.06 616.85 319.13 615.97 C 320.80 616.04 322.48 615.99 324.16 615.99 C 326.74 618.15 329.91 619.39 333.20 619.99 C 332.68 624.96 330.37 629.47 329.16 634.27 C 328.41 635.78 327.63 637.27 326.95 638.83 C 326.42 639.50 325.89 640.17 325.35 640.85 C 319.96 642.01 319.52 657.09 311.61 654.48 C 303.62 651.16 297.57 644.27 290.30 639.64 C 287.63 631.14 297.65 624.34 301.79 617.95 C 305.03 616.51 306.16 613.19 307.38 610.16 Z" />
</g>
<g id="#4108174c">
<path fill="#410817" opacity="0.30" d=" M 317.88 614.24 C 320.90 612.21 324.29 610.96 324.16 615.99 C 322.48 615.99 320.80 616.04 319.13 615.97 C 318.82 615.54 318.19 614.67 317.88 614.24 Z" />
</g>
<g id="#44192545">
<path fill="#441925" opacity="0.27" d=" M 207.14 628.23 C 206.86 624.65 208.75 621.52 210.84 618.78 C 210.05 622.08 208.89 625.31 207.14 628.23 Z" />
</g>
<g id="#55293556">
<path fill="#552935" opacity="0.34" d=" M 15.15 619.82 C 17.21 624.32 18.27 629.21 17.88 634.21 C 15.78 629.70 15.65 624.67 15.15 619.82 Z" />
</g>
<g id="#3b0e1a40">
<path fill="#3b0e1a" opacity="0.25" d=" M 333.20 619.99 C 333.66 620.09 334.57 620.28 335.02 620.38 C 333.73 625.21 332.34 630.30 329.16 634.27 C 330.37 629.47 332.68 624.96 333.20 619.99 Z" />
</g>
<g id="#53273354">
<path fill="#532733" opacity="0.33" d=" M 24.19 620.78 C 25.75 626.13 27.69 631.52 26.79 637.24 C 25.24 631.88 24.28 626.35 24.19 620.78 Z" />
</g>
<g id="#550e215d">
<path fill="#550e21" opacity="0.36" d=" M 180.21 624.17 C 180.86 622.96 181.70 621.88 182.52 620.79 C 184.44 623.78 187.46 624.80 191.09 624.32 C 187.69 625.97 183.80 624.37 180.21 624.17 Z" />
</g>
<g id="#3e121e42">
<path fill="#3e121e" opacity="0.26" d=" M 176.01 635.13 C 176.35 632.18 177.24 629.31 178.86 626.81 C 178.71 629.80 177.85 632.74 176.01 635.13 Z" />
</g>
<g id="#55263356">
<path fill="#552633" opacity="0.34" d=" M 137.16 634.24 C 137.39 632.61 137.86 629.35 138.09 627.72 C 139.22 630.01 138.65 632.27 137.16 634.24 Z" />
</g>
<g id="#5e35415f">
<path fill="#5e3541" opacity="0.37" d=" M 18.99 636.76 C 19.96 638.43 19.81 640.41 19.93 642.28 C 17.94 640.83 17.87 638.81 18.99 636.76 Z" />
</g>
<g id="#471b2747">
<path fill="#471b27" opacity="0.28" d=" M 199.12 647.22 C 199.50 643.53 200.77 639.91 203.13 637.02 C 202.67 640.71 201.04 644.07 199.12 647.22 Z" />
</g>
<g id="#41172241">
<path fill="#411722" opacity="0.25" d=" M 325.35 640.85 C 325.89 640.17 326.42 639.50 326.95 638.83 C 326.86 641.55 325.61 643.99 324.01 646.13 C 324.38 644.34 324.82 642.58 325.35 640.85 Z" />
</g>
<g id="#5b313d5b">
<path fill="#5b313d" opacity="0.36" d=" M 27.97 640.86 C 29.97 642.87 30.12 645.63 29.77 648.30 C 28.33 646.06 27.92 643.46 27.97 640.86 Z" />
</g>
<g id="#50243052">
<path fill="#502430" opacity="0.32" d=" M 21.09 645.81 C 23.07 652.75 24.75 659.87 24.99 667.12 C 22.23 660.40 21.44 653.01 21.09 645.81 Z" />
</g>
<g id="#52243155">
<path fill="#522431" opacity="0.33" d=" M 124.16 653.28 C 123.87 650.60 124.24 647.95 125.81 645.71 C 126.14 648.39 125.78 651.06 124.16 653.28 Z" />
</g>
<g id="#53263355">
<path fill="#532633" opacity="0.33" d=" M 31.28 655.72 C 32.50 658.43 33.15 661.34 32.84 664.33 C 30.24 662.22 31.29 658.66 31.28 655.72 Z" />
</g>
<g id="#6a3d496a">
<path fill="#6a3d49" opacity="0.42" d=" M 346.66 664.67 C 351.67 653.69 369.88 655.16 373.96 666.02 C 373.98 670.33 374.02 674.67 373.98 679.01 C 372.84 680.77 371.93 682.99 370.09 684.10 C 365.36 686.30 360.29 687.20 355.10 687.06 C 345.81 684.56 341.83 672.74 346.66 664.67 Z" />
</g>
<g id="#471d2847">
<path fill="#471d28" opacity="0.28" d=" M 189.03 671.13 C 189.55 667.46 190.94 663.95 192.99 660.87 C 192.88 664.66 191.10 668.03 189.03 671.13 Z" />
</g>
<g id="#461a2648">
<path fill="#461a26" opacity="0.28" d=" M 163.05 677.17 C 163.43 672.62 163.54 667.81 165.75 663.70 C 165.91 668.34 164.34 672.78 163.05 677.17 Z" />
</g>
<g id="#4a1a264a">
<path fill="#4a1a26" opacity="0.29" d=" M 314.06 669.99 C 313.55 668.05 314.36 666.22 315.78 664.92 C 316.51 666.86 315.73 668.84 314.06 669.99 Z" />
</g>
<g id="#41182345">
<path fill="#411823" opacity="0.27" d=" M 373.96 666.02 C 376.15 668.63 377.08 676.15 373.98 679.01 C 374.02 674.67 373.98 670.33 373.96 666.02 Z" />
</g>
<g id="#4a1b284b">
<path fill="#4a1b28" opacity="0.29" d=" M 184.11 683.23 C 184.08 680.46 185.39 678.02 186.99 675.86 C 186.77 678.56 185.58 681.00 184.11 683.23 Z" />
</g>
<g id="#50253151">
<path fill="#502531" opacity="0.32" d=" M 306.04 689.14 C 306.37 685.40 307.70 681.84 310.00 678.88 C 309.60 682.59 308.28 686.13 306.04 689.14 Z" />
</g>
<g id="#52273354">
<path fill="#522733" opacity="0.33" d=" M 28.24 679.73 C 29.28 683.43 29.97 687.28 29.98 691.15 C 27.10 688.02 28.02 683.59 28.24 679.73 Z" />
</g>
<g id="#3e0f1c45">
<path fill="#3e0f1c" opacity="0.27" d=" M 158.78 701.86 C 161.47 695.54 159.48 688.25 161.86 681.78 C 161.99 688.83 161.03 695.84 160.78 702.89 C 148.70 703.28 136.59 702.58 124.52 703.46 C 123.44 702.83 122.40 702.13 121.51 701.26 C 121.81 700.92 122.42 700.25 122.72 699.91 C 122.85 700.39 123.10 701.34 123.23 701.82 C 135.07 702.21 146.94 702.11 158.78 701.86 Z" />
</g>
<g id="#3d0f1b43">
<path fill="#3d0f1b" opacity="0.26" d=" M 355.10 687.06 C 360.29 687.20 365.36 686.30 370.09 684.10 C 367.10 688.72 357.68 689.64 355.10 687.06 Z" />
</g>
<g id="#4c1f2b4d">
<path fill="#4c1f2b" opacity="0.30" d=" M 175.01 705.13 C 175.46 700.64 177.58 696.60 179.98 692.87 C 179.55 697.36 177.42 701.39 175.01 705.13 Z" />
</g>
<g id="#4314214a">
<path fill="#431421" opacity="0.29" d=" M 31.18 694.74 C 31.90 696.86 32.60 699.00 33.36 701.12 C 24.25 705.59 10.75 701.80 0.00 703.00 L 0.00 702.00 C 10.57 701.94 21.15 702.13 31.72 701.96 C 31.50 699.55 31.24 697.15 31.18 694.74 Z" />
</g>
<g id="#4f222e50">
<path fill="#4f222e" opacity="0.31" d=" M 300.18 703.27 C 300.01 700.46 301.38 698.02 303.03 695.88 C 302.72 698.55 301.57 700.99 300.18 703.27 Z" />
</g>
<g id="#01000013">
<path fill="#010000" opacity="0.07" d=" M 115.14 701.03 C 116.73 701.09 119.91 701.20 121.51 701.26 C 122.40 702.13 123.44 702.83 124.52 703.46 C 129.88 710.55 139.93 704.88 147.15 705.29 C 156.23 703.61 162.41 710.94 169.94 714.25 C 169.93 714.75 169.91 715.75 169.90 716.25 C 165.73 713.50 161.38 710.29 155.99 711.08 C 131.04 711.00 106.08 710.78 81.14 711.19 C 73.88 711.24 73.46 723.26 80.37 724.69 C 103.57 725.47 126.80 724.71 150.01 725.07 C 157.08 725.83 163.93 723.40 169.92 719.85 C 169.93 720.39 169.95 721.47 169.96 722.01 C 165.20 726.32 154.09 725.87 156.96 735.00 C 160.52 739.25 172.49 739.54 169.70 748.60 C 165.90 756.71 154.33 751.51 149.21 758.24 C 148.04 761.12 142.84 765.89 146.30 768.68 C 152.90 770.02 156.41 780.78 148.63 782.70 C 101.77 784.10 54.95 781.43 8.10 781.87 C 2.59 781.17 1.88 774.60 6.09 771.67 C 29.26 767.49 53.69 774.91 76.73 768.73 C 78.82 764.00 78.43 753.31 71.04 753.97 C 47.36 753.98 23.68 754.02 0.00 754.00 L 0.00 739.00 C 24.38 738.52 48.89 739.95 73.20 738.32 C 81.83 738.14 78.03 722.78 70.01 726.00 C 46.67 725.94 23.34 726.03 0.00 726.00 L 0.00 711.00 C 22.66 710.91 45.33 711.16 67.99 710.92 C 73.10 711.71 77.19 708.66 81.35 706.40 C 91.82 704.13 102.68 708.32 113.14 706.14 C 114.82 705.98 113.06 703.98 113.12 703.04 C 113.36 702.80 113.84 702.32 114.08 702.08 C 114.34 701.82 114.87 701.29 115.14 701.03 M 150.42 739.60 C 126.40 740.69 102.32 739.45 78.28 740.18 C 74.63 742.62 75.34 748.28 77.31 751.70 C 81.32 754.44 86.53 752.37 91.00 753.03 C 113.99 752.44 137.07 754.14 159.98 752.01 C 164.55 753.61 167.60 749.53 169.00 746.00 C 166.65 738.56 156.70 738.92 150.42 739.60 M 80.37 771.40 C 74.99 771.07 74.11 778.28 78.23 780.82 C 101.35 781.50 124.71 780.22 147.72 781.72 C 154.06 780.37 152.58 772.05 146.70 771.33 C 124.68 770.76 102.44 770.71 80.37 771.40 Z" />
</g>
<g id="#32030f42">
<path fill="#32030f" opacity="0.26" d=" M 327.65 703.52 C 332.52 694.65 339.73 711.44 329.02 707.96 C 334.86 707.40 332.54 702.96 327.65 703.52 Z" />
</g>
<g id="#3c0e1b45">
<path fill="#3c0e1b" opacity="0.27" d=" M 44.73 702.25 C 45.23 702.17 46.23 702.01 46.73 701.93 C 69.18 702.07 91.63 701.92 114.08 702.08 C 113.84 702.32 113.36 702.80 113.12 703.04 C 90.33 702.51 67.47 703.94 44.73 702.25 Z" />
</g>
<g id="#79243b7a">
<path fill="#79243b" opacity="0.48" d=" M 311.04 710.97 C 315.44 706.08 322.84 708.22 327.65 703.52 C 332.54 702.96 334.86 707.40 329.02 707.96 C 324.76 709.48 320.67 711.43 316.86 713.85 L 316.17 714.16 C 313.43 715.32 310.49 716.28 308.17 718.23 C 305.77 720.66 302.33 721.45 299.72 723.60 C 297.03 725.82 285.68 724.69 287.90 729.96 C 276.20 733.42 265.78 740.53 254.10 744.20 C 250.34 747.00 244.70 746.25 242.62 751.12 C 240.16 750.53 237.66 750.15 235.15 749.90 C 234.51 747.37 234.42 744.45 232.44 742.53 C 231.68 741.55 230.87 740.62 230.05 739.73 C 250.78 733.93 270.92 722.29 291.70 717.35 C 298.22 717.88 304.74 713.39 311.04 710.97 Z" />
</g>
<g id="#52132458">
<path fill="#521324" opacity="0.35" d=" M 291.70 717.35 C 294.67 714.83 296.19 711.27 297.91 707.89 C 297.92 710.70 294.46 717.33 301.43 713.44 C 304.19 711.26 307.42 710.39 311.04 710.97 C 304.74 713.39 298.22 717.88 291.70 717.35 Z" />
</g>
<g id="#50071b5c">
<path fill="#50071b" opacity="0.36" d=" M 316.86 713.85 C 320.67 711.43 324.76 709.48 329.02 707.96 C 327.14 711.98 321.20 713.92 316.86 713.85 Z" />
</g>
<g id="#0300012a">
<path fill="#030001" opacity="0.16" d=" M 80.37 724.69 C 73.46 723.26 73.88 711.24 81.14 711.19 C 106.08 710.78 131.04 711.00 155.99 711.08 C 161.38 710.29 165.73 713.50 169.90 716.25 C 169.92 717.44 169.93 718.64 169.92 719.85 C 163.93 723.40 157.08 725.83 150.01 725.07 C 126.80 724.71 103.57 725.47 80.37 724.69 Z" />
</g>
<g id="#491b284a">
<path fill="#491b28" opacity="0.29" d=" M 169.94 714.25 L 170.89 714.10 C 169.24 719.67 172.61 722.26 177.11 724.01 C 174.66 723.59 172.26 722.93 169.96 722.01 C 169.95 721.47 169.93 720.39 169.92 719.85 C 169.93 718.64 169.92 717.44 169.90 716.25 C 169.91 715.75 169.93 714.75 169.94 714.25 Z" />
</g>
<g id="#3f05154d">
<path fill="#3f0515" opacity="0.30" d=" M 308.17 718.23 C 310.49 716.28 313.43 715.32 316.17 714.16 C 315.55 718.26 312.30 719.00 308.17 718.23 Z" />
</g>
<g id="#37081543">
<path fill="#370815" opacity="0.26" d=" M 287.90 729.96 C 285.68 724.69 297.03 725.82 299.72 723.60 C 296.19 725.85 292.45 727.74 288.83 729.83 L 287.90 729.96 Z" />
</g>
<g id="#4a1a274b">
<path fill="#4a1a27" opacity="0.29" d=" M 185.86 728.06 C 189.60 728.36 193.12 729.79 196.23 731.86 C 192.49 731.59 189.01 730.00 185.86 728.06 Z" />
</g>
<g id="#796f7179">
<path fill="#796f71" opacity="0.47" d=" M 254.10 744.20 C 265.78 740.53 276.20 733.42 287.90 729.96 L 288.83 729.83 C 284.35 740.74 279.98 751.71 275.64 762.66 C 272.35 765.80 268.53 761.68 265.19 760.70 C 257.82 757.14 249.87 754.98 242.62 751.12 C 244.70 746.25 250.34 747.00 254.10 744.20 Z" />
</g>
<g id="#0300012b">
<path fill="#030001" opacity="0.17" d=" M 150.42 739.60 C 156.70 738.92 166.65 738.56 169.00 746.00 C 167.60 749.53 164.55 753.61 159.98 752.01 C 137.07 754.14 113.99 752.44 91.00 753.03 C 86.53 752.37 81.32 754.44 77.31 751.70 C 75.34 748.28 74.63 742.62 78.28 740.18 C 102.32 739.45 126.40 740.69 150.42 739.60 Z" />
</g>
<g id="#46172448">
<path fill="#461724" opacity="0.28" d=" M 212.90 739.01 C 216.49 739.89 219.93 741.30 223.25 742.93 C 219.35 743.29 216.04 740.96 212.90 739.01 Z" />
</g>
<g id="#2b020d4c">
<path fill="#2b020d" opacity="0.30" d=" M 232.44 742.53 C 234.42 744.45 234.51 747.37 235.15 749.90 C 230.86 750.24 231.83 745.57 232.44 742.53 Z" />
</g>
<g id="#4b0f1f54">
<path fill="#4b0f1f" opacity="0.33" d=" M 196.99 757.02 C 198.86 753.57 204.44 750.96 207.32 754.68 C 211.26 757.70 208.26 765.49 203.11 764.09 C 208.75 763.33 208.49 752.81 202.64 754.58 C 200.71 755.28 198.88 756.22 196.99 757.02 Z" />
</g>
<g id="#7f45557f">
<path fill="#7f4555" opacity="0.50" d=" M 202.64 754.58 C 208.49 752.81 208.75 763.33 203.11 764.09 C 198.37 765.64 191.66 764.46 189.70 770.15 L 188.91 770.58 C 185.50 770.48 181.76 769.84 180.55 766.13 C 180.96 765.63 181.78 764.62 182.19 764.12 C 182.64 763.88 183.56 763.41 184.02 763.17 C 186.05 762.21 188.03 761.14 190.01 760.08 C 192.34 759.05 194.68 758.07 196.99 757.02 C 198.88 756.22 200.71 755.28 202.64 754.58 Z" />
</g>
<g id="#54162757">
<path fill="#541627" opacity="0.34" d=" M 190.01 760.08 C 191.28 757.12 194.09 756.72 196.99 757.02 C 194.68 758.07 192.34 759.05 190.01 760.08 Z" />
</g>
<g id="#440a194c">
<path fill="#440a19" opacity="0.30" d=" M 184.02 763.17 C 184.13 759.55 187.22 759.81 190.01 760.08 C 188.03 761.14 186.05 762.21 184.02 763.17 Z" />
</g>
<g id="#42111e46">
<path fill="#42111e" opacity="0.27" d=" M 170.82 765.81 C 174.50 764.57 178.34 764.24 182.19 764.12 C 181.78 764.62 180.96 765.63 180.55 766.13 C 177.29 765.97 174.06 765.91 170.82 765.81 Z" />
</g>
<g id="#5918295d">
<path fill="#591829" opacity="0.36" d=" M 189.70 770.15 C 191.66 764.46 198.37 765.64 203.11 764.09 C 201.21 769.56 193.48 766.13 189.70 770.15 Z" />
</g>
<g id="#6c414c6c">
<path fill="#6c414c" opacity="0.42" d=" M 168.85 766.77 C 169.34 766.53 170.33 766.05 170.82 765.81 C 174.06 765.91 177.29 765.97 180.55 766.13 C 181.76 769.84 185.50 770.48 188.91 770.58 C 189.36 771.29 189.81 772.01 190.27 772.73 C 190.70 777.18 191.00 781.61 191.21 786.12 C 188.36 793.65 179.74 797.54 171.99 796.19 C 166.69 792.32 160.18 787.62 161.00 780.22 C 162.65 775.20 165.56 770.83 168.85 766.77 Z" />
</g>
<g id="#44121f47">
<path fill="#44121f" opacity="0.28" d=" M 161.00 780.22 C 160.30 774.56 163.85 769.22 168.85 766.77 C 165.56 770.83 162.65 775.20 161.00 780.22 Z" />
</g>
<g id="#03000129">
<path fill="#030001" opacity="0.16" d=" M 80.37 771.40 C 102.44 770.71 124.68 770.76 146.70 771.33 C 152.58 772.05 154.06 780.37 147.72 781.72 C 124.71 780.22 101.35 781.50 78.23 780.82 C 74.11 778.28 74.99 771.07 80.37 771.40 Z" />
</g>
<g id="#4918254c">
<path fill="#491825" opacity="0.30" d=" M 190.27 772.73 C 193.85 776.23 191.64 781.80 191.21 786.12 C 191.00 781.61 190.70 777.18 190.27 772.73 Z" />
</g>
<g id="#7f49587f">
<path fill="#7f4958" opacity="0.50" d=" M 0.00 799.62 C 0.81 801.20 1.63 802.78 2.53 804.31 C 3.97 812.09 15.31 812.03 18.63 805.67 C 19.88 803.85 21.67 802.61 23.97 802.90 C 25.76 804.46 27.93 805.44 30.25 805.93 C 30.57 806.12 31.20 806.50 31.52 806.69 C 32.55 810.37 29.60 813.54 30.12 817.22 C 30.35 819.59 32.54 821.22 33.85 823.10 C 36.73 827.92 42.70 826.66 47.25 825.69 C 47.92 829.83 48.71 834.02 49.42 838.19 C 48.35 838.57 47.27 838.93 46.17 839.26 C 42.89 839.78 39.91 842.55 39.69 845.97 C 36.74 850.82 39.88 853.83 43.92 855.18 C 44.62 855.80 45.31 856.44 45.99 857.10 C 45.85 860.08 45.70 863.23 45.34 866.25 C 45.11 866.55 44.64 867.15 44.40 867.45 C 39.26 868.09 33.86 867.12 28.88 868.73 L 28.19 869.01 C 19.31 871.38 27.82 886.63 16.09 886.12 C 10.82 887.71 10.12 882.50 7.09 879.79 C 5.02 878.70 2.66 878.39 0.00 878.84 L 0.00 860.08 C 5.80 860.32 12.18 861.06 16.07 856.00 C 16.33 855.78 16.84 855.33 17.09 855.11 C 22.98 850.06 23.36 838.49 18.12 832.87 C 14.19 826.78 6.57 824.99 0.00 827.16 L 0.00 799.62 Z" />
</g>
<g id="#460c1c4f">
<path fill="#460c1c" opacity="0.31" d=" M 20.26 800.14 C 22.57 799.16 23.55 800.89 23.97 802.90 C 21.67 802.61 19.88 803.85 18.63 805.67 C 15.31 812.03 3.97 812.09 2.53 804.31 C 5.30 805.92 7.97 807.80 10.96 808.98 C 15.48 807.78 17.59 803.50 20.26 800.14 Z" />
</g>
<g id="#500f2156">
<path fill="#500f21" opacity="0.34" d=" M 23.97 802.90 C 26.64 802.85 29.62 802.69 30.25 805.93 C 27.93 805.44 25.76 804.46 23.97 802.90 Z" />
</g>
<g id="#4f0f2157">
<path fill="#4f0f21" opacity="0.34" d=" M 31.52 806.69 C 35.29 808.86 31.91 814.47 30.12 817.22 C 29.60 813.54 32.55 810.37 31.52 806.69 Z" />
</g>
<g id="#5810245f">
<path fill="#581024" opacity="0.37" d=" M 33.85 823.10 C 38.27 825.15 44.60 820.71 47.25 825.69 C 42.70 826.66 36.73 827.92 33.85 823.10 Z" />
</g>
<g id="#360f1a3d">
<path fill="#360f1a" opacity="0.24" d=" M 134.10 825.11 C 134.49 820.59 144.98 823.13 144.70 824.02 C 141.13 823.84 137.47 823.77 134.10 825.11 Z" />
</g>
<g id="#6a3e4a6a">
<path fill="#6a3e4a" opacity="0.42" d=" M 134.10 825.11 C 137.47 823.77 141.13 823.84 144.70 824.02 C 150.35 826.36 151.67 833.98 148.85 838.86 C 144.66 844.36 136.37 844.01 132.07 838.83 C 131.41 834.89 131.05 830.86 131.97 826.96 C 132.38 826.08 133.09 825.46 134.10 825.11 Z" />
</g>
<g id="#430a1a4d">
<path fill="#430a1a" opacity="0.30" d=" M 0.00 827.16 C 6.57 824.99 14.19 826.78 18.12 832.87 C 13.01 828.25 6.29 828.98 0.00 830.03 L 0.00 827.16 Z" />
</g>
<g id="#50102157">
<path fill="#501021" opacity="0.34" d=" M 47.25 825.69 C 50.71 828.92 50.55 833.89 49.42 838.19 C 48.71 834.02 47.92 829.83 47.25 825.69 Z" />
</g>
<g id="#32091438">
<path fill="#320914" opacity="0.22" d=" M 132.07 838.83 C 128.76 837.08 128.90 829.53 131.97 826.96 C 131.05 830.86 131.41 834.89 132.07 838.83 Z" />
</g>
<g id="#38061341">
<path fill="#380613" opacity="0.25" d=" M 18.12 832.87 C 23.36 838.49 22.98 850.06 17.09 855.11 C 20.93 848.28 20.78 840.11 18.12 832.87 Z" />
</g>
<g id="#5a14275d">
<path fill="#5a1427" opacity="0.36" d=" M 39.69 845.97 C 39.91 842.55 42.89 839.78 46.17 839.26 C 43.98 841.45 41.86 843.73 39.69 845.97 Z" />
</g>
<g id="#3e0f1c48">
<path fill="#3e0f1c" opacity="0.28" d=" M 43.92 855.18 C 39.88 853.83 36.74 850.82 39.69 845.97 C 39.44 849.65 41.98 852.36 43.92 855.18 Z" />
</g>
<g id="#440b1b4a">
<path fill="#440b1b" opacity="0.29" d=" M 0.00 859.11 C 6.31 860.69 10.54 856.74 16.07 856.00 C 12.18 861.06 5.80 860.32 0.00 860.08 L 0.00 859.11 Z" />
</g>
<g id="#3c091746">
<path fill="#3c0917" opacity="0.27" d=" M 45.99 857.10 C 49.47 859.46 47.79 863.82 45.34 866.25 C 45.70 863.23 45.85 860.08 45.99 857.10 Z" />
</g>
<g id="#64213465">
<path fill="#642134" opacity="0.40" d=" M 28.88 868.73 C 33.86 867.12 39.26 868.09 44.40 867.45 C 40.62 871.43 33.66 867.60 28.88 868.73 Z" />
</g>
<g id="#58192a5d">
<path fill="#58192a" opacity="0.36" d=" M 16.09 886.12 C 27.82 886.63 19.31 871.38 28.19 869.01 C 22.93 875.10 28.85 889.50 16.09 886.12 Z" />
</g>
<g id="#5511245b">
<path fill="#551124" opacity="0.36" d=" M 7.09 879.79 C 10.12 882.50 10.82 887.71 16.09 886.12 C 12.65 894.16 6.83 885.25 7.09 879.79 Z" />
</g>
</svg>
